<?xml version="1.0" standalone="no"?>
<!DOCTYPE svg PUBLIC "-//W3C//DTD SVG 1.1//EN" "http://www.w3.org/Graphics/SVG/1.1/DTD/svg11.dtd" >
<svg xmlns="http://www.w3.org/2000/svg" xmlns:xlink="http://www.w3.org/1999/xlink" version="1.1">
<metadata>
Created by FontForge 20201107 at Thu Oct 31 10:16:50 2024
 By 
Copyright (c) 2020/2022 by Guido Schneider. Published by BrassFonts. All rights reserved. You may only use this software, if you have purchased a legal license from BrassFonts or an authorized distributor! This font software may not be reproduced, modified, disclosed or transferred without the express written approval of BrassFonts, Germany. Konkret Grotesk is a trademark of Guido Schneider and may be registered in certain jurisdictions in the name of BrassFonts. This typeface is original artwork of Guido Schneider. The design may be protected in certain jurisdictions.
</metadata>
<defs>
<font id="GarantPro-Italic" horiz-adv-x="1228" >
  <font-face 
    font-family="Garant Pro"
    font-weight="500"
    font-style="italic"
    font-stretch="normal"
    units-per-em="2048"
    panose-1="0 0 6 0 0 0 0 0 0 0"
    ascent="1638"
    descent="-410"
    x-height="1016"
    cap-height="1352"
    bbox="-1064 -568 3197 2213"
    underline-thickness="51"
    underline-position="-101"
    slope="-10"
    unicode-range="U+000D-1F7BB"
  />
<missing-glyph horiz-adv-x="1556" 
d="M1485 0h-1352v1352h1352v-1352zM391 891v-483h199q106 0 165.5 37t59.5 126q0 57 -33 98t-89 50q104 37 104 141q0 79 -54.5 114.5t-144.5 35.5h-336v-119h129zM897 1010v-740h127v353h219v108h-219v160h330v119h-457zM575 766h-55v131h55q48 0 70.5 -13.5t22.5 -52.5
q0 -32 -24.5 -48.5t-68.5 -16.5zM573 516h-53v143h68q94 0 94 -69q0 -45 -27 -59.5t-82 -14.5z" />
    <glyph glyph-name="fi" unicode="fi" horiz-adv-x="1143" 
d="M483 1016h598l-180 -1016h-149l156 885h-448l-226 -1299l-153 -16l229 1315h-223l24 131h222l27 155q26 149 118 230.5t221 81.5q68 0 164 -25l-36 -125q-67 19 -125 19q-44 0 -79 -15t-54 -35.5t-33.5 -52t-19.5 -52.5t-10 -50zM1068 1414q52 0 80 -33t20 -90
q-5 -40 -40 -69t-82 -29q-52 0 -81 33.5t-21 86.5q7 44 42 72.5t82 28.5z" />
    <glyph glyph-name="fl" unicode="fl" horiz-adv-x="1163" 
d="M483 1016h307l-24 -131h-305l-229 -1299l-153 -16l230 1315h-222l24 131h221l26 151q28 154 124.5 235t240.5 81q95 0 175 -25l-42 -127q-65 21 -127 21q-102 0 -153.5 -51t-69.5 -154zM772 0l258 1458l152 17l-260 -1475h-150z" />
    <glyph glyph-name="f_f" unicode="ff" horiz-adv-x="1323" 
d="M1351 1352q-42 0 -76 -9.5t-56 -28t-37.5 -37.5t-25 -45.5t-14 -44t-8.5 -40.5l-23 -131h306l-23 -131h-307l-225 -1299l-153 -16l229 1315h-478l-226 -1299l-153 -16l229 1315h-223l24 131h222l27 155q27 150 120.5 231t229.5 81q78 0 174 -25l-36 -125q-67 19 -135 19
q-47 0 -84 -15t-57.5 -35.5t-35.5 -52t-20 -53t-10 -49.5l-23 -131h478l27 155q27 150 122 231t238 81q79 0 174 -25l-36 -125q-67 19 -135 19z" />
    <glyph glyph-name="f_f_i" unicode="ffi" horiz-adv-x="1771" 
d="M1111 1016h598l-180 -1016h-150l157 885h-449l-225 -1299l-153 -16l228 1315h-477l-226 -1299l-153 -16l229 1315h-223l24 131h222l27 155q27 150 120.5 231t229.5 81q78 0 174 -25l-36 -125q-67 19 -135 19q-47 0 -84 -15t-57.5 -35.5t-35.5 -52t-20 -53t-10 -49.5
l-23 -131h478l27 162q26 146 117 225.5t222 79.5q68 0 164 -25l-36 -125q-66 19 -125 19q-44 0 -78 -14t-53.5 -34t-34 -49.5t-20.5 -51.5t-10 -50zM1696 1414q52 0 80 -33t20 -90q-5 -40 -40.5 -69t-82.5 -29q-52 0 -80.5 33.5t-20.5 86.5q7 44 42 72.5t82 28.5z" />
    <glyph glyph-name="f_f_j" unicode="ffj" horiz-adv-x="1771" 
d="M1111 1016h598l-213 -1205q-20 -113 -87.5 -175t-173.5 -62q-65 0 -127 16l28 125q56 -9 81 -9q112 0 133 122l186 1057h-449l-225 -1299l-153 -16l228 1315h-477l-226 -1299l-153 -16l229 1315h-223l24 131h222l27 155q27 150 120.5 231t229.5 81q78 0 174 -25l-36 -125
q-67 19 -135 19q-47 0 -84 -15t-57.5 -35.5t-35.5 -52t-20 -53t-10 -49.5l-23 -131h478l27 162q26 146 117 225.5t222 79.5q68 0 164 -25l-36 -125q-66 19 -125 19q-44 0 -78 -14t-53.5 -34t-34 -49.5t-20.5 -51.5t-10 -50zM1696 1414q52 0 80 -33t20 -90q-5 -40 -40.5 -69
t-82.5 -29q-52 0 -80.5 33.5t-20.5 86.5q7 44 42 72.5t82 28.5z" />
    <glyph glyph-name="f_f_l" unicode="ffl" horiz-adv-x="1786" 
d="M1111 1016h306l-23 -131h-307l-225 -1299l-153 -16l229 1315h-478l-226 -1299l-153 -16l229 1315h-223l24 131h222l27 155q27 150 120.5 231t229.5 81q78 0 174 -25l-36 -125q-67 19 -135 19q-47 0 -84 -15t-57.5 -35.5t-35.5 -52t-20 -53t-10 -49.5l-23 -131h478l27 155
q27 150 122 231t238 81q79 0 174 -25l-36 -125q-67 19 -135 19q-42 0 -76 -9.5t-56 -28t-37.5 -37.5t-25 -45.5t-14 -44t-8.5 -40.5zM1396 0l258 1458l151 17l-260 -1475h-149z" />
    <glyph glyph-name="f_j" unicode="fj" horiz-adv-x="1143" 
d="M483 1016h598l-213 -1205q-20 -113 -87.5 -175t-173.5 -62q-65 0 -127 16l28 125q56 -9 81 -9q112 0 133 122l186 1057h-448l-226 -1299l-153 -16l229 1315h-223l24 131h222l27 155q26 149 118 230.5t221 81.5q68 0 164 -25l-36 -125q-67 19 -125 19q-44 0 -79 -15
t-54 -35.5t-33.5 -52t-19.5 -52.5t-10 -50zM1068 1414q52 0 80 -33t20 -90q-5 -40 -40 -69t-82 -29q-52 0 -81 33.5t-21 86.5q7 44 42 72.5t82 28.5z" />
    <glyph glyph-name=".notdef" horiz-adv-x="1556" 
d="M1485 0h-1352v1352h1352v-1352zM391 891v-483h199q106 0 165.5 37t59.5 126q0 57 -33 98t-89 50q104 37 104 141q0 79 -54.5 114.5t-144.5 35.5h-336v-119h129zM897 1010v-740h127v353h219v108h-219v160h330v119h-457zM575 766h-55v131h55q48 0 70.5 -13.5t22.5 -52.5
q0 -32 -24.5 -48.5t-68.5 -16.5zM573 516h-53v143h68q94 0 94 -69q0 -45 -27 -59.5t-82 -14.5z" />
    <glyph glyph-name=".null" horiz-adv-x="457" 
 />
    <glyph glyph-name="nonmarkingreturn" horiz-adv-x="682" 
 />
    <glyph glyph-name="CR" unicode="&#xd;" horiz-adv-x="389" 
 />
    <glyph glyph-name="space" unicode=" " horiz-adv-x="389" 
 />
    <glyph glyph-name="exclam" unicode="!" horiz-adv-x="478" 
d="M279 372h-125l147 980h177zM156 -20q-43 0 -71.5 28t-28.5 70q0 46 36 81t82 35q43 0 71 -28.5t28 -71.5q0 -46 -35.5 -80t-81.5 -34z" />
    <glyph glyph-name="quotedbl" unicode="&#x22;" horiz-adv-x="677" 
d="M293 798h-130l100 623h152zM616 798h-130l101 623h151z" />
    <glyph glyph-name="numbersign" unicode="#" horiz-adv-x="1157" 
d="M1187 962l-36 -129h-203l-94 -314h201l-35 -129h-204l-117 -390h-145l117 390h-295l-117 -390h-145l116 390h-199l35 129h202l94 314h-200l35 129h203l117 390h146l-117 -390h295l116 390h146l-117 -390h201zM414 519h295l94 314h-295z" />
    <glyph glyph-name="dollar" unicode="$" horiz-adv-x="1166" 
d="M685 739l112 -24q129 -29 198.5 -105t69.5 -189q0 -79 -31.5 -151t-92.5 -131t-160.5 -96t-225.5 -42l-38 -214h-132l39 218q-163 19 -264 104t-118 236l144 55q1 -118 71 -183.5t189 -80.5l88 496l-96 21q-125 29 -191 106t-66 188q0 54 16.5 107.5t53.5 105t91 92
t136.5 67.5t181.5 32l38 214h132l-37 -217q161 -18 258.5 -104.5t112.5 -236.5l-143 -56q-4 117 -71 183.5t-181 83.5zM504 780l54 -12l80 453q-133 -12 -220 -83t-87 -180q0 -138 173 -178zM660 602l-81 -469q86 6 152.5 32t105.5 65.5t58.5 84t19.5 91.5q0 137 -182 180z
" />
    <glyph glyph-name="percent" unicode="%" horiz-adv-x="1588" 
d="M451 715q-122 0 -201 78.5t-79 196.5q0 151 111 258.5t261 107.5q124 0 201.5 -78.5t77.5 -197.5q0 -152 -110 -258.5t-261 -106.5zM401 0h-142l985 1352h142zM462 830q97 0 167 71.5t70 172.5q0 72 -46 119t-121 47q-95 0 -166 -72t-71 -170q0 -74 46 -121t121 -47z
M1104 -4q-122 0 -201 78.5t-79 196.5q0 151 111 258.5t261 107.5q124 0 202 -78.5t78 -197.5q0 -152 -110 -258.5t-262 -106.5zM1115 112q97 0 167 70.5t70 171.5q0 73 -45.5 120t-120.5 47q-95 0 -166.5 -71.5t-71.5 -169.5q0 -74 45.5 -121t121.5 -47z" />
    <glyph glyph-name="ampersand" unicode="&#x26;" horiz-adv-x="1352" 
d="M1306 765l-290 -420q-12 -17 -22 -30l277 -315h-193l-176 204q-214 -229 -489 -229q-175 0 -279.5 86.5t-104.5 230.5q0 60 16 113.5t47.5 97.5t66.5 79t85 67.5t90 55t94 48.5l-17 20q-60 70 -87.5 132t-27.5 130q0 149 113 245t288 96q139 0 223.5 -69t84.5 -184
q0 -59 -20 -111.5t-51 -92t-78.5 -76.5t-92.5 -62.5t-103 -53.5l-19 -9l263 -300l4 6l284 406zM690 1250q-56 0 -101 -15t-72 -37.5t-45 -52t-25 -56.5t-7 -52q0 -89 98 -200l20 -24l36 17q143 68 202.5 131t59.5 153q0 63 -45.5 99.5t-120.5 36.5zM429 106q208 0 386 199
l-303 351l-2 -1q-184 -88 -258 -165t-74 -189q0 -89 67 -142t184 -53z" />
    <glyph glyph-name="quotesingle" unicode="'" horiz-adv-x="354" 
d="M293 798h-130l100 623h152z" />
    <glyph glyph-name="parenleft" unicode="(" horiz-adv-x="642" 
d="M497 -297l-113 -84q-260 306 -260 734q0 319 158.5 619t428.5 524l89 -101q-244 -204 -384.5 -478t-140.5 -566q0 -380 222 -648z" />
    <glyph glyph-name="parenright" unicode=")" horiz-adv-x="642" 
d="M164 1411l112 84q261 -307 261 -734q0 -319 -158.5 -619t-428.5 -524l-89 101q244 204 384 478t140 566q0 382 -221 648z" />
    <glyph glyph-name="asterisk" unicode="*" horiz-adv-x="819" 
d="M527 841h-117l52 259l-257 -86l-20 113l262 69l-123 212l103 70l110 -226l191 226l86 -70l-197 -212l238 -69l-56 -113l-233 86z" />
    <glyph glyph-name="plus" unicode="+" 
d="M698 590h411l-26 -137h-409l-72 -407h-139l72 407h-411l26 137h409l72 406h139z" />
    <glyph glyph-name="comma" unicode="," horiz-adv-x="419" 
d="M139 196q54 0 82 -33t28 -88q0 -112 -69 -220.5t-178 -184.5l-57 72q144 105 178 233h-6q-43 0 -72 29.5t-29 73.5q0 50 36.5 84t86.5 34z" />
    <glyph glyph-name="hyphen" unicode="-" horiz-adv-x="720" 
d="M657 489h-599l24 133h599z" />
    <glyph glyph-name="period" unicode="." horiz-adv-x="403" 
d="M117 -20q-43 0 -71 28t-28 70q0 46 35.5 81t82.5 35q43 0 72 -28.5t29 -70.5q0 -46 -36.5 -80.5t-83.5 -34.5z" />
    <glyph glyph-name="slash" unicode="/" horiz-adv-x="798" 
d="M4 -154h-141l987 1639h141z" />
    <glyph glyph-name="zero" unicode="0" horiz-adv-x="1181" 
d="M501 -25q-195 0 -301 125t-106 361q0 102 16.5 206t49 207.5t86 193.5t123 159t165 109t206.5 40q195 0 301 -123.5t106 -357.5q0 -87 -11.5 -176t-36 -179.5t-61 -173t-89.5 -154t-117.5 -124t-149.5 -83t-181 -30.5zM512 114q76 0 142 28.5t114 76.5t87 113t64.5 136.5
t42.5 149t24 148t7 136.5q0 336 -266 336q-104 0 -188.5 -53.5t-137.5 -136.5t-89.5 -190.5t-51 -208.5t-14.5 -197q0 -338 266 -338z" />
    <glyph glyph-name="one" unicode="1" horiz-adv-x="1085" 
d="M839 1352l-216 -1214h325l-25 -138h-888l25 138h414l184 1046l-440 -145l24 138l477 175h120z" />
    <glyph glyph-name="two" unicode="2" horiz-adv-x="1119" 
d="M650 425l-395 -287h708l-26 -138h-933l24 127l520 383q75 55 126.5 96.5t106 95t87 101t53 105.5t20.5 117q-1 103 -66 160.5t-182 57.5q-153 0 -259 -94t-133 -247l-129 60q44 188 193.5 301t343.5 113q178 0 281.5 -92t104.5 -246q1 -77 -25 -151t-64.5 -132t-102 -121
t-118.5 -107t-135 -102z" />
    <glyph glyph-name="three" unicode="3" horiz-adv-x="1137" 
d="M792 700q233 -54 233 -270q0 -129 -74 -234t-198.5 -163t-271.5 -58q-176 0 -293 78.5t-145 233.5l143 60q25 -239 302 -239q102 0 188.5 36.5t141.5 112t55 177.5t-73.5 148.5t-225.5 46.5h-144l24 137h124q75 0 135 14.5t98.5 40t66 55.5t41.5 65.5t20 64.5t6 57
q0 90 -69 138t-177 48q-261 0 -372 -248l-125 77q84 152 220.5 227t294.5 75q104 0 188.5 -32.5t138 -103.5t53.5 -170q0 -132 -76.5 -233t-228.5 -141z" />
    <glyph glyph-name="four" unicode="4" horiz-adv-x="1128" 
d="M1042 1352l-160 -910h183l-24 -137h-183l-55 -305h-150l56 305h-693l21 129l866 918h139zM210 442h522l121 678z" />
    <glyph glyph-name="five" unicode="5" horiz-adv-x="1149" 
d="M1136 1352l-26 -139l-637 2l-124 -439q138 94 298 94q178 0 285 -100.5t107 -265.5q0 -144 -76 -266t-204.5 -192.5t-277.5 -70.5q-164 0 -277 79t-141 233l144 60q12 -122 87.5 -179.5t197.5 -57.5q107 0 198.5 55t143.5 143.5t52 185.5q0 110 -73 177.5t-196 67.5
q-111 0 -186.5 -38.5t-142.5 -112.5l-115 47l194 717h769z" />
    <glyph glyph-name="six" unicode="6" horiz-adv-x="1095" 
d="M645 861q170 0 275 -105.5t105 -269.5q0 -60 -20.5 -127t-65.5 -135.5t-107.5 -123.5t-156.5 -90t-204 -35q-187 0 -298.5 102.5t-111.5 269.5q0 122 57 237.5t196 287.5l391 480h168l-440 -536q87 45 212 45zM479 108q80 0 147.5 26.5t111.5 67.5t75 92.5t44.5 100
t13.5 90.5q0 111 -72.5 178.5t-192.5 67.5q-83 0 -152 -26.5t-112.5 -68t-74 -93.5t-43 -101t-12.5 -92q0 -109 72 -175.5t195 -66.5z" />
    <glyph glyph-name="seven" unicode="7" horiz-adv-x="1006" 
d="M175 1213l26 139h894l-23 -127l-751 -1225h-162l747 1213h-731z" />
    <glyph glyph-name="eight" unicode="8" horiz-adv-x="1175" 
d="M1157 1069q0 -124 -76 -221.5t-193 -136.5q90 -32 143 -105.5t52 -177.5q0 -141 -80.5 -245.5t-212.5 -156t-295 -51.5q-214 0 -333 88.5t-119 245.5q0 144 88 254.5t229 150.5q-75 32 -119.5 97.5t-43.5 154.5q0 127 75.5 222.5t197.5 143.5t270 48q199 0 308 -82.5
t109 -228.5zM636 771q76 0 137 14.5t99.5 39t65.5 53t40 62t18.5 60t5.5 51.5q0 92 -70 145.5t-211 53.5q-176 0 -273 -79t-97 -202q0 -91 71 -144.5t214 -53.5zM516 105q96 0 171.5 23.5t120 58.5t73.5 80.5t39.5 84t10.5 74.5q0 103 -83.5 163t-236.5 60q-96 0 -171.5 -23
t-119 -57t-71.5 -79.5t-38 -84.5t-10 -77q0 -104 81 -163.5t234 -59.5z" />
    <glyph glyph-name="nine" unicode="9" horiz-adv-x="1095" 
d="M684 1376q187 0 298.5 -102t111.5 -269q0 -123 -57 -239t-196 -287l-390 -479h-169l440 536q-89 -46 -212 -46q-170 0 -275 105.5t-105 269.5q0 60 20.5 127t65.5 135.5t107.5 123.5t156.5 90t204 35zM549 621q83 0 152 26.5t112.5 68t74 93.5t43 100.5t12.5 91.5
q0 109 -72 176t-195 67q-80 0 -147.5 -26.5t-111.5 -68t-75 -93t-44.5 -100t-13.5 -90.5q0 -111 72 -178t193 -67z" />
    <glyph glyph-name="colon" unicode=":" horiz-adv-x="401" 
d="M240 679q-43 0 -71.5 28t-28.5 71q0 45 36 80.5t82 35.5q43 0 71 -28t28 -71q0 -45 -36 -80.5t-81 -35.5zM117 -20q-42 0 -70.5 28t-28.5 70q0 46 35.5 81t82.5 35q42 0 70 -28.5t28 -70.5q0 -46 -35 -80.5t-82 -34.5z" />
    <glyph glyph-name="semicolon" unicode=";" horiz-adv-x="419" 
d="M232 703q42 0 70.5 -28t28.5 -69q0 -51 -37.5 -84.5t-82.5 -33.5q-43 0 -70.5 28.5t-27.5 71.5q0 45 36 80t83 35zM139 196q54 0 82 -33t28 -88q0 -112 -69 -220.5t-178 -184.5l-57 72q144 105 178 233h-6q-43 0 -72 29.5t-29 73.5q0 50 36.5 84t86.5 34z" />
    <glyph glyph-name="less" unicode="&#x3c;" horiz-adv-x="1230" 
d="M147 578l1038 433l-28 -156l-829 -331l711 -333l-22 -143l-885 430z" />
    <glyph glyph-name="equal" unicode="=" 
d="M1117 648h-958l25 137h958zM1049 257h-958l25 137h958z" />
    <glyph glyph-name="greater" unicode="&#x3e;" horiz-adv-x="1230" 
d="M1090 473l-1038 -433l28 156l829 330l-711 333l22 143l885 -430z" />
    <glyph glyph-name="question" unicode="?" horiz-adv-x="899" 
d="M956 1047q0 -167 -119.5 -300.5t-310.5 -159.5l-47 -216h-121l42 323l64 2q76 3 141.5 33t109 77.5t68 106.5t24.5 121q0 97 -60.5 153t-159.5 56q-111 0 -203 -64.5t-127 -159.5l-125 61q63 134 190 214t278 80q159 0 257.5 -88.5t98.5 -238.5zM377 193q42 0 70 -28.5
t28 -70.5q0 -45 -36 -79.5t-81 -34.5q-43 0 -70.5 28t-27.5 70q0 45 35.5 80t81.5 35z" />
    <glyph glyph-name="at" unicode="@" horiz-adv-x="2019" 
d="M1188 1483q224 0 399 -92.5t272.5 -260t97.5 -382.5q0 -78 -14.5 -160.5t-49 -166.5t-84 -149.5t-127.5 -107t-172 -41.5q-108 0 -164.5 56.5t-68.5 146.5q-64 -84 -155 -133.5t-204 -49.5q-160 0 -258.5 98.5t-98.5 254.5q0 90 36 179t98.5 159.5t156 114.5t199.5 44
q110 0 189.5 -48.5t116.5 -135.5l58 164h95l-90 -515q-6 -36 -8.5 -63t1 -58t15 -50.5t37 -32.5t64.5 -13q59 0 108 36t79.5 91.5t52 124t30.5 130t9 114.5q0 269 -175.5 440.5t-452.5 171.5q-124 0 -245.5 -37t-223.5 -101t-190 -153t-149.5 -191t-96 -217t-34.5 -228
q0 -132 47.5 -246.5t131.5 -197.5t206.5 -130.5t266.5 -47.5h170l-24 -134h-162q-229 0 -409 97.5t-279 268.5t-99 384q0 164 57.5 324.5t161 293t239 234t302 158.5t338.5 57zM947 267q104 0 188 57t127.5 141.5t43.5 172.5q0 103 -65.5 167t-169.5 64q-81 0 -151 -33
t-116 -86t-72 -118t-26 -131q0 -105 67 -169.5t174 -64.5z" />
    <glyph glyph-name="A" unicode="A" horiz-adv-x="1295" 
d="M1176 0h-164l-58 294h-683l-160 -294h-171l761 1352h188zM771 1210l-425 -778h582l-151 778h-6z" />
    <glyph glyph-name="B" unicode="B" horiz-adv-x="1249" 
d="M976 705q84 -31 132.5 -106t48.5 -175q0 -83 -34 -160t-94.5 -136t-151 -94.5t-195.5 -35.5l-620 2l240 1352h560q157 0 253.5 -80.5t96.5 -210.5q0 -115 -66 -212.5t-170 -143.5zM1051 1032q0 87 -57 134.5t-166 47.5h-401l-81 -454h408q128 0 212.5 76t84.5 196z
M236 137h448q71 0 128.5 20t92.5 51t59 71t33 76.5t9 70.5q0 92 -58 144.5t-156 52.5h-470z" />
    <glyph glyph-name="C" unicode="C" horiz-adv-x="1475" 
d="M694 -25q-137 0 -250.5 46.5t-189.5 127t-118 188.5t-42 232q0 119 39.5 237t114.5 220t174.5 180.5t229.5 124t270 45.5q213 0 365.5 -103t210.5 -276l-145 -64q-42 138 -160 220.5t-281 82.5q-139 0 -263.5 -57t-210.5 -149t-136 -210.5t-50 -240.5q0 -201 126 -332
t328 -131q162 0 312.5 87t241.5 228l126 -81q-118 -172 -303 -273.5t-389 -101.5z" />
    <glyph glyph-name="D" unicode="D" horiz-adv-x="1351" 
d="M302 1352h410q141 0 256.5 -43t192 -118t117.5 -176.5t41 -219.5q0 -165 -67 -312.5t-180.5 -253t-270.5 -167.5t-330 -62h-409zM238 138h248q187 0 343 87.5t244 235t88 320.5q0 191 -126.5 311.5t-341.5 120.5h-268z" />
    <glyph glyph-name="E" unicode="E" horiz-adv-x="1169" 
d="M1227 1352l-26 -139h-775l-82 -463h715l-26 -138h-712l-84 -474h776l-26 -138h-925l240 1352h925z" />
    <glyph glyph-name="F" unicode="F" horiz-adv-x="1097" 
d="M1196 1352l-26 -139h-743l-83 -465h686l-25 -138h-686l-107 -610h-150l240 1352h894z" />
    <glyph glyph-name="G" unicode="G" horiz-adv-x="1587" 
d="M1326 569h-565l25 138h704l-126 -707h-94l21 294q-101 -146 -262 -232.5t-346 -86.5q-258 0 -424.5 165t-166.5 423q0 118 39.5 236.5t115 221.5t176 183t230.5 126t271 46q213 0 365.5 -103t210.5 -274l-146 -65q-41 138 -159.5 220t-282.5 82q-111 0 -215 -38
t-184 -104t-140.5 -151t-92.5 -183.5t-32 -196.5q0 -196 127.5 -322t325.5 -126q215 0 389 129t236 325z" />
    <glyph glyph-name="H" unicode="H" horiz-adv-x="1362" 
d="M1104 750l106 602h150l-240 -1352h-149l108 611h-758l-109 -611h-150l240 1352h150l-107 -602h759z" />
    <glyph glyph-name="I" unicode="I" horiz-adv-x="454" 
d="M212 0h-150l240 1352h150z" />
    <glyph glyph-name="J" unicode="J" horiz-adv-x="1068" 
d="M410 -25q-178 0 -281.5 92t-103.5 254q0 63 14 119l160 60q-23 -104 -23 -158q0 -226 238 -226q134 0 228.5 85t119.5 224l164 927h149l-166 -935q-36 -207 -169.5 -324.5t-329.5 -117.5z" />
    <glyph glyph-name="K" unicode="K" horiz-adv-x="1188" 
d="M1105 1352h201l-784 -668l564 -684h-192l-560 687l-122 -687h-150l240 1352h150l-117 -659z" />
    <glyph glyph-name="L" unicode="L" horiz-adv-x="1056" 
d="M452 1352l-215 -1214h714l-25 -138h-864l240 1352h150z" />
    <glyph glyph-name="M" unicode="M" horiz-adv-x="1596" 
d="M211 0h-149l240 1352h177l286 -984h4l637 984h187l-239 -1352h-149l137 774q6 35 24.5 138t27.5 159h-4l-592 -907h-116l-278 907h-4q-24 -146 -51 -297z" />
    <glyph glyph-name="N" unicode="N" horiz-adv-x="1362" 
d="M211 0h-149l240 1352h157l550 -1104h8q16 110 53 302l141 802h149l-240 -1352h-156l-551 1096h-9q-10 -73 -51 -302z" />
    <glyph glyph-name="O" unicode="O" horiz-adv-x="1560" 
d="M698 -25q-137 0 -252 46.5t-191.5 127t-118.5 188.5t-42 232q0 119 39.5 237t114.5 220t175 180.5t230 124t271 45.5q183 0 322 -80t211 -213t72 -297q0 -150 -63 -296t-171 -260t-265 -184.5t-332 -70.5zM710 116q139 0 264 57t210.5 150t136 212t50.5 242
q0 199 -126.5 329t-332.5 130q-138 0 -263 -57t-210.5 -149t-136 -210.5t-50.5 -240.5q0 -201 126 -332t332 -131z" />
    <glyph glyph-name="P" unicode="P" horiz-adv-x="1210" 
d="M302 1352h543q187 0 295.5 -98t108.5 -262q0 -60 -18 -124.5t-62 -133.5t-108.5 -122.5t-166.5 -88t-227 -34.5h-369l-86 -489h-150zM323 627h384q91 0 166.5 31.5t122.5 82.5t72.5 114.5t25.5 129.5q0 104 -70 166t-189 62h-409z" />
    <glyph glyph-name="Q" unicode="Q" horiz-adv-x="1558" 
d="M1529 797q0 -187 -94 -363t-266 -298t-381 -144l584 -257l-91 -145l-853 432q-162 82 -250 221t-88 312q0 120 39.5 240t115 223.5t176 184t230.5 127t271 46.5q182 0 321.5 -78t212.5 -209t73 -292zM248 564q0 -194 128 -321t332 -127q139 0 264 58.5t211.5 153
t137 215.5t50.5 244q0 194 -128.5 321.5t-332.5 127.5q-138 0 -263 -58.5t-211.5 -153t-137 -216t-50.5 -244.5z" />
    <glyph glyph-name="R" unicode="R" horiz-adv-x="1226" 
d="M302 1352h543q211 0 320.5 -124.5t75.5 -318.5q-25 -145 -130 -251t-261 -147l229 -511h-170l-215 489h-17h-379l-86 -489h-150zM1087 928q23 126 -44.5 205.5t-205.5 79.5h-411l-103 -586h384q155 0 255.5 83.5t124.5 217.5z" />
    <glyph glyph-name="S" unicode="S" horiz-adv-x="1203" 
d="M529 -25q-207 0 -339 91.5t-150 268.5l153 57q-1 -143 91.5 -211t250.5 -70q111 -1 203 30t150 96.5t58 155.5q0 144 -196 190l-285 68q-131 31 -201 113t-70 200q0 125 73.5 220t194.5 143.5t270 48.5q201 0 328.5 -93t141.5 -266l-152 -58q1 143 -89.5 211.5
t-245.5 70.5q-160 2 -266 -70.5t-106 -199.5q0 -83 45 -124.5t147 -65.5l283 -66q138 -33 208 -114t70 -203q0 -133 -79 -230.5t-206 -145t-282 -47.5z" />
    <glyph glyph-name="T" unicode="T" horiz-adv-x="1106" 
d="M180 1352h1046l-26 -139h-447l-215 -1213h-150l215 1213h-448z" />
    <glyph glyph-name="U" unicode="U" horiz-adv-x="1332" 
d="M583 -25q-245 0 -363 150.5t-72 412.5l144 814h149l-147 -824q-36 -199 41.5 -306.5t254.5 -107.5q181 0 301 110t156 313l143 815h149l-144 -824q-46 -262 -212.5 -407.5t-399.5 -145.5z" />
    <glyph glyph-name="V" unicode="V" horiz-adv-x="1273" 
d="M642 0h-186l-287 1352h163l233 -1201h6l661 1201h172z" />
    <glyph glyph-name="W" unicode="W" horiz-adv-x="1830" 
d="M502 0h-197l-109 1352h160l69 -1190h5l555 1190h162l133 -1190h5l482 1190h167l-576 -1352h-197l-133 1118h-4z" />
    <glyph glyph-name="X" unicode="X" horiz-adv-x="1235" 
d="M121 0h-181l610 692l-348 660h171l286 -574h5l495 574h178l-581 -660l360 -692h-169l-303 603h-4z" />
    <glyph glyph-name="Y" unicode="Y" horiz-adv-x="1150" 
d="M558 0h-149l88 488l-347 864h159l276 -730h4l537 730h176l-656 -864z" />
    <glyph glyph-name="Z" unicode="Z" horiz-adv-x="1097" 
d="M231 1352h935l-23 -127l-949 -1087h768l-25 -138h-955l23 127l948 1086h-747z" />
    <glyph glyph-name="bracketleft" unicode="[" horiz-adv-x="566" 
d="M383 -369h-384l324 1844h384l-24 -134h-236l-277 -1577h236z" />
    <glyph glyph-name="backslash" unicode="\" horiz-adv-x="1376" 
d="M293 1485l987 -1639h-141l-987 1639h141z" />
    <glyph glyph-name="bracketright" unicode="]" horiz-adv-x="566" 
d="M200 1475h384l-324 -1844h-384l24 133h235l278 1577h-236z" />
    <glyph glyph-name="asciicircum" unicode="^" horiz-adv-x="819" 
d="M244 859h-147l430 583h93l225 -583h-138l-159 426z" />
    <glyph glyph-name="underscore" unicode="_" horiz-adv-x="953" 
d="M842 -244h-995l24 132h994z" />
    <glyph glyph-name="grave" unicode="`" horiz-adv-x="545" 
d="M581 1167h-134l-195 309h186z" />
    <glyph glyph-name="a" unicode="a" horiz-adv-x="1304" 
d="M1062 836l52 180h128l-180 -1016h-128l13 172q-80 -92 -190.5 -144.5t-241.5 -52.5q-200 0 -326.5 123t-126.5 318q0 115 47 227t128 200t200 142.5t253 54.5q127 0 223.5 -53t148.5 -151zM529 108q101 0 192.5 43.5t154 113t99 155.5t36.5 171q0 140 -91.5 228.5
t-236.5 88.5q-103 0 -193 -44t-149 -114t-93 -157t-34 -174q0 -138 87 -224.5t228 -86.5z" />
    <glyph glyph-name="b" unicode="b" horiz-adv-x="1306" 
d="M795 1040q199 0 324 -122t125 -318q0 -115 -47 -227t-128 -200.5t-200 -143t-253 -54.5q-128 0 -224.5 54t-147.5 153l-54 -182h-128l259 1458l151 17l-112 -631q81 92 192 144t243 52zM620 108q103 0 193 44t150 113.5t94 155.5t34 172q0 141 -85 228t-225 87
q-134 0 -247.5 -73t-175.5 -183.5t-62 -226.5q0 -139 91.5 -228t232.5 -89z" />
    <glyph glyph-name="c" unicode="c" horiz-adv-x="1176" 
d="M519 -25q-207 0 -330.5 122.5t-123.5 320.5q0 116 45.5 228t125.5 200t200 141.5t258 53.5q170 0 284.5 -76.5t157.5 -208.5l-140 -60q-27 98 -110 155t-203 57q-101 0 -189.5 -42t-148 -110.5t-93.5 -155t-34 -175.5q0 -144 84 -230.5t225 -86.5q119 0 228 56t175 165
l121 -77q-92 -130 -231 -203.5t-301 -73.5z" />
    <glyph glyph-name="d" unicode="d" horiz-adv-x="1306" 
d="M1063 834l109 624l152 17l-260 -1475h-128l11 173q-80 -93 -190.5 -145.5t-241.5 -52.5q-200 0 -326.5 123t-126.5 318q0 115 47 227t128 200t200 142.5t253 54.5q128 0 225 -53.5t148 -152.5zM529 108q101 0 192.5 43.5t154 113t99 155.5t36.5 171q0 140 -91.5 228.5
t-236.5 88.5q-103 0 -193 -44t-149 -114t-93 -157t-34 -174q0 -138 87 -224.5t228 -86.5z" />
    <glyph glyph-name="e" unicode="e" 
d="M1147 462h-927q-2 -24 -2 -38q0 -150 84.5 -234t237.5 -84q125 0 237 59.5t177 161.5l118 -77q-90 -128 -233.5 -201.5t-310.5 -73.5q-208 0 -335.5 120t-127.5 323q0 93 28.5 183.5t84 169.5t131 139.5t177 95.5t214.5 35q212 0 338 -124.5t126 -320.5q0 -85 -17 -134z
M691 910q-158 0 -275.5 -90.5t-167.5 -228.5h767v15q0 134 -90 219t-234 85z" />
    <glyph glyph-name="f" unicode="f" horiz-adv-x="699" 
d="M729 1352q-102 0 -153.5 -51t-69.5 -154l-23 -131h307l-24 -131h-305l-229 -1299l-153 -16l230 1315h-222l24 131h221l26 151q28 154 124.5 235t240.5 81q95 0 175 -25l-42 -127q-65 21 -127 21z" />
    <glyph glyph-name="g" unicode="g" horiz-adv-x="1302" 
d="M1061 841l51 175h128l-162 -911q-39 -227 -210.5 -379t-397.5 -152q-191 0 -318.5 80.5t-155.5 219.5l139 59q14 -108 102 -168.5t231 -60.5q167 0 299.5 114.5t161.5 281.5l15 85q-170 -188 -427 -188q-200 0 -325.5 120t-125.5 312q0 90 29 179t85.5 166.5t131.5 137
t173.5 94t206.5 34.5q126 0 221.5 -52t147.5 -147zM531 127q101 0 191.5 42.5t152.5 110.5t98 153t36 169q0 134 -92 221.5t-232 87.5q-103 0 -193 -43t-149 -112t-93 -154t-34 -170q0 -136 87 -220.5t228 -84.5z" />
    <glyph glyph-name="h" unicode="h" horiz-adv-x="1184" 
d="M732 1040q180 0 269.5 -118.5t54.5 -310.5l-110 -611h-148l107 599q29 156 -29.5 234.5t-190.5 78.5q-133 0 -234 -83t-133 -223l-106 -606h-150l259 1458l151 17l-103 -587q144 152 363 152z" />
    <glyph glyph-name="i" unicode="i" horiz-adv-x="453" 
d="M358 1192q-45 0 -75 29t-30 71q0 53 35 87.5t87 34.5q46 0 75 -29t29 -73q0 -53 -35.5 -86.5t-85.5 -33.5zM212 0h-150l181 1016h149z" />
    <glyph glyph-name="j" unicode="j" horiz-adv-x="449" 
d="M354 1192q-45 0 -75 29t-30 71q0 53 35 87.5t87 34.5q46 0 75 -29t29 -73q0 -53 -35.5 -86.5t-85.5 -33.5zM-85 -426q-65 0 -129 16l29 125q54 -9 85 -9q57 0 87 30t41 92l211 1188h149l-213 -1205q-20 -114 -87 -175.5t-173 -61.5z" />
    <glyph glyph-name="k" unicode="k" horiz-adv-x="1035" 
d="M919 1016h206l-636 -496l456 -520h-188l-452 526l-93 -526h-150l259 1458l151 17l-167 -945z" />
    <glyph glyph-name="l" unicode="l" horiz-adv-x="453" 
d="M212 0h-150l259 1458l151 17z" />
    <glyph glyph-name="m" unicode="m" horiz-adv-x="1799" 
d="M1376 1040q159 0 243.5 -112t53.5 -286l-112 -642h-150l111 620q25 137 -28 214.5t-163 77.5q-122 0 -218.5 -88.5t-124.5 -239.5l-18 -107l-84 -477h-150l111 620q26 139 -27.5 215.5t-162.5 76.5q-121 0 -216 -85.5t-125 -228.5l-104 -598h-150l181 1016h128l-9 -131
q138 155 339 155q109 0 186 -56t105 -153q68 99 168 154t216 55z" />
    <glyph glyph-name="n" unicode="n" horiz-adv-x="1184" 
d="M732 1040q180 0 269.5 -118.5t54.5 -310.5l-110 -611h-148l107 599q29 156 -29.5 234.5t-190.5 78.5q-137 0 -240 -87.5t-130 -236.5l-103 -588h-150l181 1016h128l-7 -133q144 157 368 157z" />
    <glyph glyph-name="o" unicode="o" horiz-adv-x="1236" 
d="M535 -25q-214 0 -342 125t-128 321q0 118 49.5 231t133 199t203 138t251.5 52q210 0 340 -124t130 -321q0 -157 -82 -299.5t-230 -232t-325 -89.5zM544 108q131 0 241.5 68.5t172 179t61.5 233.5q0 143 -89.5 231t-238.5 88q-131 0 -241 -68.5t-171 -179t-61 -233.5
q0 -143 89 -231t237 -88z" />
    <glyph glyph-name="p" unicode="p" horiz-adv-x="1306" 
d="M795 1040q199 0 324 -122t125 -318q0 -115 -47 -227t-128 -200.5t-200 -143t-253 -54.5q-128 0 -224 53.5t-147 152.5l-105 -595l-153 -16l256 1446h128l-12 -174q80 93 191.5 145.5t244.5 52.5zM620 108q103 0 193 44t150 113.5t94 155.5t34 172q0 141 -85 228t-225 87
q-101 0 -192.5 -43.5t-154.5 -112.5t-100.5 -155t-37.5 -172q0 -139 91.5 -228t232.5 -89z" />
    <glyph glyph-name="q" unicode="q" horiz-adv-x="1304" 
d="M1063 834l47 182h132l-252 -1430l-153 -16l106 598q-79 -90 -188.5 -141.5t-239.5 -51.5q-200 0 -326.5 123t-126.5 318q0 115 47 227t128 200t200 142.5t253 54.5q128 0 225 -53.5t148 -152.5zM529 108q101 0 192.5 43.5t154 113t99 156t36.5 172.5q0 137 -93 226
t-235 89q-103 0 -193 -44t-149 -114t-93 -157t-34 -174q0 -138 87 -224.5t228 -86.5z" />
    <glyph glyph-name="r" unicode="r" horiz-adv-x="679" 
d="M680 1033h61l-27 -154h-90q-123 0 -202 -69t-100 -188l-110 -622h-150l181 1016h128l-13 -153q51 78 134.5 124t187.5 46z" />
    <glyph glyph-name="s" unicode="s" horiz-adv-x="1024" 
d="M457 -25q-189 0 -301.5 79t-125.5 225l139 43q8 -213 289 -217q81 -1 148.5 16.5t113 61t45.5 106.5q0 103 -130 130l-265 55q-106 22 -165 86t-59 166q0 147 121.5 231t310.5 84q184 0 293 -79.5t121 -213.5l-141 -43q-5 201 -277 205q-79 1 -140.5 -15.5t-102.5 -57
t-41 -102.5q0 -58 33 -87.5t93 -41.5l271 -55q225 -47 225 -245q0 -155 -127 -243t-328 -88z" />
    <glyph glyph-name="t" unicode="t" horiz-adv-x="750" 
d="M457 -14q-153 0 -218.5 88t-38.5 238l101 573h-214l24 131h212l112 284h88l-49 -284h305l-22 -131h-306l-100 -560q-20 -110 11 -159.5t123 -49.5q72 0 138 17v-127q-100 -20 -166 -20z" />
    <glyph glyph-name="u" unicode="u" horiz-adv-x="1180" 
d="M505 -20q-205 0 -306 118.5t-65 325.5l105 592h149l-108 -606q-26 -140 36 -219t196 -79q138 0 233.5 81.5t121.5 224.5l107 598h149l-106 -601q-36 -206 -173 -320.5t-339 -114.5z" />
    <glyph glyph-name="v" unicode="v" horiz-adv-x="1026" 
d="M515 0h-181l-223 1016h159l169 -881h4l483 881h170z" />
    <glyph glyph-name="w" unicode="w" horiz-adv-x="1527" 
d="M453 0h-189l-134 1016h163l81 -863h4l376 863h202l61 -863h4l384 863h173l-488 -1016h-190l-72 855h-4z" />
    <glyph glyph-name="x" unicode="x" horiz-adv-x="993" 
d="M104 0h-186l485 522l-282 494h173l219 -401h4l359 401h186l-466 -494l299 -522h-173l-235 425h-4z" />
    <glyph glyph-name="y" unicode="y" horiz-adv-x="1182" 
d="M889 544l83 472h149l-176 -992q-35 -197 -188.5 -323.5t-356.5 -126.5q-165 0 -277.5 83t-137.5 217l139 59q6 -108 82 -168.5t195 -60.5q151 0 261 89t134 224l21 120q-144 -152 -366 -152q-178 0 -267.5 118t-55.5 308l109 605h149l-108 -593q-28 -154 29.5 -231.5
t190.5 -77.5q139 0 242 87t129 237l19 106h1z" />
    <glyph glyph-name="z" unicode="z" horiz-adv-x="945" 
d="M152 1016h822l-22 -121l-766 -763h631l-23 -132h-823l22 121l763 764h-628z" />
    <glyph glyph-name="braceleft" unicode="{" horiz-adv-x="666" 
d="M725 1475h81l-23 -132h-48q-85 0 -136.5 -26t-74.5 -70.5t-37 -122.5l-57 -326q-37 -208 -204 -246q75 -23 104 -87.5t12 -164.5l-57 -329q-21 -117 10 -163t152 -46h57l-22 -131h-71q-168 0 -236.5 88t-42.5 228l64 357q18 102 -13.5 142.5t-139.5 40.5h-27l23 131h17
q110 0 160.5 46t68.5 147l62 357q25 142 118.5 224.5t259.5 82.5z" />
    <glyph glyph-name="bar" unicode="|" horiz-adv-x="514" 
d="M162 -451h-149l344 1946h149z" />
    <glyph glyph-name="braceright" unicode="}" horiz-adv-x="668" 
d="M640 618h27l-23 -131h-17q-110 0 -160.5 -45.5t-68.5 -146.5l-62 -357q-25 -142 -118.5 -224.5t-259.5 -82.5h-81l23 131h48q65 0 109 13.5t71.5 43t42.5 67.5t25 96l57 326q37 208 204 246q-75 23 -104 87.5t-12 164.5l57 329q21 117 -10 162.5t-152 45.5h-57l22 132h71
q168 0 236.5 -88t42.5 -228l-64 -357q-18 -102 13.5 -143t139.5 -41z" />
    <glyph glyph-name="asciitilde" unicode="~" 
d="M882 379q-67 0 -284.5 67.5t-255.5 67.5q-34 0 -54 -21.5t-26 -80.5h-142q8 112 67.5 177.5t163.5 65.5q64 0 282.5 -67.5t257.5 -67.5q34 0 54 22t26 81h142q-8 -112 -67.5 -178t-163.5 -66z" />
    <glyph glyph-name="uni00A0" unicode="&#xa0;" horiz-adv-x="512" 
 />
    <glyph glyph-name="exclamdown" unicode="&#xa1;" horiz-adv-x="465" 
d="M323 1044q43 0 71 -28t28 -70q0 -46 -36 -81t-82 -35q-43 0 -71 28.5t-28 71.5q0 46 36 80t82 34zM200 652h125l-148 -980h-177z" />
    <glyph glyph-name="cent" unicode="&#xa2;" horiz-adv-x="1174" 
d="M554 280q121 0 229.5 56t175.5 165l120 -78q-92 -130 -230.5 -203t-302.5 -73q-37 0 -86 7l-92 -208l-125 36l92 207q-114 50 -178 154.5t-64 242.5q0 92 28.5 182.5t84 168.5t130.5 138t175.5 94.5t211.5 34.5q32 0 62 -3l92 205l123 -36l-87 -195q191 -67 253 -255
l-138 -60q-39 134 -171 188l-340 -766q22 -2 37 -2zM247 593q0 -95 38 -166.5t107 -109.5l336 756h-16q-134 0 -242.5 -71t-165.5 -180.5t-57 -228.5z" />
    <glyph glyph-name="sterling" unicode="&#xa3;" horiz-adv-x="1134" 
d="M1117 943l-146 -57q10 68 10 124q0 226 -222 226q-130 0 -218.5 -81t-107.5 -241l-27 -237h418l-20 -125h-412l-48 -414h634l-26 -138h-950l18 111l179 27l47 414h-146l21 125h139l28 250q24 213 157 331t317 118q171 0 267.5 -89t96.5 -244q0 -51 -9 -100z" />
    <glyph glyph-name="currency" unicode="&#xa4;" horiz-adv-x="1325" 
d="M1348 1157l-215 -184q61 -97 61 -221q0 -104 -43 -205t-119 -180l144 -174l-105 -87l-142 175q-144 -94 -315 -94q-170 0 -289 100l-219 -185l-69 88l214 183q-61 95 -61 219q0 104 43 205t120 180l-142 176l102 86l146 -175q145 91 313 91q170 0 286 -97l218 185z
M630 315q88 0 167 36.5t133 96t85.5 134.5t31.5 152q0 132 -79 213t-213 81q-119 0 -217 -63.5t-149 -159.5t-51 -199q0 -131 78.5 -211t213.5 -80z" />
    <glyph glyph-name="yen" unicode="&#xa5;" horiz-adv-x="1253" 
d="M1178 1352h174l-487 -641h248l-20 -124h-321l-75 -99l-11 -64h378l-23 -124h-377l-55 -300h-149l54 300h-381l23 124h381l11 64l-40 99h-324l21 124h253l-258 641h160l276 -730h4z" />
    <glyph glyph-name="brokenbar" unicode="&#xa6;" horiz-adv-x="514" 
d="M369 716h-149l137 779h149zM162 -451h-149l138 780h148z" />
    <glyph glyph-name="section" unicode="&#xa7;" horiz-adv-x="1073" 
d="M474 894l353 -185q96 -51 135 -125t21 -182q-12 -74 -66.5 -139.5t-135.5 -107.5q80 -90 57 -229q-24 -133 -147 -212t-294 -79t-276 80t-111 214l144 44q9 -207 256 -207q115 0 192 48t92 134q10 61 -14 98.5t-84 67.5l-352 185q-94 49 -134 122.5t-21 183.5
q12 74 66.5 140t134.5 109q-80 85 -56 226q23 133 145 212.5t295 79.5q171 0 276 -79.5t111 -213.5l-143 -44q-6 207 -255 207q-113 0 -191 -47.5t-93 -131.5q-10 -61 11.5 -98.5t83.5 -70.5zM841 421q20 114 -96 174l-337 174l-18 9q-141 -76 -160 -190q-20 -114 96 -175
l338 -173q6 -3 18 -11q140 76 159 192z" />
    <glyph glyph-name="dieresis" unicode="&#xa8;" horiz-adv-x="808" 
d="M317 1195q-42 0 -69 26t-27 64q0 48 33 79.5t80 31.5q43 0 69.5 -25.5t26.5 -65.5q0 -48 -34 -79t-79 -31zM754 1195q-42 0 -69.5 26t-27.5 64q0 48 33 79.5t80 31.5q43 0 69.5 -25.5t26.5 -65.5q0 -48 -33.5 -79t-78.5 -31z" />
    <glyph glyph-name="copyright" unicode="&#xa9;" horiz-adv-x="1708" 
d="M754 -102q-193 0 -345 84.5t-235.5 232.5t-83.5 332q0 106 31.5 215.5t88 210t140.5 188.5t184 153t224.5 102.5t255.5 37.5q195 0 347 -84.5t234 -232t82 -332.5q0 -128 -43 -258.5t-126 -246t-193.5 -206t-256.5 -143.5t-304 -53zM758 15q135 0 260.5 46.5t220.5 125.5
t167 180t109.5 214.5t37.5 223.5q0 231 -152 381t-392 150q-135 0 -260.5 -46.5t-220.5 -125.5t-167 -179.5t-109.5 -214t-37.5 -223.5q0 -231 152 -381.5t392 -150.5zM803 218q-173 0 -281.5 105.5t-108.5 270.5q0 100 40.5 197t111 173t174.5 123t222 47q145 0 243 -64.5
t136 -175.5l-115 -60q-27 87 -100 137.5t-178 50.5q-87 0 -164.5 -37.5t-129 -97t-81 -133t-29.5 -146.5q0 -126 76 -202t198 -76q104 0 196 50.5t153 137.5l100 -60q-82 -113 -200 -176.5t-263 -63.5z" />
    <glyph glyph-name="ordfeminine" unicode="&#xaa;" horiz-adv-x="1148" 
d="M986 1183l43 152h113l-154 -872h-112l12 144q-148 -165 -368 -165q-172 0 -280 104.5t-108 270.5q0 99 39.5 195.5t108 173t170 123.5t216.5 47q110 0 193.5 -45t126.5 -128zM540 571q78 0 146 27.5t114 70.5t79.5 96.5t49 105t15.5 95.5q0 116 -77 188.5t-196 72.5
q-110 0 -202 -61t-141 -152t-49 -186q0 -115 72.5 -186t188.5 -71z" />
    <glyph glyph-name="guillemotleft" unicode="&#xab;" horiz-adv-x="828" 
d="M352 940h150l-303 -416l159 -412h-147l-156 414zM692 940h150l-303 -416l159 -412h-147l-156 414z" />
    <glyph glyph-name="logicalnot" unicode="&#xac;" 
d="M1042 50h-139l70 403h-878l26 137h1017z" />
    <glyph glyph-name="uni00AD" unicode="&#xad;" horiz-adv-x="720" 
d="M657 489h-599l24 133h599z" />
    <glyph glyph-name="registered" unicode="&#xae;" horiz-adv-x="1323" 
d="M830 1495q191 0 312 -121t121 -305q0 -84 -29 -170t-83.5 -161.5t-127.5 -134.5t-167.5 -93.5t-195.5 -34.5q-188 0 -309 123t-121 307q0 84 29 169.5t83.5 160.5t127 133.5t166.5 92.5t194 34zM663 569q104 0 199 45.5t159.5 117t102.5 159.5t38 174q0 146 -93.5 241
t-240.5 95q-104 0 -198.5 -45.5t-159 -117.5t-102 -160.5t-37.5 -174.5q0 -144 93.5 -239t238.5 -95zM595 1274h231q82 0 132.5 -45.5t50.5 -118.5q0 -68 -43 -122.5t-112 -78.5l95 -209h-115l-84 195h-122l-34 -195h-99zM643 985h144q48 0 83 34.5t35 84.5q0 35 -23 56
t-60 21h-145z" />
    <glyph glyph-name="macron" unicode="&#xaf;" horiz-adv-x="796" 
d="M840 1219h-633l20 115h634z" />
    <glyph glyph-name="degree" unicode="&#xb0;" horiz-adv-x="819" 
d="M477 853q-119 0 -193 73t-74 188q0 145 109 250t254 105q120 0 194 -72.5t74 -186.5q0 -147 -108.5 -252t-255.5 -105zM481 967q99 0 168.5 72t69.5 168q0 65 -41.5 106t-111.5 41q-96 0 -166 -69t-70 -171q0 -66 41 -106.5t110 -40.5z" />
    <glyph glyph-name="plusminus" unicode="&#xb1;" horiz-adv-x="1192" 
d="M767 1082l-58 -331h391l-25 -138h-391l-56 -319h-140l57 319h-392l25 138h391l59 331h139zM976 54h-922l26 137h921z" />
    <glyph glyph-name="uni00B2" unicode="&#xb2;" horiz-adv-x="770" 
d="M549 975l-235 -161h428l-19 -107h-606l17 95l336 244q117 84 174.5 157.5t57.5 153.5q0 61 -37 94t-108 33q-91 0 -153 -61t-76 -162l-103 55q25 120 120 195.5t221 75.5q120 0 188.5 -61.5t68.5 -161.5q0 -60 -22.5 -117t-63.5 -106t-86 -87.5t-102 -78.5z" />
    <glyph glyph-name="uni00B3" unicode="&#xb3;" horiz-adv-x="784" 
d="M662 1157q120 -45 120 -174t-100 -208t-253 -79q-122 0 -197.5 55.5t-90.5 152.5l113 47q9 -151 176 -151q106 0 171 52t65 133q0 62 -44.5 89t-135.5 27h-107l18 106h96q101 0 158.5 45.5t57.5 120.5q0 111 -142 111q-172 0 -236 -160l-100 64q52 95 143 147t203 52
q115 0 182.5 -56.5t67.5 -154.5q0 -79 -44.5 -135.5t-120.5 -83.5z" />
    <glyph glyph-name="acute" unicode="&#xb4;" horiz-adv-x="552" 
d="M339 1167h-140l248 309h195z" />
    <glyph glyph-name="uni00B5" unicode="&#xb5;" horiz-adv-x="1184" 
d="M869 406l109 610h149l-113 -638q-32 -179 -157.5 -288.5t-295.5 -109.5q-125 0 -212 50t-127 140l-82 -584l-153 -16l256 1446h149l-106 -604q-20 -143 48 -221t200 -83q136 -4 222.5 74.5t112.5 223.5z" />
    <glyph glyph-name="paragraph" unicode="&#xb6;" horiz-adv-x="1159" 
d="M694 1352h462l-240 -1352h-144l215 1228h-142l-268 -1535l-149 -17l116 662h-22q-188 0 -308 120.5t-120 303.5q0 104 45.5 209.5t123 190t191.5 137.5t240 53z" />
    <glyph glyph-name="periodcentered" unicode="&#xb7;" horiz-adv-x="474" 
d="M245 508q-45 0 -74 28t-29 72q0 53 37 91.5t89 38.5q45 0 75 -29.5t30 -73.5q0 -52 -38 -89.5t-90 -37.5z" />
    <glyph glyph-name="cedilla" unicode="&#xb8;" horiz-adv-x="438" 
d="M104 -402h-182l200 328h132z" />
    <glyph glyph-name="uni00B9" unicode="&#xb9;" horiz-adv-x="835" 
d="M699 1577l-134 -765h212l-19 -105h-580l19 105h254l110 634l-267 -91l17 107l301 115h87z" />
    <glyph glyph-name="ordmasculine" unicode="&#xba;" horiz-adv-x="1079" 
d="M537 442q-178 0 -290.5 106t-112.5 275q0 97 41 193t112 171t175 122t221 47q176 0 288 -106.5t112 -274.5q0 -132 -69.5 -254t-197 -200.5t-279.5 -78.5zM544 571q110 0 202 60.5t141.5 151t49.5 185.5q0 114 -73.5 186.5t-188.5 72.5q-112 0 -204 -61t-140 -151
t-48 -185q0 -116 72 -187.5t189 -71.5z" />
    <glyph glyph-name="guillemotright" unicode="&#xbb;" horiz-adv-x="827" 
d="M143 113h-149l303 415l-160 413h148l155 -415zM483 113h-149l303 415l-160 413h148l155 -415z" />
    <glyph glyph-name="onequarter" unicode="&#xbc;" horiz-adv-x="1817" 
d="M525 587h212l-19 -106h-580l19 106h254l110 634l-267 -92l17 108l301 115h87zM474 0l984 1352h134l-983 -1352h-135zM1733 870l-101 -573h109l-20 -106h-108l-34 -191h-119l35 191h-433l16 93l546 586h109zM1225 297h288l66 380z" />
    <glyph glyph-name="onehalf" unicode="&#xbd;" horiz-adv-x="1944" 
d="M525 587h212l-19 -106h-580l19 106h254l110 634l-267 -92l17 108l301 115h87zM474 0l984 1352h134l-983 -1352h-135zM1598 268l-234 -160h428l-19 -108h-607l18 95l336 244q117 84 174.5 157.5t57.5 153.5q0 61 -37 94t-108 33q-91 0 -153.5 -61t-76.5 -162l-102 55
q25 120 120 196t221 76q120 0 188.5 -62t68.5 -162q0 -60 -22.5 -117t-64 -106t-86 -87.5t-102.5 -78.5z" />
    <glyph glyph-name="threequarters" unicode="&#xbe;" horiz-adv-x="1766" 
d="M742 758q0 -129 -100 -208t-253 -79q-122 0 -197.5 55.5t-90.5 152.5l113 47q9 -152 176 -152q106 0 171 52.5t65 133.5q0 62 -44.5 89t-135.5 27h-107l18 106h96q101 0 158.5 45.5t57.5 120.5q0 110 -142 110q-172 0 -236 -159l-100 63q52 95 143 147.5t203 52.5
q115 0 182.5 -56.5t67.5 -154.5q0 -79 -44.5 -135.5t-120.5 -83.5q120 -45 120 -174zM423 0l984 1352h134l-983 -1352h-135zM1681 870l-100 -573h109l-20 -106h-108l-34 -191h-119l35 191h-433l16 93l546 586h108zM1174 297h288l66 380z" />
    <glyph glyph-name="questiondown" unicode="&#xbf;" horiz-adv-x="886" 
d="M521 831q-42 0 -70 28.5t-28 70.5q0 45 36 79.5t81 34.5q43 0 70.5 -28t27.5 -70q0 -45 -35.5 -80t-81.5 -35zM641 5l125 -61q-63 -134 -190 -214t-278 -80q-159 0 -257.5 88.5t-98.5 238.5q0 167 119.5 300.5t310.5 159.5l47 216h121l-42 -323l-64 -2q-76 -3 -141.5 -33
t-109 -77.5t-68 -106.5t-24.5 -121q0 -97 60.5 -153t159.5 -56q111 0 203 64.5t127 159.5z" />
    <glyph glyph-name="Agrave" unicode="&#xc0;" horiz-adv-x="1295" 
d="M755 1810l142 -308h-133l-196 308h187zM1176 0h-164l-58 294h-683l-160 -294h-171l761 1352h188zM771 1210l-425 -778h582l-151 778h-6z" />
    <glyph glyph-name="Aacute" unicode="&#xc1;" horiz-adv-x="1295" 
d="M998 1810h195l-303 -308h-140zM-60 0l761 1352h188l287 -1352h-164l-58 294h-683l-160 -294h-171zM771 1210l-425 -778h582l-151 778h-6z" />
    <glyph glyph-name="Acircumflex" unicode="&#xc2;" horiz-adv-x="1295" 
d="M1011 1496l-149 212l-228 -212h-138l288 308h180l183 -308h-136zM1176 0h-164l-58 294h-683l-160 -294h-171l761 1352h188zM771 1210l-425 -778h582l-151 778h-6z" />
    <glyph glyph-name="Atilde" unicode="&#xc3;" horiz-adv-x="1295" 
d="M713 1649q-43 0 -64.5 -33t-23.5 -80h-119q11 108 61.5 168t140.5 60q42 0 86 -19.5t74 -43t62.5 -43t54.5 -19.5q42 0 63.5 33.5t23.5 79.5h120q-12 -108 -62.5 -168t-140.5 -60q-43 0 -87 19.5t-74 43t-62 43t-53 19.5zM-60 0l761 1352h188l287 -1352h-164l-58 294
h-683l-160 -294h-171zM771 1210l-425 -778h582l-151 778h-6z" />
    <glyph glyph-name="Adieresis" unicode="&#xc4;" horiz-adv-x="1295" 
d="M609 1530q-42 0 -69 26t-27 64q0 48 33 79.5t80 31.5q43 0 69.5 -26t26.5 -66q0 -48 -34 -78.5t-79 -30.5zM1046 1530q-42 0 -69.5 26t-27.5 64q0 48 33 79.5t80 31.5q43 0 69.5 -26t26.5 -66q0 -48 -33.5 -78.5t-78.5 -30.5zM1176 0h-164l-58 294h-683l-160 -294h-171
l761 1352h188zM771 1210l-425 -778h582l-151 778h-6z" />
    <glyph glyph-name="Aring" unicode="&#xc5;" horiz-adv-x="1295" 
d="M810 1386q-86 0 -140.5 54t-54.5 137q0 103 76 177t179 74q86 0 140.5 -54t54.5 -137q0 -103 -76.5 -177t-178.5 -74zM860 1730q-55 0 -96.5 -42.5t-41.5 -102.5q0 -43 27.5 -71.5t70.5 -28.5q54 0 96 42t42 102q0 43 -28 72t-70 29zM1176 0h-164l-58 294h-683l-160 -294
h-171l761 1352h188zM771 1210l-425 -778h582l-151 778h-6z" />
    <glyph glyph-name="AE" unicode="&#xc6;" horiz-adv-x="1950" 
d="M2008 1352l-26 -139h-754l-81 -463h685l-25 -138h-685l-83 -474h755l-26 -138h-904l52 294h-605l-233 -294h-178l1085 1352h1023zM421 432h519l138 781h-37z" />
    <glyph glyph-name="Ccedilla" unicode="&#xc7;" horiz-adv-x="1475" 
d="M694 -25q-137 0 -250.5 46.5t-189.5 127t-118 188.5t-42 232q0 119 39.5 237t114.5 220t174.5 180.5t229.5 124t270 45.5q213 0 365.5 -103t210.5 -276l-145 -64q-42 138 -160 220.5t-281 82.5q-139 0 -263.5 -57t-210.5 -149t-136 -210.5t-50 -240.5q0 -201 126 -332
t328 -131q162 0 312.5 87t241.5 228l126 -81q-118 -172 -303 -273.5t-389 -101.5zM592 -402h-182l199 328h132z" />
    <glyph glyph-name="Egrave" unicode="&#xc8;" horiz-adv-x="1169" 
d="M720 1810l142 -308h-133l-195 308h186zM1227 1352l-26 -139h-775l-82 -463h715l-26 -138h-712l-84 -474h776l-26 -138h-925l240 1352h925z" />
    <glyph glyph-name="Eacute" unicode="&#xc9;" horiz-adv-x="1169" 
d="M964 1810h194l-303 -308h-140zM1227 1352l-26 -139h-775l-82 -463h715l-26 -138h-712l-84 -474h776l-26 -138h-925l240 1352h925z" />
    <glyph glyph-name="Ecircumflex" unicode="&#xca;" horiz-adv-x="1169" 
d="M976 1496l-149 212l-228 -212h-138l289 308h179l183 -308h-136zM1227 1352l-26 -139h-775l-82 -463h715l-26 -138h-712l-84 -474h776l-26 -138h-925l240 1352h925z" />
    <glyph glyph-name="Edieresis" unicode="&#xcb;" horiz-adv-x="1169" 
d="M574 1530q-42 0 -69 26t-27 64q0 48 33 79.5t80 31.5q43 0 69.5 -26t26.5 -66q0 -48 -34 -78.5t-79 -30.5zM1011 1530q-42 0 -69.5 26t-27.5 64q0 48 33 79.5t80 31.5q43 0 69.5 -26t26.5 -66q0 -48 -33.5 -78.5t-78.5 -30.5zM1227 1352l-26 -139h-775l-82 -463h715
l-26 -138h-712l-84 -474h776l-26 -138h-925l240 1352h925z" />
    <glyph glyph-name="Igrave" unicode="&#xcc;" horiz-adv-x="454" 
d="M475 1502h-133l-196 308h187zM212 0h-150l240 1352h150z" />
    <glyph glyph-name="Iacute" unicode="&#xcd;" horiz-adv-x="454" 
d="M468 1502h-140l249 308h194zM212 0h-150l240 1352h150z" />
    <glyph glyph-name="Icircumflex" unicode="&#xce;" horiz-adv-x="454" 
d="M212 1496h-138l288 308h180l183 -308h-136l-149 212zM212 0h-150l240 1352h150z" />
    <glyph glyph-name="Idieresis" unicode="&#xcf;" horiz-adv-x="454" 
d="M187 1530q-42 0 -69 26t-27 64q0 48 33 79.5t80 31.5q43 0 69.5 -26t26.5 -66q0 -48 -34 -78.5t-79 -30.5zM624 1530q-42 0 -69.5 26t-27.5 64q0 48 33 79.5t80 31.5q43 0 69.5 -26t26.5 -66q0 -48 -33.5 -78.5t-78.5 -30.5zM212 0h-150l240 1352h150z" />
    <glyph glyph-name="Eth" unicode="&#xd0;" horiz-adv-x="1351" 
d="M302 1352h410q141 0 256.5 -43t192 -118t117.5 -176.5t41 -219.5q0 -165 -67 -312.5t-180.5 -253t-270.5 -167.5t-330 -62h-409l109 610h-164l24 132h164zM238 138h248q187 0 343 87.5t244 235t88 320.5q0 191 -126.5 311.5t-341.5 120.5h-268l-82 -471h305l-24 -132
h-305z" />
    <glyph glyph-name="Ntilde" unicode="&#xd1;" horiz-adv-x="1362" 
d="M1023 1524q-43 0 -87.5 19.5t-74 43t-62 43t-53.5 19.5q-43 0 -64.5 -33t-23.5 -80h-118q11 108 61 168t140 60q42 0 86 -19.5t74 -43t63 -43t55 -19.5q42 0 63.5 33.5t23.5 79.5h120q-12 -108 -62.5 -168t-140.5 -60zM211 0h-149l240 1352h157l550 -1104h8
q16 110 53 302l141 802h149l-240 -1352h-156l-551 1096h-9q-10 -73 -51 -302z" />
    <glyph glyph-name="Ograve" unicode="&#xd2;" horiz-adv-x="1560" 
d="M1028 1502h-133l-196 308h187zM698 -25q-137 0 -252 46.5t-191.5 127t-118.5 188.5t-42 232q0 119 39.5 237t114.5 220t175 180.5t230 124t271 45.5q183 0 322 -80t211 -213t72 -297q0 -150 -63 -296t-171 -260t-265 -184.5t-332 -70.5zM710 116q139 0 264 57t210.5 150
t136 212t50.5 242q0 199 -126.5 329t-332.5 130q-138 0 -263 -57t-210.5 -149t-136 -210.5t-50.5 -240.5q0 -201 126 -332t332 -131z" />
    <glyph glyph-name="Oacute" unicode="&#xd3;" horiz-adv-x="1560" 
d="M1021 1502h-140l248 308h195zM698 -25q-137 0 -252 46.5t-191.5 127t-118.5 188.5t-42 232q0 119 39.5 237t114.5 220t175 180.5t230 124t271 45.5q183 0 322 -80t211 -213t72 -297q0 -150 -63 -296t-171 -260t-265 -184.5t-332 -70.5zM710 116q139 0 264 57t210.5 150
t136 212t50.5 242q0 199 -126.5 329t-332.5 130q-138 0 -263 -57t-210.5 -149t-136 -210.5t-50.5 -240.5q0 -201 126 -332t332 -131z" />
    <glyph glyph-name="Ocircumflex" unicode="&#xd4;" horiz-adv-x="1560" 
d="M765 1496h-138l288 308h180l183 -308h-136l-149 212zM698 -25q-137 0 -252 46.5t-191.5 127t-118.5 188.5t-42 232q0 119 39.5 237t114.5 220t175 180.5t230 124t271 45.5q183 0 322 -80t211 -213t72 -297q0 -150 -63 -296t-171 -260t-265 -184.5t-332 -70.5zM710 116
q139 0 264 57t210.5 150t136 212t50.5 242q0 199 -126.5 329t-332.5 130q-138 0 -263 -57t-210.5 -149t-136 -210.5t-50.5 -240.5q0 -201 126 -332t332 -131z" />
    <glyph glyph-name="Otilde" unicode="&#xd5;" horiz-adv-x="1560" 
d="M1120 1524q-43 0 -87 19.5t-74 43t-62 43t-53 19.5q-43 0 -64.5 -33t-23.5 -80h-119q11 108 61.5 168t140.5 60q42 0 86 -19.5t74 -43t62.5 -43t54.5 -19.5q42 0 63.5 33.5t23.5 79.5h120q-12 -108 -62.5 -168t-140.5 -60zM698 -25q-137 0 -252 46.5t-191.5 127
t-118.5 188.5t-42 232q0 119 39.5 237t114.5 220t175 180.5t230 124t271 45.5q183 0 322 -80t211 -213t72 -297q0 -150 -63 -296t-171 -260t-265 -184.5t-332 -70.5zM710 116q139 0 264 57t210.5 150t136 212t50.5 242q0 199 -126.5 329t-332.5 130q-138 0 -263 -57
t-210.5 -149t-136 -210.5t-50.5 -240.5q0 -201 126 -332t332 -131z" />
    <glyph glyph-name="Odieresis" unicode="&#xd6;" horiz-adv-x="1560" 
d="M740 1530q-42 0 -69 26t-27 64q0 48 33 79.5t80 31.5q43 0 69.5 -26t26.5 -66q0 -48 -34 -78.5t-79 -30.5zM1177 1530q-42 0 -69.5 26t-27.5 64q0 48 33 79.5t80 31.5q43 0 69.5 -26t26.5 -66q0 -48 -33.5 -78.5t-78.5 -30.5zM698 -25q-137 0 -252 46.5t-191.5 127
t-118.5 188.5t-42 232q0 119 39.5 237t114.5 220t175 180.5t230 124t271 45.5q183 0 322 -80t211 -213t72 -297q0 -150 -63 -296t-171 -260t-265 -184.5t-332 -70.5zM710 116q139 0 264 57t210.5 150t136 212t50.5 242q0 199 -126.5 329t-332.5 130q-138 0 -263 -57
t-210.5 -149t-136 -210.5t-50.5 -240.5q0 -201 126 -332t332 -131z" />
    <glyph glyph-name="multiply" unicode="&#xd7;" 
d="M1011 938l81 -97l-379 -321l260 -316l-112 -95l-260 316l-379 -321l-79 98l378 320l-259 317l110 95l261 -317z" />
    <glyph glyph-name="Oslash" unicode="&#xd8;" horiz-adv-x="1560" 
d="M1385 1475l-119 -191q125 -78 194 -209t69 -289q0 -150 -63 -296t-171 -260t-265 -184.5t-332 -70.5q-128 0 -233 39l-121 -192l-111 51l123 195q-125 78 -193.5 209.5t-68.5 291.5q0 119 39.5 237t114.5 220t175 180.5t230 124t271 45.5q126 0 235 -40l121 192zM252 579
q0 -122 48.5 -221.5t136.5 -161.5l641 1013q-79 27 -166 27q-138 0 -263 -57t-210.5 -149t-136 -210.5t-50.5 -240.5zM710 116q139 0 264 57t210.5 150t136 212t50.5 242q0 121 -48.5 219.5t-137.5 159.5l-639 -1015q77 -25 164 -25z" />
    <glyph glyph-name="Ugrave" unicode="&#xd9;" horiz-adv-x="1332" 
d="M914 1502h-133l-195 308h186zM583 -25q-245 0 -363 150.5t-72 412.5l144 814h149l-147 -824q-36 -199 41.5 -306.5t254.5 -107.5q181 0 301 110t156 313l143 815h149l-144 -824q-46 -262 -212.5 -407.5t-399.5 -145.5z" />
    <glyph glyph-name="Uacute" unicode="&#xda;" horiz-adv-x="1332" 
d="M907 1502h-140l249 308h194zM583 -25q-245 0 -363 150.5t-72 412.5l144 814h149l-147 -824q-36 -199 41.5 -306.5t254.5 -107.5q181 0 301 110t156 313l143 815h149l-144 -824q-46 -262 -212.5 -407.5t-399.5 -145.5z" />
    <glyph glyph-name="Ucircumflex" unicode="&#xdb;" horiz-adv-x="1332" 
d="M651 1496h-138l289 308h179l183 -308h-136l-148 212zM583 -25q-245 0 -363 150.5t-72 412.5l144 814h149l-147 -824q-36 -199 41.5 -306.5t254.5 -107.5q181 0 301 110t156 313l143 815h149l-144 -824q-46 -262 -212.5 -407.5t-399.5 -145.5z" />
    <glyph glyph-name="Udieresis" unicode="&#xdc;" horiz-adv-x="1332" 
d="M627 1530q-42 0 -69.5 26t-27.5 64q0 48 33 79.5t80 31.5q43 0 69.5 -26t26.5 -66q0 -48 -33.5 -78.5t-78.5 -30.5zM1063 1530q-42 0 -69 26t-27 64q0 48 32.5 79.5t79.5 31.5q43 0 70 -26t27 -66q0 -48 -34 -78.5t-79 -30.5zM583 -25q-245 0 -363 150.5t-72 412.5
l144 814h149l-147 -824q-36 -199 41.5 -306.5t254.5 -107.5q181 0 301 110t156 313l143 815h149l-144 -824q-46 -262 -212.5 -407.5t-399.5 -145.5z" />
    <glyph glyph-name="Yacute" unicode="&#xdd;" horiz-adv-x="1150" 
d="M816 1502h-140l249 308h194zM558 0h-149l88 488l-347 864h159l276 -730h4l537 730h176l-656 -864z" />
    <glyph glyph-name="Thorn" unicode="&#xde;" horiz-adv-x="1210" 
d="M409 1107h393q186 0 295 -97.5t109 -257.5q0 -60 -18.5 -125t-63 -134.5t-108.5 -123.5t-166 -89t-225 -35h-370l-43 -245h-150l240 1352h150zM280 382h385q90 0 165 32t122 84t73 116t26 130q0 102 -69 164t-188 62h-410z" />
    <glyph glyph-name="germandbls" unicode="&#xdf;" horiz-adv-x="1272" 
d="M952 773q109 -25 171.5 -108.5t62.5 -201.5q0 -126 -58.5 -237t-169.5 -181t-251 -70q-142 0 -235.5 79.5t-102.5 214.5l136 43q2 -100 60.5 -154.5t152.5 -54.5q76 0 137.5 32.5t99.5 85.5t58 117t20 131q0 109 -69 166t-196 57h-111l23 131h55q145 0 234.5 95.5
t89.5 218.5q0 104 -68.5 155t-186.5 51q-167 0 -279 -104t-145 -292l-240 -1361l-153 -16l245 1395q42 238 202 374.5t377 136.5q178 0 289.5 -86.5t111.5 -240.5q0 -126 -72 -227t-188 -149z" />
    <glyph glyph-name="agrave" unicode="&#xe0;" horiz-adv-x="1304" 
d="M656 1475l143 -309h-133l-196 309h186zM1062 836l52 180h128l-180 -1016h-128l13 172q-80 -92 -190.5 -144.5t-241.5 -52.5q-200 0 -326.5 123t-126.5 318q0 115 47 227t128 200t200 142.5t253 54.5q127 0 223.5 -53t148.5 -151zM529 108q101 0 192.5 43.5t154 113
t99 155.5t36.5 171q0 140 -91.5 228.5t-236.5 88.5q-103 0 -193 -44t-149 -114t-93 -157t-34 -174q0 -138 87 -224.5t228 -86.5z" />
    <glyph glyph-name="aacute" unicode="&#xe1;" horiz-adv-x="1304" 
d="M900 1475h195l-303 -309h-141zM1062 836l52 180h128l-180 -1016h-128l13 172q-80 -92 -190.5 -144.5t-241.5 -52.5q-200 0 -326.5 123t-126.5 318q0 115 47 227t128 200t200 142.5t253 54.5q127 0 223.5 -53t148.5 -151zM529 108q101 0 192.5 43.5t154 113t99 155.5
t36.5 171q0 140 -91.5 228.5t-236.5 88.5q-103 0 -193 -44t-149 -114t-93 -157t-34 -174q0 -138 87 -224.5t228 -86.5z" />
    <glyph glyph-name="acircumflex" unicode="&#xe2;" horiz-adv-x="1304" 
d="M912 1160l-148 212l-228 -212h-139l289 308h179l184 -308h-137zM1062 836l52 180h128l-180 -1016h-128l13 172q-80 -92 -190.5 -144.5t-241.5 -52.5q-200 0 -326.5 123t-126.5 318q0 115 47 227t128 200t200 142.5t253 54.5q127 0 223.5 -53t148.5 -151zM529 108
q101 0 192.5 43.5t154 113t99 155.5t36.5 171q0 140 -91.5 228.5t-236.5 88.5q-103 0 -193 -44t-149 -114t-93 -157t-34 -174q0 -138 87 -224.5t228 -86.5z" />
    <glyph glyph-name="atilde" unicode="&#xe3;" horiz-adv-x="1304" 
d="M614 1313q-43 0 -64.5 -33t-23.5 -80h-118q11 108 61 168t140 60q42 0 86 -19.5t74 -42.5t63 -42.5t55 -19.5q42 0 63.5 33t23.5 79h120q-12 -108 -62.5 -168t-140.5 -60q-43 0 -87.5 19.5t-74 43t-62 43t-53.5 19.5zM1062 836l52 180h128l-180 -1016h-128l13 172
q-80 -92 -190.5 -144.5t-241.5 -52.5q-200 0 -326.5 123t-126.5 318q0 115 47 227t128 200t200 142.5t253 54.5q127 0 223.5 -53t148.5 -151zM529 108q101 0 192.5 43.5t154 113t99 155.5t36.5 171q0 140 -91.5 228.5t-236.5 88.5q-103 0 -193 -44t-149 -114t-93 -157
t-34 -174q0 -138 87 -224.5t228 -86.5z" />
    <glyph glyph-name="adieresis" unicode="&#xe4;" horiz-adv-x="1304" 
d="M511 1194q-42 0 -69 26t-27 64q0 48 32.5 79.5t79.5 31.5q43 0 70 -26t27 -65q0 -48 -34 -79t-79 -31zM947 1194q-42 0 -69 26t-27 64q0 48 33 79.5t80 31.5q43 0 69.5 -25.5t26.5 -65.5q0 -48 -34 -79t-79 -31zM1062 836l52 180h128l-180 -1016h-128l13 172
q-80 -92 -190.5 -144.5t-241.5 -52.5q-200 0 -326.5 123t-126.5 318q0 115 47 227t128 200t200 142.5t253 54.5q127 0 223.5 -53t148.5 -151zM529 108q101 0 192.5 43.5t154 113t99 155.5t36.5 171q0 140 -91.5 228.5t-236.5 88.5q-103 0 -193 -44t-149 -114t-93 -157
t-34 -174q0 -138 87 -224.5t228 -86.5z" />
    <glyph glyph-name="aring" unicode="&#xe5;" horiz-adv-x="1304" 
d="M726 1132q-86 0 -140.5 53.5t-54.5 136.5q0 103 76 177t179 74q86 0 140.5 -54t54.5 -137q0 -103 -76.5 -176.5t-178.5 -73.5zM776 1475q-55 0 -96.5 -42.5t-41.5 -102.5q0 -43 27.5 -71.5t70.5 -28.5q54 0 96 42t42 102q0 43 -28 72t-70 29zM1062 836l52 180h128
l-180 -1016h-128l13 172q-80 -92 -190.5 -144.5t-241.5 -52.5q-200 0 -326.5 123t-126.5 318q0 115 47 227t128 200t200 142.5t253 54.5q127 0 223.5 -53t148.5 -151zM529 108q101 0 192.5 43.5t154 113t99 155.5t36.5 171q0 140 -91.5 228.5t-236.5 88.5q-103 0 -193 -44
t-149 -114t-93 -157t-34 -174q0 -138 87 -224.5t228 -86.5z" />
    <glyph glyph-name="ae" unicode="&#xe6;" horiz-adv-x="2014" 
d="M1932 462h-926q-2 -24 -2 -38q0 -150 84 -234t237 -84q125 0 237.5 59.5t177.5 161.5l118 -77q-90 -128 -233.5 -201.5t-310.5 -73.5q-153 0 -261.5 73t-152.5 198q-87 -130 -221.5 -200.5t-297.5 -70.5q-146 0 -238.5 73t-92.5 198q0 107 60 186t160.5 119t226.5 40h396
q11 72 11 127q0 192 -253 192q-127 0 -221 -53.5t-138 -155.5l-131 61q67 137 202.5 208t300.5 71q147 0 241.5 -57t121.5 -165q88 103 208.5 162.5t252.5 59.5q211 0 336.5 -124.5t125.5 -320.5q0 -82 -18 -134zM1477 910q-158 0 -276 -90.5t-168 -228.5h765v15
q0 134 -88.5 219t-232.5 85zM394 102q174 0 292.5 93.5t174.5 266.5h-368q-131 0 -210 -55.5t-79 -152.5q0 -77 52 -114.5t138 -37.5z" />
    <glyph glyph-name="ccedilla" unicode="&#xe7;" horiz-adv-x="1176" 
d="M519 -25q-207 0 -330.5 122.5t-123.5 320.5q0 116 45.5 228t125.5 200t200 141.5t258 53.5q170 0 284.5 -76.5t157.5 -208.5l-140 -60q-27 98 -110 155t-203 57q-101 0 -189.5 -42t-148 -110.5t-93.5 -155t-34 -175.5q0 -144 84 -230.5t225 -86.5q119 0 228 56t175 165
l121 -77q-92 -130 -231 -203.5t-301 -73.5zM420 -402h-182l199 328h132z" />
    <glyph glyph-name="egrave" unicode="&#xe8;" 
d="M658 1476l143 -309h-133l-196 309h186zM1147 462h-927q-2 -24 -2 -38q0 -150 84.5 -234t237.5 -84q125 0 237 59.5t177 161.5l118 -77q-90 -128 -233.5 -201.5t-310.5 -73.5q-208 0 -335.5 120t-127.5 323q0 93 28.5 183.5t84 169.5t131 139.5t177 95.5t214.5 35
q212 0 338 -124.5t126 -320.5q0 -85 -17 -134zM691 910q-158 0 -275.5 -90.5t-167.5 -228.5h767v15q0 134 -90 219t-234 85z" />
    <glyph glyph-name="eacute" unicode="&#xe9;" 
d="M902 1476h195l-303 -309h-141zM1147 462h-927q-2 -24 -2 -38q0 -150 84.5 -234t237.5 -84q125 0 237 59.5t177 161.5l118 -77q-90 -128 -233.5 -201.5t-310.5 -73.5q-208 0 -335.5 120t-127.5 323q0 93 28.5 183.5t84 169.5t131 139.5t177 95.5t214.5 35
q212 0 338 -124.5t126 -320.5q0 -85 -17 -134zM691 910q-158 0 -275.5 -90.5t-167.5 -228.5h767v15q0 134 -90 219t-234 85z" />
    <glyph glyph-name="ecircumflex" unicode="&#xea;" 
d="M914 1161l-148 212l-228 -212h-139l289 308h179l184 -308h-137zM1147 462h-927q-2 -24 -2 -38q0 -150 84.5 -234t237.5 -84q125 0 237 59.5t177 161.5l118 -77q-90 -128 -233.5 -201.5t-310.5 -73.5q-208 0 -335.5 120t-127.5 323q0 93 28.5 183.5t84 169.5t131 139.5
t177 95.5t214.5 35q212 0 338 -124.5t126 -320.5q0 -85 -17 -134zM691 910q-158 0 -275.5 -90.5t-167.5 -228.5h767v15q0 134 -90 219t-234 85z" />
    <glyph glyph-name="edieresis" unicode="&#xeb;" 
d="M513 1195q-42 0 -69 26t-27 64q0 48 32.5 79.5t79.5 31.5q43 0 70 -26t27 -65q0 -48 -34 -79t-79 -31zM949 1195q-42 0 -69 26t-27 64q0 48 33 79.5t80 31.5q43 0 69.5 -25.5t26.5 -65.5q0 -48 -34 -79t-79 -31zM1147 462h-927q-2 -24 -2 -38q0 -150 84.5 -234t237.5 -84
q125 0 237 59.5t177 161.5l118 -77q-90 -128 -233.5 -201.5t-310.5 -73.5q-208 0 -335.5 120t-127.5 323q0 93 28.5 183.5t84 169.5t131 139.5t177 95.5t214.5 35q212 0 338 -124.5t126 -320.5q0 -85 -17 -134zM691 910q-158 0 -275.5 -90.5t-167.5 -228.5h767v15
q0 134 -90 219t-234 85z" />
    <glyph glyph-name="igrave" unicode="&#xec;" horiz-adv-x="453" 
d="M416 1166h-133l-196 309h186zM212 0h-150l181 1016h149z" />
    <glyph glyph-name="iacute" unicode="&#xed;" horiz-adv-x="453" 
d="M409 1166h-141l249 309h195zM212 0h-150l181 1016h149z" />
    <glyph glyph-name="icircumflex" unicode="&#xee;" horiz-adv-x="453" 
d="M153 1160h-139l289 308h179l184 -308h-137l-148 212zM212 0h-150l181 1016h149z" />
    <glyph glyph-name="idieresis" unicode="&#xef;" horiz-adv-x="453" 
d="M128 1194q-42 0 -69 26t-27 64q0 48 32.5 79.5t79.5 31.5q43 0 70 -26t27 -65q0 -48 -34 -79t-79 -31zM564 1194q-42 0 -69 26t-27 64q0 48 33 79.5t80 31.5q43 0 69.5 -25.5t26.5 -65.5q0 -48 -34 -79t-79 -31zM212 0h-150l181 1016h149z" />
    <glyph glyph-name="eth" unicode="&#xf0;" horiz-adv-x="1169" 
d="M1125 1300l-258 -111l116 -257q59 -130 85 -220t26 -173q0 -118 -47 -223.5t-127 -179.5t-189.5 -117.5t-229.5 -43.5q-197 0 -321.5 112.5t-124.5 290.5q0 112 48.5 215t127.5 175.5t183 115.5t211 43q155 0 240 -64l-128 271l-272 -118l-34 100l260 114l-106 224
l153 21l85 -188l274 119zM504 108q183 0 310 123t127 299q0 121 -80.5 194.5t-219.5 73.5q-117 0 -217 -55.5t-159 -151.5t-59 -208q0 -122 82 -198.5t216 -76.5z" />
    <glyph glyph-name="ntilde" unicode="&#xf1;" horiz-adv-x="1184" 
d="M599 1313q-43 0 -64.5 -33t-23.5 -80h-119q11 108 61.5 168t140.5 60q42 0 86 -19.5t74 -42.5t62.5 -42.5t54.5 -19.5q42 0 63.5 33t23.5 79h120q-12 -108 -62 -168t-140 -60q-43 0 -87.5 19.5t-74 43t-62 43t-53.5 19.5zM732 1040q180 0 269.5 -118.5t54.5 -310.5
l-110 -611h-148l107 599q29 156 -29.5 234.5t-190.5 78.5q-137 0 -240 -87.5t-130 -236.5l-103 -588h-150l181 1016h128l-7 -133q144 157 368 157z" />
    <glyph glyph-name="ograve" unicode="&#xf2;" horiz-adv-x="1236" 
d="M805 1155h-133l-196 308h187zM535 -25q-214 0 -342 125t-128 321q0 118 49.5 231t133 199t203 138t251.5 52q210 0 340 -124t130 -321q0 -157 -82 -299.5t-230 -232t-325 -89.5zM544 108q131 0 241.5 68.5t172 179t61.5 233.5q0 143 -89.5 231t-238.5 88
q-131 0 -241 -68.5t-171 -179t-61 -233.5q0 -143 89 -231t237 -88z" />
    <glyph glyph-name="oacute" unicode="&#xf3;" horiz-adv-x="1236" 
d="M798 1155h-141l249 308h195zM535 -25q-214 0 -342 125t-128 321q0 118 49.5 231t133 199t203 138t251.5 52q210 0 340 -124t130 -321q0 -157 -82 -299.5t-230 -232t-325 -89.5zM544 108q131 0 241.5 68.5t172 179t61.5 233.5q0 143 -89.5 231t-238.5 88
q-131 0 -241 -68.5t-171 -179t-61 -233.5q0 -143 89 -231t237 -88z" />
    <glyph glyph-name="ocircumflex" unicode="&#xf4;" horiz-adv-x="1236" 
d="M542 1149h-139l289 308h179l184 -308h-136l-149 212zM535 -25q-214 0 -342 125t-128 321q0 118 49.5 231t133 199t203 138t251.5 52q210 0 340 -124t130 -321q0 -157 -82 -299.5t-230 -232t-325 -89.5zM544 108q131 0 241.5 68.5t172 179t61.5 233.5q0 143 -89.5 231
t-238.5 88q-131 0 -241 -68.5t-171 -179t-61 -233.5q0 -143 89 -231t237 -88z" />
    <glyph glyph-name="otilde" unicode="&#xf5;" horiz-adv-x="1236" 
d="M897 1177q-55 0 -109.5 31.5t-97.5 62.5t-69 31q-44 0 -65.5 -33.5t-23.5 -79.5h-118q11 108 61 168t140 60q42 0 86 -19.5t74 -43t63 -43t55 -19.5q42 0 63.5 33.5t23.5 79.5h120q-12 -108 -62.5 -168t-140.5 -60zM535 -25q-214 0 -342 125t-128 321q0 118 49.5 231
t133 199t203 138t251.5 52q210 0 340 -124t130 -321q0 -157 -82 -299.5t-230 -232t-325 -89.5zM544 108q131 0 241.5 68.5t172 179t61.5 233.5q0 143 -89.5 231t-238.5 88q-131 0 -241 -68.5t-171 -179t-61 -233.5q0 -143 89 -231t237 -88z" />
    <glyph glyph-name="odieresis" unicode="&#xf6;" horiz-adv-x="1236" 
d="M517 1183q-42 0 -69 26t-27 64q0 48 33 79t80 31q43 0 69.5 -25.5t26.5 -65.5q0 -48 -34 -78.5t-79 -30.5zM953 1183q-42 0 -69 26t-27 64q0 48 33 79t80 31q43 0 69.5 -25.5t26.5 -65.5q0 -48 -34 -78.5t-79 -30.5zM535 -25q-214 0 -342 125t-128 321q0 118 49.5 231
t133 199t203 138t251.5 52q210 0 340 -124t130 -321q0 -157 -82 -299.5t-230 -232t-325 -89.5zM544 108q131 0 241.5 68.5t172 179t61.5 233.5q0 143 -89.5 231t-238.5 88q-131 0 -241 -68.5t-171 -179t-61 -233.5q0 -143 89 -231t237 -88z" />
    <glyph glyph-name="divide" unicode="&#xf7;" 
d="M662 741q-42 0 -68 28t-26 70q0 46 34 79t80 33q43 0 70.5 -25.5t27.5 -64.5q0 -49 -34 -84.5t-84 -35.5zM1083 453h-959l26 137h959zM549 93q-42 0 -69 25.5t-27 67.5q0 48 34 81.5t80 33.5q43 0 70.5 -26t27.5 -67q0 -48 -33 -81.5t-83 -33.5z" />
    <glyph glyph-name="oslash" unicode="&#xf8;" horiz-adv-x="1236" 
d="M1074 1145l-107 -171q98 -57 151.5 -155.5t53.5 -222.5q0 -157 -82 -299.5t-230 -232t-325 -89.5q-96 0 -180 28l-115 -184l-89 43l114 183q-96 58 -148 155.5t-52 220.5q0 118 49.5 231t133 199t203 138t251.5 52q94 0 174 -26l109 175zM218 427q0 -173 124 -261
l457 728q-51 14 -108 14q-131 0 -241 -68.5t-171 -179t-61 -233.5zM544 108q131 0 241.5 68.5t172 179t61.5 233.5q0 176 -129 263l-459 -729q51 -15 113 -15z" />
    <glyph glyph-name="ugrave" unicode="&#xf9;" horiz-adv-x="1180" 
d="M779 1166h-133l-195 309h186zM505 -20q-205 0 -306 118.5t-65 325.5l105 592h149l-108 -606q-26 -140 36 -219t196 -79q138 0 233.5 81.5t121.5 224.5l107 598h149l-106 -601q-36 -206 -173 -320.5t-339 -114.5z" />
    <glyph glyph-name="uacute" unicode="&#xfa;" horiz-adv-x="1180" 
d="M772 1166h-140l249 309h194zM505 -20q-205 0 -306 118.5t-65 325.5l105 592h149l-108 -606q-26 -140 36 -219t196 -79q138 0 233.5 81.5t121.5 224.5l107 598h149l-106 -601q-36 -206 -173 -320.5t-339 -114.5z" />
    <glyph glyph-name="ucircumflex" unicode="&#xfb;" horiz-adv-x="1180" 
d="M516 1160h-138l289 308h179l183 -308h-136l-149 212zM505 -20q-205 0 -306 118.5t-65 325.5l105 592h149l-108 -606q-26 -140 36 -219t196 -79q138 0 233.5 81.5t121.5 224.5l107 598h149l-106 -601q-36 -206 -173 -320.5t-339 -114.5z" />
    <glyph glyph-name="udieresis" unicode="&#xfc;" horiz-adv-x="1180" 
d="M492 1194q-42 0 -69.5 26t-27.5 64q0 48 33 79.5t80 31.5q43 0 69.5 -25.5t26.5 -65.5q0 -48 -33.5 -79t-78.5 -31zM928 1194q-42 0 -69.5 26t-27.5 64q0 48 33 79.5t80 31.5q43 0 69.5 -25.5t26.5 -65.5q0 -48 -33.5 -79t-78.5 -31zM505 -20q-205 0 -306 118.5
t-65 325.5l105 592h149l-108 -606q-26 -140 36 -219t196 -79q138 0 233.5 81.5t121.5 224.5l107 598h149l-106 -601q-36 -206 -173 -320.5t-339 -114.5z" />
    <glyph glyph-name="yacute" unicode="&#xfd;" horiz-adv-x="1182" 
d="M879 1475h194l-303 -309h-140zM889 544l83 472h149l-176 -992q-35 -197 -188.5 -323.5t-356.5 -126.5q-165 0 -277.5 83t-137.5 217l139 59q6 -108 82 -168.5t195 -60.5q151 0 261 89t134 224l21 120q-144 -152 -366 -152q-178 0 -267.5 118t-55.5 308l109 605h149
l-108 -593q-28 -154 29.5 -231.5t190.5 -77.5q139 0 242 87t129 237l19 106h1z" />
    <glyph glyph-name="thorn" unicode="&#xfe;" horiz-adv-x="1306" 
d="M795 1040q199 0 324 -122t125 -318q0 -115 -47 -227t-128 -200.5t-200 -143t-253 -54.5q-128 0 -224 53.5t-147 152.5l-105 -595l-153 -16l334 1888l151 17l-111 -630q80 92 191 143.5t243 51.5zM620 108q103 0 193 44t150 113.5t94 155.5t34 172q0 141 -85 228t-225 87
q-134 0 -247.5 -73t-175.5 -183.5t-62 -226.5q0 -139 91.5 -228t232.5 -89z" />
    <glyph glyph-name="ydieresis" unicode="&#xff;" horiz-adv-x="1182" 
d="M489 1194q-42 0 -69 26t-27 64q0 48 33 79.5t80 31.5q43 0 69.5 -25.5t26.5 -65.5q0 -48 -34 -79t-79 -31zM926 1194q-42 0 -69.5 26t-27.5 64q0 48 33 79.5t80 31.5q43 0 69.5 -25.5t26.5 -65.5q0 -48 -33.5 -79t-78.5 -31zM889 544l83 472h149l-176 -992
q-35 -197 -188.5 -323.5t-356.5 -126.5q-165 0 -277.5 83t-137.5 217l139 59q6 -108 82 -168.5t195 -60.5q151 0 261 89t134 224l21 120q-144 -152 -366 -152q-178 0 -267.5 118t-55.5 308l109 605h149l-108 -593q-28 -154 29.5 -231.5t190.5 -77.5q139 0 242 87t129 237
l19 106h1z" />
    <glyph glyph-name="Amacron" unicode="&#x100;" horiz-adv-x="1295" 
d="M539 1669h633l-21 -116h-633zM1176 0h-164l-58 294h-683l-160 -294h-171l761 1352h188zM771 1210l-425 -778h582l-151 778h-6z" />
    <glyph glyph-name="amacron" unicode="&#x101;" horiz-adv-x="1304" 
d="M440 1333h634l-21 -115h-633zM1062 836l52 180h128l-180 -1016h-128l13 172q-80 -92 -190.5 -144.5t-241.5 -52.5q-200 0 -326.5 123t-126.5 318q0 115 47 227t128 200t200 142.5t253 54.5q127 0 223.5 -53t148.5 -151zM529 108q101 0 192.5 43.5t154 113t99 155.5
t36.5 171q0 140 -91.5 228.5t-236.5 88.5q-103 0 -193 -44t-149 -114t-93 -157t-34 -174q0 -138 87 -224.5t228 -86.5z" />
    <glyph glyph-name="Abreve" unicode="&#x102;" horiz-adv-x="1295" 
d="M838 1490q-139 0 -207.5 88t-44.5 221h115q-14 -88 25 -141.5t122 -53.5t146 54.5t80 140.5h120q-25 -134 -121.5 -221.5t-234.5 -87.5zM-60 0l761 1352h188l287 -1352h-164l-58 294h-683l-160 -294h-171zM771 1210l-425 -778h582l-151 778h-6z" />
    <glyph glyph-name="abreve" unicode="&#x103;" horiz-adv-x="1304" 
d="M739 1154q-139 0 -207.5 88t-44.5 221h116q-14 -88 25 -141.5t122 -53.5t146 54.5t80 140.5h120q-25 -134 -122 -221.5t-235 -87.5zM1062 836l52 180h128l-180 -1016h-128l13 172q-80 -92 -190.5 -144.5t-241.5 -52.5q-200 0 -326.5 123t-126.5 318q0 115 47 227t128 200
t200 142.5t253 54.5q127 0 223.5 -53t148.5 -151zM529 108q101 0 192.5 43.5t154 113t99 155.5t36.5 171q0 140 -91.5 228.5t-236.5 88.5q-103 0 -193 -44t-149 -114t-93 -157t-34 -174q0 -138 87 -224.5t228 -86.5z" />
    <glyph glyph-name="Aogonek" unicode="&#x104;" horiz-adv-x="1295" 
d="M1050 -360q26 0 71 10l11 -99q-51 -12 -114 -12q-105 0 -165.5 63t-42.5 166q24 145 200 245l-56 281h-683l-160 -294h-171l761 1352h188l287 -1352q-94 -44 -159.5 -106t-76.5 -131q-10 -58 21 -90.5t89 -32.5zM771 1210l-425 -778h582l-151 778h-6z" />
    <glyph glyph-name="aogonek" unicode="&#x105;" horiz-adv-x="1304" 
d="M1242 1016l-180 -1016q-94 -44 -159.5 -106t-76.5 -131q-10 -58 21 -90.5t89 -32.5q27 0 72 10l10 -99q-51 -12 -114 -12q-105 0 -165.5 63t-42.5 166q27 162 241 267l10 137q-80 -92 -190.5 -144.5t-241.5 -52.5q-200 0 -326.5 123t-126.5 318q0 115 47 227t128 200
t200 142.5t253 54.5q127 0 223.5 -53t148.5 -151l52 180h128zM529 108q101 0 192.5 43.5t154 113t99 155.5t36.5 171q0 140 -91.5 228.5t-236.5 88.5q-103 0 -193 -44t-149 -114t-93 -157t-34 -174q0 -138 87 -224.5t228 -86.5z" />
    <glyph glyph-name="Cacute" unicode="&#x106;" horiz-adv-x="1475" 
d="M1023 1502h-140l249 308h194zM694 -25q-137 0 -250.5 46.5t-189.5 127t-118 188.5t-42 232q0 119 39.5 237t114.5 220t174.5 180.5t229.5 124t270 45.5q213 0 365.5 -103t210.5 -276l-145 -64q-42 138 -160 220.5t-281 82.5q-139 0 -263.5 -57t-210.5 -149t-136 -210.5
t-50 -240.5q0 -201 126 -332t328 -131q162 0 312.5 87t241.5 228l126 -81q-118 -172 -303 -273.5t-389 -101.5z" />
    <glyph glyph-name="cacute" unicode="&#x107;" horiz-adv-x="1176" 
d="M792 1166h-141l249 309h195zM519 -25q-207 0 -330.5 122.5t-123.5 320.5q0 116 45.5 228t125.5 200t200 141.5t258 53.5q170 0 284.5 -76.5t157.5 -208.5l-140 -60q-27 98 -110 155t-203 57q-101 0 -189.5 -42t-148 -110.5t-93.5 -155t-34 -175.5q0 -144 84 -230.5
t225 -86.5q119 0 228 56t175 165l121 -77q-92 -130 -231 -203.5t-301 -73.5z" />
    <glyph glyph-name="Ccircumflex" unicode="&#x108;" horiz-adv-x="1475" 
d="M767 1496h-138l289 308h179l183 -308h-136l-149 212zM694 -25q-137 0 -250.5 46.5t-189.5 127t-118 188.5t-42 232q0 119 39.5 237t114.5 220t174.5 180.5t229.5 124t270 45.5q213 0 365.5 -103t210.5 -276l-145 -64q-42 138 -160 220.5t-281 82.5q-139 0 -263.5 -57
t-210.5 -149t-136 -210.5t-50 -240.5q0 -201 126 -332t328 -131q162 0 312.5 87t241.5 228l126 -81q-118 -172 -303 -273.5t-389 -101.5z" />
    <glyph glyph-name="ccircumflex" unicode="&#x109;" horiz-adv-x="1176" 
d="M536 1160h-139l289 308h179l184 -308h-137l-148 212zM519 -25q-207 0 -330.5 122.5t-123.5 320.5q0 116 45.5 228t125.5 200t200 141.5t258 53.5q170 0 284.5 -76.5t157.5 -208.5l-140 -60q-27 98 -110 155t-203 57q-101 0 -189.5 -42t-148 -110.5t-93.5 -155t-34 -175.5
q0 -144 84 -230.5t225 -86.5q119 0 228 56t175 165l121 -77q-92 -130 -231 -203.5t-301 -73.5z" />
    <glyph glyph-name="Cdotaccent" unicode="&#x10a;" horiz-adv-x="1475" 
d="M973 1528q-45 0 -75.5 29t-30.5 71q0 53 35 87.5t87 34.5q46 0 75.5 -29t29.5 -73q0 -53 -35.5 -86.5t-85.5 -33.5zM694 -25q-137 0 -250.5 46.5t-189.5 127t-118 188.5t-42 232q0 119 39.5 237t114.5 220t174.5 180.5t229.5 124t270 45.5q213 0 365.5 -103t210.5 -276
l-145 -64q-42 138 -160 220.5t-281 82.5q-139 0 -263.5 -57t-210.5 -149t-136 -210.5t-50 -240.5q0 -201 126 -332t328 -131q162 0 312.5 87t241.5 228l126 -81q-118 -172 -303 -273.5t-389 -101.5z" />
    <glyph glyph-name="cdotaccent" unicode="&#x10b;" horiz-adv-x="1176" 
d="M741 1192q-45 0 -75 29t-30 71q0 53 35 87.5t87 34.5q46 0 75 -29t29 -73q0 -53 -35.5 -86.5t-85.5 -33.5zM519 -25q-207 0 -330.5 122.5t-123.5 320.5q0 116 45.5 228t125.5 200t200 141.5t258 53.5q170 0 284.5 -76.5t157.5 -208.5l-140 -60q-27 98 -110 155t-203 57
q-101 0 -189.5 -42t-148 -110.5t-93.5 -155t-34 -175.5q0 -144 84 -230.5t225 -86.5q119 0 228 56t175 165l121 -77q-92 -130 -231 -203.5t-301 -73.5z" />
    <glyph glyph-name="Ccaron" unicode="&#x10c;" horiz-adv-x="1475" 
d="M1049 1496h-179l-184 308h136l149 -212l228 212h138zM694 -25q-137 0 -250.5 46.5t-189.5 127t-118 188.5t-42 232q0 119 39.5 237t114.5 220t174.5 180.5t229.5 124t270 45.5q213 0 365.5 -103t210.5 -276l-145 -64q-42 138 -160 220.5t-281 82.5q-139 0 -263.5 -57
t-210.5 -149t-136 -210.5t-50 -240.5q0 -201 126 -332t328 -131q162 0 312.5 87t241.5 228l126 -81q-118 -172 -303 -273.5t-389 -101.5z" />
    <glyph glyph-name="ccaron" unicode="&#x10d;" horiz-adv-x="1176" 
d="M817 1160h-178l-184 308h136l148 -212l229 212h138zM519 -25q-207 0 -330.5 122.5t-123.5 320.5q0 116 45.5 228t125.5 200t200 141.5t258 53.5q170 0 284.5 -76.5t157.5 -208.5l-140 -60q-27 98 -110 155t-203 57q-101 0 -189.5 -42t-148 -110.5t-93.5 -155t-34 -175.5
q0 -144 84 -230.5t225 -86.5q119 0 228 56t175 165l121 -77q-92 -130 -231 -203.5t-301 -73.5z" />
    <glyph glyph-name="Dcaron" unicode="&#x10e;" horiz-adv-x="1351" 
d="M1206 1804l-288 -308h-179l-184 308h136l149 -212l228 212h138zM302 1352h410q141 0 256.5 -43t192 -118t117.5 -176.5t41 -219.5q0 -165 -67 -312.5t-180.5 -253t-270.5 -167.5t-330 -62h-409zM238 138h248q187 0 343 87.5t244 235t88 320.5q0 191 -126.5 311.5
t-341.5 120.5h-268z" />
    <glyph glyph-name="dcaron" unicode="&#x10f;" horiz-adv-x="1374" 
d="M1334 1057l76 429h148l-112 -429h-112zM1063 834l109 624l152 17l-260 -1475h-128l11 173q-80 -93 -190.5 -145.5t-241.5 -52.5q-200 0 -326.5 123t-126.5 318q0 115 47 227t128 200t200 142.5t253 54.5q128 0 225 -53.5t148 -152.5zM529 108q101 0 192.5 43.5t154 113
t99 155.5t36.5 171q0 140 -91.5 228.5t-236.5 88.5q-103 0 -193 -44t-149 -114t-93 -157t-34 -174q0 -138 87 -224.5t228 -86.5z" />
    <glyph glyph-name="Dcroat" unicode="&#x110;" horiz-adv-x="1351" 
d="M302 1352h410q141 0 256.5 -43t192 -118t117.5 -176.5t41 -219.5q0 -165 -67 -312.5t-180.5 -253t-270.5 -167.5t-330 -62h-409l109 610h-164l24 132h164zM238 138h248q187 0 343 87.5t244 235t88 320.5q0 191 -126.5 311.5t-341.5 120.5h-268l-82 -471h305l-24 -132
h-305z" />
    <glyph glyph-name="dcroat" unicode="&#x111;" horiz-adv-x="1309" 
d="M1294 1309h132l-23 -118h-129l-210 -1191h-128l11 173q-80 -93 -190.5 -145.5t-241.5 -52.5q-200 0 -326.5 123t-126.5 318q0 115 47 227t128 200t200 142.5t253 54.5q128 0 225 -53.5t148 -152.5l62 357h-326l24 118h323l26 149l152 17zM529 108q101 0 192.5 43.5
t154 113t99 155.5t36.5 171q0 140 -91.5 228.5t-236.5 88.5q-103 0 -193 -44t-149 -114t-93 -157t-34 -174q0 -138 87 -224.5t228 -86.5z" />
    <glyph glyph-name="Emacron" unicode="&#x112;" horiz-adv-x="1169" 
d="M504 1669h634l-22 -116h-633zM1227 1352l-26 -139h-775l-82 -463h715l-26 -138h-712l-84 -474h776l-26 -138h-925l240 1352h925z" />
    <glyph glyph-name="emacron" unicode="&#x113;" 
d="M442 1334h634l-21 -115h-633zM1147 462h-927q-2 -24 -2 -38q0 -150 84.5 -234t237.5 -84q125 0 237 59.5t177 161.5l118 -77q-90 -128 -233.5 -201.5t-310.5 -73.5q-208 0 -335.5 120t-127.5 323q0 93 28.5 183.5t84 169.5t131 139.5t177 95.5t214.5 35q212 0 338 -124.5
t126 -320.5q0 -85 -17 -134zM691 910q-158 0 -275.5 -90.5t-167.5 -228.5h767v15q0 134 -90 219t-234 85z" />
    <glyph glyph-name="Ebreve" unicode="&#x114;" horiz-adv-x="1169" 
d="M803 1490q-139 0 -207.5 88t-44.5 221h116q-14 -88 24.5 -141.5t121.5 -53.5t146 54.5t80 140.5h120q-25 -134 -121.5 -221.5t-234.5 -87.5zM1227 1352l-26 -139h-775l-82 -463h715l-26 -138h-712l-84 -474h776l-26 -138h-925l240 1352h925z" />
    <glyph glyph-name="ebreve" unicode="&#x115;" 
d="M741 1155q-139 0 -207.5 88t-44.5 221h116q-14 -88 25 -141.5t122 -53.5t146 54.5t80 140.5h120q-25 -134 -122 -221.5t-235 -87.5zM1147 462h-927q-2 -24 -2 -38q0 -150 84.5 -234t237.5 -84q125 0 237 59.5t177 161.5l118 -77q-90 -128 -233.5 -201.5t-310.5 -73.5
q-208 0 -335.5 120t-127.5 323q0 93 28.5 183.5t84 169.5t131 139.5t177 95.5t214.5 35q212 0 338 -124.5t126 -320.5q0 -85 -17 -134zM691 910q-158 0 -275.5 -90.5t-167.5 -228.5h767v15q0 134 -90 219t-234 85z" />
    <glyph glyph-name="Edotaccent" unicode="&#x116;" horiz-adv-x="1169" 
d="M805 1528q-45 0 -75.5 29t-30.5 71q0 53 35 87.5t87 34.5q46 0 75.5 -29t29.5 -73q0 -53 -35.5 -86.5t-85.5 -33.5zM1227 1352l-26 -139h-775l-82 -463h715l-26 -138h-712l-84 -474h776l-26 -138h-925l240 1352h925z" />
    <glyph glyph-name="edotaccent" unicode="&#x117;" 
d="M743 1193q-45 0 -75 29t-30 71q0 53 35 87.5t87 34.5q46 0 75 -29t29 -73q0 -53 -35.5 -86.5t-85.5 -33.5zM1147 462h-927q-2 -24 -2 -38q0 -150 84.5 -234t237.5 -84q125 0 237 59.5t177 161.5l118 -77q-90 -128 -233.5 -201.5t-310.5 -73.5q-208 0 -335.5 120
t-127.5 323q0 93 28.5 183.5t84 169.5t131 139.5t177 95.5t214.5 35q212 0 338 -124.5t126 -320.5q0 -85 -17 -134zM691 910q-158 0 -275.5 -90.5t-167.5 -228.5h767v15q0 134 -90 219t-234 85z" />
    <glyph glyph-name="Eogonek" unicode="&#x118;" horiz-adv-x="1169" 
d="M1227 1352l-26 -139h-775l-82 -463h715l-26 -138h-712l-84 -474h776l-26 -138q-94 -44 -159 -106t-76 -131q-10 -58 20.5 -90.5t88.5 -32.5q27 0 72 10l10 -99q-51 -12 -114 -12q-104 0 -164.5 63t-42.5 166q22 134 177 232h-737l240 1352h925z" />
    <glyph glyph-name="eogonek" unicode="&#x119;" 
d="M1147 462h-927q-2 -24 -2 -38q0 -150 85 -234t240 -84q128 0 238 61.5t173 159.5l118 -77q-69 -92 -209 -198q-144 -97 -195.5 -165t-51.5 -128q0 -48 31 -74.5t83 -26.5q29 0 74 10l8 -99q-51 -12 -114 -12q-93 0 -151.5 50t-58.5 137q0 134 145 239q-58 -8 -105 -8
q-208 0 -335.5 120t-127.5 323q0 93 28.5 183.5t84 169.5t131 139.5t177 95.5t214.5 35q212 0 338 -124.5t126 -320.5q0 -85 -17 -134zM691 910q-158 0 -275.5 -90.5t-167.5 -228.5h767v15q0 134 -90 219t-234 85z" />
    <glyph glyph-name="Ecaron" unicode="&#x11a;" horiz-adv-x="1169" 
d="M1169 1804l-288 -308h-179l-184 308h136l149 -212l228 212h138zM1227 1352l-26 -139h-775l-82 -463h715l-26 -138h-712l-84 -474h776l-26 -138h-925l240 1352h925z" />
    <glyph glyph-name="ecaron" unicode="&#x11b;" 
d="M1108 1469l-289 -308h-178l-184 308h136l148 -212l229 212h138zM1147 462h-927q-2 -24 -2 -38q0 -150 84.5 -234t237.5 -84q125 0 237 59.5t177 161.5l118 -77q-90 -128 -233.5 -201.5t-310.5 -73.5q-208 0 -335.5 120t-127.5 323q0 93 28.5 183.5t84 169.5t131 139.5
t177 95.5t214.5 35q212 0 338 -124.5t126 -320.5q0 -85 -17 -134zM691 910q-158 0 -275.5 -90.5t-167.5 -228.5h767v15q0 134 -90 219t-234 85z" />
    <glyph glyph-name="Gcircumflex" unicode="&#x11c;" horiz-adv-x="1587" 
d="M1144 1496l-149 212l-228 -212h-138l289 308h179l183 -308h-136zM1326 569h-565l25 138h704l-126 -707h-94l21 294q-101 -146 -262 -232.5t-346 -86.5q-258 0 -424.5 165t-166.5 423q0 118 39.5 236.5t115 221.5t176 183t230.5 126t271 46q213 0 365.5 -103t210.5 -274
l-146 -65q-41 138 -159.5 220t-282.5 82q-111 0 -215 -38t-184 -104t-140.5 -151t-92.5 -183.5t-32 -196.5q0 -196 127.5 -322t325.5 -126q215 0 389 129t236 325z" />
    <glyph glyph-name="gcircumflex" unicode="&#x11d;" horiz-adv-x="1302" 
d="M921 1160l-149 212l-228 -212h-138l288 308h179l184 -308h-136zM1061 841l51 175h128l-162 -911q-39 -227 -210.5 -379t-397.5 -152q-191 0 -318.5 80.5t-155.5 219.5l139 59q14 -108 102 -168.5t231 -60.5q167 0 299.5 114.5t161.5 281.5l15 85q-170 -188 -427 -188
q-200 0 -325.5 120t-125.5 312q0 90 29 179t85.5 166.5t131.5 137t173.5 94t206.5 34.5q126 0 221.5 -52t147.5 -147zM531 127q101 0 191.5 42.5t152.5 110.5t98 153t36 169q0 134 -92 221.5t-232 87.5q-103 0 -193 -43t-149 -112t-93 -154t-34 -170q0 -136 87 -220.5
t228 -84.5z" />
    <glyph glyph-name="Gbreve" unicode="&#x11e;" horiz-adv-x="1587" 
d="M971 1490q-139 0 -207.5 88t-44.5 221h116q-14 -88 24.5 -141.5t121.5 -53.5t146 54.5t80 140.5h120q-25 -134 -121.5 -221.5t-234.5 -87.5zM1326 569h-565l25 138h704l-126 -707h-94l21 294q-101 -146 -262 -232.5t-346 -86.5q-258 0 -424.5 165t-166.5 423
q0 118 39.5 236.5t115 221.5t176 183t230.5 126t271 46q213 0 365.5 -103t210.5 -274l-146 -65q-41 138 -159.5 220t-282.5 82q-111 0 -215 -38t-184 -104t-140.5 -151t-92.5 -183.5t-32 -196.5q0 -196 127.5 -322t325.5 -126q215 0 389 129t236 325z" />
    <glyph glyph-name="gbreve" unicode="&#x11f;" horiz-adv-x="1302" 
d="M748 1154q-139 0 -207.5 88t-44.5 221h115q-14 -88 25 -141.5t122 -53.5t146 54.5t80 140.5h120q-25 -134 -121.5 -221.5t-234.5 -87.5zM1061 841l51 175h128l-162 -911q-39 -227 -210.5 -379t-397.5 -152q-191 0 -318.5 80.5t-155.5 219.5l139 59q14 -108 102 -168.5
t231 -60.5q167 0 299.5 114.5t161.5 281.5l15 85q-170 -188 -427 -188q-200 0 -325.5 120t-125.5 312q0 90 29 179t85.5 166.5t131.5 137t173.5 94t206.5 34.5q126 0 221.5 -52t147.5 -147zM531 127q101 0 191.5 42.5t152.5 110.5t98 153t36 169q0 134 -92 221.5t-232 87.5
q-103 0 -193 -43t-149 -112t-93 -154t-34 -170q0 -136 87 -220.5t228 -84.5z" />
    <glyph glyph-name="Gdotaccent" unicode="&#x120;" horiz-adv-x="1587" 
d="M973 1528q-45 0 -75.5 29t-30.5 71q0 53 35 87.5t87 34.5q46 0 75.5 -29t29.5 -73q0 -53 -35.5 -86.5t-85.5 -33.5zM1326 569h-565l25 138h704l-126 -707h-94l21 294q-101 -146 -262 -232.5t-346 -86.5q-258 0 -424.5 165t-166.5 423q0 118 39.5 236.5t115 221.5t176 183
t230.5 126t271 46q213 0 365.5 -103t210.5 -274l-146 -65q-41 138 -159.5 220t-282.5 82q-111 0 -215 -38t-184 -104t-140.5 -151t-92.5 -183.5t-32 -196.5q0 -196 127.5 -322t325.5 -126q215 0 389 129t236 325z" />
    <glyph glyph-name="gdotaccent" unicode="&#x121;" horiz-adv-x="1302" 
d="M750 1192q-45 0 -75.5 29t-30.5 71q0 53 35 87.5t87 34.5q46 0 75 -29t29 -73q0 -53 -35 -86.5t-85 -33.5zM1061 841l51 175h128l-162 -911q-39 -227 -210.5 -379t-397.5 -152q-191 0 -318.5 80.5t-155.5 219.5l139 59q14 -108 102 -168.5t231 -60.5q167 0 299.5 114.5
t161.5 281.5l15 85q-170 -188 -427 -188q-200 0 -325.5 120t-125.5 312q0 90 29 179t85.5 166.5t131.5 137t173.5 94t206.5 34.5q126 0 221.5 -52t147.5 -147zM531 127q101 0 191.5 42.5t152.5 110.5t98 153t36 169q0 134 -92 221.5t-232 87.5q-103 0 -193 -43t-149 -112
t-93 -154t-34 -170q0 -136 87 -220.5t228 -84.5z" />
    <glyph glyph-name="uni0122" unicode="&#x122;" horiz-adv-x="1587" 
d="M1326 569h-565l25 138h704l-126 -707h-94l21 294q-101 -146 -262 -232.5t-346 -86.5q-258 0 -424.5 165t-166.5 423q0 118 39.5 236.5t115 221.5t176 183t230.5 126t271 46q213 0 365.5 -103t210.5 -274l-146 -65q-41 138 -159.5 220t-282.5 82q-111 0 -215 -38
t-184 -104t-140.5 -151t-92.5 -183.5t-32 -196.5q0 -196 127.5 -322t325.5 -126q215 0 389 129t236 325zM655 -102q46 0 71.5 -29.5t25.5 -78.5q0 -87 -60.5 -172t-148.5 -150l-48 60q115 83 144 180h-4q-38 0 -61.5 24.5t-23.5 61.5q0 43 30.5 73.5t74.5 30.5z" />
    <glyph glyph-name="uni0123" unicode="&#x123;" horiz-adv-x="1302" 
d="M739 1156q-46 0 -71 29t-25 79q0 87 60.5 172t148.5 150l48 -60q-115 -83 -144 -180h4q38 0 61.5 -24.5t23.5 -61.5q0 -42 -30.5 -73t-75.5 -31zM1061 841l51 175h128l-162 -911q-39 -227 -210.5 -379t-397.5 -152q-191 0 -318.5 80.5t-155.5 219.5l139 59
q14 -108 102 -168.5t231 -60.5q167 0 299.5 114.5t161.5 281.5l15 85q-170 -188 -427 -188q-200 0 -325.5 120t-125.5 312q0 90 29 179t85.5 166.5t131.5 137t173.5 94t206.5 34.5q126 0 221.5 -52t147.5 -147zM531 127q101 0 191.5 42.5t152.5 110.5t98 153t36 169
q0 134 -92 221.5t-232 87.5q-103 0 -193 -43t-149 -112t-93 -154t-34 -170q0 -136 87 -220.5t228 -84.5z" />
    <glyph glyph-name="Hcircumflex" unicode="&#x124;" horiz-adv-x="1362" 
d="M1041 1496l-148 212l-228 -212h-139l289 308h179l184 -308h-137zM1104 750l106 602h150l-240 -1352h-149l108 611h-758l-109 -611h-150l240 1352h150l-107 -602h759z" />
    <glyph glyph-name="hcircumflex" unicode="&#x125;" horiz-adv-x="1184" 
d="M589 1498l-149 212l-228 -212h-138l288 308h180l183 -308h-136zM732 1040q180 0 269.5 -118.5t54.5 -310.5l-110 -611h-148l107 599q29 156 -29.5 234.5t-190.5 78.5q-133 0 -234 -83t-133 -223l-106 -606h-150l259 1458l151 17l-103 -587q144 152 363 152z" />
    <glyph glyph-name="Hbar" unicode="&#x126;" horiz-adv-x="1362" 
d="M1322 1136h87l-20 -131h-91l-178 -1005h-149l108 611h-758l-109 -611h-150l179 1005h-88l20 131h91l38 216h150l-38 -216h758l38 216h150zM345 750h759l45 255h-759z" />
    <glyph glyph-name="hbar" unicode="&#x127;" horiz-adv-x="1184" 
d="M732 1040q180 0 269.5 -118.5t54.5 -310.5l-110 -611h-148l107 599q29 156 -29.5 234.5t-190.5 78.5q-133 0 -234 -83t-133 -223l-106 -606h-150l210 1184h-125l24 131h124l26 143l151 17l-29 -160h332l-23 -131h-331l-52 -296q144 152 363 152z" />
    <glyph glyph-name="Itilde" unicode="&#x128;" horiz-adv-x="454" 
d="M567 1524q-43 0 -87 19.5t-74 43t-62 43t-53 19.5q-43 0 -64.5 -33t-23.5 -80h-119q11 108 61.5 168t140.5 60q42 0 86 -19.5t74 -43t62.5 -43t54.5 -19.5q42 0 63.5 33.5t23.5 79.5h120q-12 -108 -62.5 -168t-140.5 -60zM212 0h-150l240 1352h150z" />
    <glyph glyph-name="itilde" unicode="&#x129;" horiz-adv-x="453" 
d="M508 1188q-43 0 -87.5 19.5t-74 43t-62 43t-53.5 19.5q-43 0 -64.5 -33t-23.5 -80h-118q11 108 61 168t140 60q42 0 86 -19.5t74 -42.5t63 -42.5t55 -19.5q42 0 63.5 33t23.5 79h120q-12 -108 -62.5 -168t-140.5 -60zM212 0h-150l181 1016h149z" />
    <glyph glyph-name="Imacron" unicode="&#x12a;" horiz-adv-x="454" 
d="M694 1553h-569l18 116h571zM212 0h-150l240 1352h150z" />
    <glyph glyph-name="imacron" unicode="&#x12b;" horiz-adv-x="453" 
d="M635 1218h-569l18 115h570zM212 0h-150l181 1016h149z" />
    <glyph glyph-name="Ibreve" unicode="&#x12c;" horiz-adv-x="454" 
d="M416 1490q-139 0 -207.5 88t-44.5 221h116q-14 -88 24.5 -141.5t121.5 -53.5t146 54.5t80 140.5h120q-25 -134 -121.5 -221.5t-234.5 -87.5zM212 0h-150l240 1352h150z" />
    <glyph glyph-name="ibreve" unicode="&#x12d;" horiz-adv-x="453" 
d="M356 1154q-139 0 -207.5 88t-44.5 221h116q-14 -88 25 -141.5t122 -53.5t146 54.5t80 140.5h120q-25 -134 -122 -221.5t-235 -87.5zM212 0h-150l181 1016h149z" />
    <glyph glyph-name="Iogonek" unicode="&#x12e;" horiz-adv-x="454" 
d="M452 1352l-240 -1352q-94 -44 -159.5 -106t-76.5 -131q-10 -58 21 -90.5t89 -32.5q27 0 72 10l10 -99q-51 -12 -114 -12q-105 0 -165.5 63t-42.5 166q26 154 221 257l235 1327h150z" />
    <glyph glyph-name="iogonek" unicode="&#x12f;" horiz-adv-x="453" 
d="M375 1414q46 0 75 -29t29 -73q0 -53 -35.5 -86.5t-85.5 -33.5q-45 0 -75 29t-30 71q0 53 35 87.5t87 34.5zM67 25l176 991h149l-180 -1016q-94 -44 -159.5 -106t-76.5 -131q-10 -58 21 -90.5t89 -32.5q27 0 72 10l10 -99q-51 -12 -114 -12q-105 0 -165.5 63t-42.5 166
q26 154 221 257z" />
    <glyph glyph-name="Idotaccent" unicode="&#x130;" horiz-adv-x="454" 
d="M418 1528q-45 0 -75.5 29t-30.5 71q0 53 35 87.5t87 34.5q46 0 75.5 -29t29.5 -73q0 -53 -35.5 -86.5t-85.5 -33.5zM212 0h-150l240 1352h150z" />
    <glyph glyph-name="dotlessi" unicode="&#x131;" horiz-adv-x="453" 
d="M212 0h-150l181 1016h149z" />
    <glyph glyph-name="IJ" unicode="&#x132;" horiz-adv-x="1522" 
d="M212 0h-150l240 1352h150zM864 -25q-178 0 -281.5 92t-103.5 254q0 59 15 119l159 60q-22 -99 -22 -158q0 -226 237 -226q134 0 229 85t120 224l163 927h150l-166 -935q-36 -207 -170 -324.5t-330 -117.5z" />
    <glyph glyph-name="ij" unicode="&#x133;" horiz-adv-x="903" 
d="M358 1192q-45 0 -75 29t-30 71q0 53 35 87.5t87 34.5q46 0 75 -29t29 -73q0 -53 -35.5 -86.5t-85.5 -33.5zM808 1192q-45 0 -75.5 29t-30.5 71q0 53 35 87.5t87 34.5q46 0 75.5 -29t29.5 -73q0 -53 -35.5 -86.5t-85.5 -33.5zM212 0h-150l181 1016h149zM369 -426
q-65 0 -129 16l28 125q54 -9 85 -9q57 0 87 30t41 92l211 1188h150l-213 -1205q-20 -114 -87 -175.5t-173 -61.5z" />
    <glyph glyph-name="Jcircumflex" unicode="&#x134;" horiz-adv-x="1068" 
d="M836 1496h-139l289 308h179l184 -308h-137l-148 212zM410 -25q-178 0 -281.5 92t-103.5 254q0 63 14 119l160 60q-23 -104 -23 -158q0 -226 238 -226q134 0 228.5 85t119.5 224l164 927h149l-166 -935q-36 -207 -169.5 -324.5t-329.5 -117.5z" />
    <glyph glyph-name="jcircumflex" unicode="&#x135;" horiz-adv-x="449" 
d="M148 1160h-138l289 308h179l184 -308h-137l-148 212zM-85 -426q-65 0 -129 16l29 125q54 -9 85 -9q57 0 87 30t41 92l211 1188h149l-213 -1205q-20 -114 -87 -175.5t-173 -61.5z" />
    <glyph glyph-name="uni0136" unicode="&#x136;" horiz-adv-x="1188" 
d="M1105 1352h201l-784 -668l564 -684h-192l-560 687l-122 -687h-150l240 1352h150l-117 -659zM506 -102q46 0 71 -29t25 -79q0 -87 -60.5 -172t-148.5 -150l-48 60q115 83 144 180h-4q-38 0 -61.5 24.5t-23.5 61.5q0 42 31 73t75 31z" />
    <glyph glyph-name="uni0137" unicode="&#x137;" horiz-adv-x="1035" 
d="M919 1016h206l-636 -496l456 -520h-188l-452 526l-93 -526h-150l259 1458l151 17l-167 -945zM453 -102q46 0 71 -29t25 -79q0 -87 -60.5 -172t-148.5 -150l-48 60q115 83 144 180h-4q-38 0 -61.5 24.5t-23.5 61.5q0 42 30.5 73t75.5 31z" />
    <glyph glyph-name="kgreenlandic" unicode="&#x138;" horiz-adv-x="1035" 
d="M919 1016h206l-636 -496l456 -520h-188l-452 526l-93 -526h-150l181 1016h149l-86 -486z" />
    <glyph glyph-name="Lacute" unicode="&#x139;" horiz-adv-x="1056" 
d="M579 1810h194l-303 -308h-140zM452 1352l-215 -1214h714l-25 -138h-864l240 1352h150z" />
    <glyph glyph-name="lacute" unicode="&#x13a;" horiz-adv-x="453" 
d="M468 1504h-140l249 308h194zM212 0h-150l259 1458l151 17z" />
    <glyph glyph-name="uni013B" unicode="&#x13b;" horiz-adv-x="1056" 
d="M452 1352l-215 -1214h714l-25 -138h-864l240 1352h150zM471 -102q46 0 71 -29t25 -79q0 -87 -60.5 -172t-148.5 -150l-48 60q116 84 145 180h-4q-38 0 -61.5 24.5t-23.5 61.5q0 43 30.5 73.5t74.5 30.5z" />
    <glyph glyph-name="uni013C" unicode="&#x13c;" horiz-adv-x="453" 
d="M62 0l259 1458l151 17l-260 -1475h-150zM104 -102q46 0 71.5 -29.5t25.5 -78.5q0 -87 -60.5 -172t-148.5 -150l-48 60q115 83 144 180h-4q-38 0 -61.5 24.5t-23.5 61.5q0 43 30.5 73.5t74.5 30.5z" />
    <glyph glyph-name="Lcaron" unicode="&#x13d;" horiz-adv-x="1056" 
d="M659 1486h148l-112 -429h-111zM452 1352l-215 -1214h714l-25 -138h-864l240 1352h150z" />
    <glyph glyph-name="lcaron" unicode="&#x13e;" horiz-adv-x="521" 
d="M604 1057h-111l75 429h148zM212 0h-150l259 1458l151 17z" />
    <glyph glyph-name="Ldot" unicode="&#x13f;" horiz-adv-x="1056" 
d="M452 1352l-215 -1214h714l-25 -138h-864l240 1352h150zM781 618q-48 0 -75.5 32.5t-18.5 88.5q7 39 40 66.5t73 27.5q52 0 78.5 -34.5t17.5 -85.5q-7 -39 -40.5 -67t-74.5 -28z" />
    <glyph glyph-name="ldot" unicode="&#x140;" horiz-adv-x="567" 
d="M212 0h-150l259 1458l151 17zM541 631q-42 0 -69.5 26t-27.5 68q0 50 34.5 85t83.5 35q43 0 69.5 -27t26.5 -69q0 -49 -34.5 -83.5t-82.5 -34.5z" />
    <glyph glyph-name="Lslash" unicode="&#x141;" horiz-adv-x="1056" 
d="M330 668l-93 -530h714l-25 -138h-864l108 606l-155 -58l19 122l157 59l111 623h150l-101 -562l262 98l-21 -121z" />
    <glyph glyph-name="lslash" unicode="&#x142;" horiz-adv-x="453" 
d="M368 882l154 72l-22 -132l-156 -72l-132 -750h-150l119 673l-155 -73l23 131l156 74l116 653l151 17z" />
    <glyph glyph-name="Nacute" unicode="&#x143;" horiz-adv-x="1362" 
d="M924 1502h-141l249 308h195zM211 0h-149l240 1352h157l550 -1104h8q16 110 53 302l141 802h149l-240 -1352h-156l-551 1096h-9q-10 -73 -51 -302z" />
    <glyph glyph-name="nacute" unicode="&#x144;" horiz-adv-x="1184" 
d="M885 1475h194l-303 -309h-140zM732 1040q180 0 269.5 -118.5t54.5 -310.5l-110 -611h-148l107 599q29 156 -29.5 234.5t-190.5 78.5q-137 0 -240 -87.5t-130 -236.5l-103 -588h-150l181 1016h128l-7 -133q144 157 368 157z" />
    <glyph glyph-name="uni0145" unicode="&#x145;" horiz-adv-x="1362" 
d="M1070 550l141 802h149l-240 -1352h-156l-551 1096h-9q-10 -73 -51 -302l-142 -794h-149l240 1352h157l550 -1104h8q16 110 53 302zM554 -102q46 0 71 -29t25 -79q0 -87 -60.5 -172t-148.5 -150l-48 60q116 84 145 180h-4q-38 0 -61.5 24.5t-23.5 61.5q0 43 30.5 73.5
t74.5 30.5z" />
    <glyph glyph-name="uni0146" unicode="&#x146;" horiz-adv-x="1184" 
d="M732 1040q180 0 269.5 -118.5t54.5 -310.5l-110 -611h-148l107 599q29 156 -29.5 234.5t-190.5 78.5q-137 0 -240 -87.5t-130 -236.5l-103 -588h-150l181 1016h128l-7 -133q144 157 368 157zM477 -102q46 0 71 -29t25 -79q0 -87 -60 -172t-148 -150l-49 60
q116 84 145 180h-4q-38 0 -61.5 24.5t-23.5 61.5q0 43 30.5 73.5t74.5 30.5z" />
    <glyph glyph-name="Ncaron" unicode="&#x147;" horiz-adv-x="1362" 
d="M949 1496h-178l-184 308h136l148 -212l229 212h138zM211 0h-149l240 1352h157l550 -1104h8q16 110 53 302l141 802h149l-240 -1352h-156l-551 1096h-9q-10 -73 -51 -302z" />
    <glyph glyph-name="ncaron" unicode="&#x148;" horiz-adv-x="1184" 
d="M1091 1468l-289 -308h-178l-185 308h136l149 -212l228 212h139zM732 1040q180 0 269.5 -118.5t54.5 -310.5l-110 -611h-148l107 599q29 156 -29.5 234.5t-190.5 78.5q-137 0 -240 -87.5t-130 -236.5l-103 -588h-150l181 1016h128l-7 -133q144 157 368 157z" />
    <glyph glyph-name="Eng" unicode="&#x14a;" horiz-adv-x="1362" 
d="M1211 1352h149l-222 -1256l-49 -285q-20 -113 -88.5 -175t-174.5 -62q-63 0 -127 16l29 125q54 -9 81 -9q111 0 132 122l29 162l-557 1106h-9q-10 -73 -51 -302l-142 -794h-149l240 1352h157l550 -1104h8q16 110 53 302z" />
    <glyph glyph-name="eng" unicode="&#x14b;" horiz-adv-x="1184" 
d="M732 1037q180 0 269 -118t55 -308l-142 -800q-20 -114 -87.5 -175.5t-174.5 -61.5q-63 0 -127 16l28 125q56 -9 82 -9q112 0 134 124l136 769q27 154 -30 231.5t-190 77.5q-139 0 -241 -86.5t-128 -229.5l-104 -592h-150l181 1016h128l-7 -134q144 155 368 155z" />
    <glyph glyph-name="Omacron" unicode="&#x14c;" horiz-adv-x="1560" 
d="M1282 1553h-633l21 116h634zM698 -25q-137 0 -252 46.5t-191.5 127t-118.5 188.5t-42 232q0 119 39.5 237t114.5 220t175 180.5t230 124t271 45.5q183 0 322 -80t211 -213t72 -297q0 -150 -63 -296t-171 -260t-265 -184.5t-332 -70.5zM710 116q139 0 264 57t210.5 150
t136 212t50.5 242q0 199 -126.5 329t-332.5 130q-138 0 -263 -57t-210.5 -149t-136 -210.5t-50.5 -240.5q0 -201 126 -332t332 -131z" />
    <glyph glyph-name="omacron" unicode="&#x14d;" horiz-adv-x="1236" 
d="M1059 1206h-633l20 116h634zM535 -25q-214 0 -342 125t-128 321q0 118 49.5 231t133 199t203 138t251.5 52q210 0 340 -124t130 -321q0 -157 -82 -299.5t-230 -232t-325 -89.5zM544 108q131 0 241.5 68.5t172 179t61.5 233.5q0 143 -89.5 231t-238.5 88
q-131 0 -241 -68.5t-171 -179t-61 -233.5q0 -143 89 -231t237 -88z" />
    <glyph glyph-name="Obreve" unicode="&#x14e;" horiz-adv-x="1560" 
d="M969 1490q-139 0 -207.5 88t-44.5 221h116q-14 -88 24.5 -141.5t121.5 -53.5t146 54.5t80 140.5h120q-25 -134 -121.5 -221.5t-234.5 -87.5zM698 -25q-137 0 -252 46.5t-191.5 127t-118.5 188.5t-42 232q0 119 39.5 237t114.5 220t175 180.5t230 124t271 45.5
q183 0 322 -80t211 -213t72 -297q0 -150 -63 -296t-171 -260t-265 -184.5t-332 -70.5zM710 116q139 0 264 57t210.5 150t136 212t50.5 242q0 199 -126.5 329t-332.5 130q-138 0 -263 -57t-210.5 -149t-136 -210.5t-50.5 -240.5q0 -201 126 -332t332 -131z" />
    <glyph glyph-name="obreve" unicode="&#x14f;" horiz-adv-x="1236" 
d="M745 1143q-139 0 -207 87.5t-44 221.5h115q-14 -88 25 -142t122 -54q82 0 145.5 55t80.5 141h120q-25 -134 -122 -221.5t-235 -87.5zM535 -25q-214 0 -342 125t-128 321q0 118 49.5 231t133 199t203 138t251.5 52q210 0 340 -124t130 -321q0 -157 -82 -299.5t-230 -232
t-325 -89.5zM544 108q131 0 241.5 68.5t172 179t61.5 233.5q0 143 -89.5 231t-238.5 88q-131 0 -241 -68.5t-171 -179t-61 -233.5q0 -143 89 -231t237 -88z" />
    <glyph glyph-name="Ohungarumlaut" unicode="&#x150;" horiz-adv-x="1560" 
d="M868 1502h-138l234 308h182zM1179 1502h-139l234 308h182zM698 -25q-137 0 -252 46.5t-191.5 127t-118.5 188.5t-42 232q0 119 39.5 237t114.5 220t175 180.5t230 124t271 45.5q183 0 322 -80t211 -213t72 -297q0 -150 -63 -296t-171 -260t-265 -184.5t-332 -70.5z
M710 116q139 0 264 57t210.5 150t136 212t50.5 242q0 199 -126.5 329t-332.5 130q-138 0 -263 -57t-210.5 -149t-136 -210.5t-50.5 -240.5q0 -201 126 -332t332 -131z" />
    <glyph glyph-name="ohungarumlaut" unicode="&#x151;" horiz-adv-x="1236" 
d="M645 1155h-138l233 308h183zM955 1155h-138l234 308h182zM535 -25q-214 0 -342 125t-128 321q0 118 49.5 231t133 199t203 138t251.5 52q210 0 340 -124t130 -321q0 -157 -82 -299.5t-230 -232t-325 -89.5zM544 108q131 0 241.5 68.5t172 179t61.5 233.5q0 143 -89.5 231
t-238.5 88q-131 0 -241 -68.5t-171 -179t-61 -233.5q0 -143 89 -231t237 -88z" />
    <glyph glyph-name="OE" unicode="&#x152;" horiz-adv-x="1927" 
d="M1985 1352l-26 -139h-755l-81 -463h694l-25 -138h-693l-83 -474h754l-25 -138h-1047q-141 0 -256.5 43t-191.5 118t-117 176.5t-41 219.5q0 165 67 312.5t180.5 253t270.5 167.5t330 62h1045zM718 138h149l188 1075h-130q-141 0 -267 -51.5t-215 -138.5t-141 -205
t-52 -248q0 -191 126.5 -311.5t341.5 -120.5z" />
    <glyph glyph-name="oe" unicode="&#x153;" horiz-adv-x="2166" 
d="M2085 462h-927q-2 -24 -2 -38q0 -148 85 -233t235 -85q125 0 238 59.5t177 161.5l119 -77q-90 -128 -233.5 -201.5t-310.5 -73.5q-153 0 -265 69t-159 192q-87 -119 -219 -190t-288 -71q-214 0 -342 125t-128 321q0 117 48.5 229.5t132 199t203.5 139t253 52.5
q152 0 263.5 -69.5t161.5 -190.5q85 120 217 190t294 70q212 0 338 -124.5t126 -320.5q0 -85 -17 -134zM1629 910q-158 0 -275.5 -90.5t-167.5 -228.5h765v15q0 134 -89 219t-233 85zM544 108q99 0 188 41t151.5 108t99 154.5t36.5 177.5q0 143 -89.5 231t-238.5 88
q-130 0 -240 -69.5t-171.5 -179.5t-61.5 -232q0 -143 89 -231t237 -88z" />
    <glyph glyph-name="Racute" unicode="&#x154;" horiz-adv-x="1226" 
d="M953 1810h195l-303 -308h-140zM302 1352h543q211 0 320.5 -124.5t75.5 -318.5q-25 -145 -130 -251t-261 -147l229 -511h-170l-215 489h-17h-379l-86 -489h-150zM1087 928q23 126 -44.5 205.5t-205.5 79.5h-411l-103 -586h384q155 0 255.5 83.5t124.5 217.5z" />
    <glyph glyph-name="racute" unicode="&#x155;" horiz-adv-x="679" 
d="M667 1475h194l-303 -309h-140zM371 1016l-13 -153q51 78 134.5 124t187.5 46h61l-27 -154h-90q-123 0 -202 -69t-100 -188l-110 -622h-150l181 1016h128z" />
    <glyph glyph-name="uni0156" unicode="&#x156;" horiz-adv-x="1226" 
d="M302 1352h543q211 0 320.5 -124.5t75.5 -318.5q-25 -145 -130 -251t-261 -147l229 -511h-170l-215 489h-17h-379l-86 -489h-150zM1087 928q23 126 -44.5 205.5t-205.5 79.5h-411l-103 -586h384q155 0 255.5 83.5t124.5 217.5zM482 -102q46 0 71.5 -29.5t25.5 -78.5
q0 -87 -60.5 -172t-148.5 -150l-48 60q115 83 144 180h-4q-38 0 -61.5 24.5t-23.5 61.5q0 43 30.5 73.5t74.5 30.5z" />
    <glyph glyph-name="uni0157" unicode="&#x157;" horiz-adv-x="679" 
d="M680 1033h61l-27 -154h-90q-123 0 -202 -69t-100 -188l-110 -622h-150l181 1016h128l-13 -153q51 78 134.5 124t187.5 46zM121 -102q46 0 71 -29t25 -79q0 -87 -60.5 -172t-148.5 -150l-48 60q115 83 144 180h-4q-38 0 -61.5 24.5t-23.5 61.5q0 42 30.5 73t75.5 31z" />
    <glyph glyph-name="Rcaron" unicode="&#x158;" horiz-adv-x="1226" 
d="M1159 1804l-289 -308h-178l-184 308h136l149 -212l228 212h138zM302 1352h543q211 0 320.5 -124.5t75.5 -318.5q-25 -145 -130 -251t-261 -147l229 -511h-170l-215 489h-17h-379l-86 -489h-150zM1087 928q23 126 -44.5 205.5t-205.5 79.5h-411l-103 -586h384
q155 0 255.5 83.5t124.5 217.5z" />
    <glyph glyph-name="rcaron" unicode="&#x159;" horiz-adv-x="679" 
d="M872 1468l-288 -308h-178l-185 308h136l149 -212l228 212h138zM371 1016l-13 -153q51 78 134.5 124t187.5 46h61l-27 -154h-90q-123 0 -202 -69t-100 -188l-110 -622h-150l181 1016h128z" />
    <glyph glyph-name="Sacute" unicode="&#x15a;" horiz-adv-x="1203" 
d="M837 1502h-141l249 308h195zM529 -25q-207 0 -339 91.5t-150 268.5l153 57q-1 -143 91.5 -211t250.5 -70q111 -1 203 30t150 96.5t58 155.5q0 144 -196 190l-285 68q-131 31 -201 113t-70 200q0 125 73.5 220t194.5 143.5t270 48.5q201 0 328.5 -93t141.5 -266l-152 -58
q1 143 -89.5 211.5t-245.5 70.5q-160 2 -266 -70.5t-106 -199.5q0 -83 45 -124.5t147 -65.5l283 -66q138 -33 208 -114t70 -203q0 -133 -79 -230.5t-206 -145t-282 -47.5z" />
    <glyph glyph-name="sacute" unicode="&#x15b;" horiz-adv-x="1024" 
d="M690 1170h-140l249 309h194zM457 -25q-189 0 -301.5 79t-125.5 225l139 43q8 -213 289 -217q81 -1 148.5 16.5t113 61t45.5 106.5q0 103 -130 130l-265 55q-106 22 -165 86t-59 166q0 147 121.5 231t310.5 84q184 0 293 -79.5t121 -213.5l-141 -43q-5 201 -277 205
q-79 1 -140.5 -15.5t-102.5 -57t-41 -102.5q0 -58 33 -87.5t93 -41.5l271 -55q225 -47 225 -245q0 -155 -127 -243t-328 -88z" />
    <glyph glyph-name="Scircumflex" unicode="&#x15c;" horiz-adv-x="1203" 
d="M581 1496h-139l289 308h179l184 -308h-137l-148 212zM529 -25q-207 0 -339 91.5t-150 268.5l153 57q-1 -143 91.5 -211t250.5 -70q111 -1 203 30t150 96.5t58 155.5q0 144 -196 190l-285 68q-131 31 -201 113t-70 200q0 125 73.5 220t194.5 143.5t270 48.5
q201 0 328.5 -93t141.5 -266l-152 -58q1 143 -89.5 211.5t-245.5 70.5q-160 2 -266 -70.5t-106 -199.5q0 -83 45 -124.5t147 -65.5l283 -66q138 -33 208 -114t70 -203q0 -133 -79 -230.5t-206 -145t-282 -47.5z" />
    <glyph glyph-name="scircumflex" unicode="&#x15d;" horiz-adv-x="1024" 
d="M434 1164h-138l289 309h179l183 -309h-136l-148 212zM457 -25q-189 0 -301.5 79t-125.5 225l139 43q8 -213 289 -217q81 -1 148.5 16.5t113 61t45.5 106.5q0 103 -130 130l-265 55q-106 22 -165 86t-59 166q0 147 121.5 231t310.5 84q184 0 293 -79.5t121 -213.5
l-141 -43q-5 201 -277 205q-79 1 -140.5 -15.5t-102.5 -57t-41 -102.5q0 -58 33 -87.5t93 -41.5l271 -55q225 -47 225 -245q0 -155 -127 -243t-328 -88z" />
    <glyph glyph-name="Scedilla" unicode="&#x15e;" horiz-adv-x="1203" 
d="M529 -25q-207 0 -339 91.5t-150 268.5l153 57q-1 -143 91.5 -211t250.5 -70q111 -1 203 30t150 96.5t58 155.5q0 144 -196 190l-285 68q-131 31 -201 113t-70 200q0 125 73.5 220t194.5 143.5t270 48.5q201 0 328.5 -93t141.5 -266l-152 -58q1 143 -89.5 211.5
t-245.5 70.5q-160 2 -266 -70.5t-106 -199.5q0 -83 45 -124.5t147 -65.5l283 -66q138 -33 208 -114t70 -203q0 -133 -79 -230.5t-206 -145t-282 -47.5zM426 -402h-182l199 328h132z" />
    <glyph glyph-name="scedilla" unicode="&#x15f;" horiz-adv-x="1024" 
d="M457 -25q-189 0 -301.5 79t-125.5 225l139 43q8 -213 289 -217q81 -1 148.5 16.5t113 61t45.5 106.5q0 103 -130 130l-265 55q-106 22 -165 86t-59 166q0 147 121.5 231t310.5 84q184 0 293 -79.5t121 -213.5l-141 -43q-5 201 -277 205q-79 1 -140.5 -15.5t-102.5 -57
t-41 -102.5q0 -58 33 -87.5t93 -41.5l271 -55q225 -47 225 -245q0 -155 -127 -243t-328 -88zM353 -402h-182l200 328h132z" />
    <glyph glyph-name="Scaron" unicode="&#x160;" horiz-adv-x="1203" 
d="M862 1496h-178l-184 308h136l148 -212l229 212h138zM529 -25q-207 0 -339 91.5t-150 268.5l153 57q-1 -143 91.5 -211t250.5 -70q111 -1 203 30t150 96.5t58 155.5q0 144 -196 190l-285 68q-131 31 -201 113t-70 200q0 125 73.5 220t194.5 143.5t270 48.5
q201 0 328.5 -93t141.5 -266l-152 -58q1 143 -89.5 211.5t-245.5 70.5q-160 2 -266 -70.5t-106 -199.5q0 -83 45 -124.5t147 -65.5l283 -66q138 -33 208 -114t70 -203q0 -133 -79 -230.5t-206 -145t-282 -47.5z" />
    <glyph glyph-name="scaron" unicode="&#x161;" horiz-adv-x="1024" 
d="M716 1164h-178l-185 309h136l149 -212l228 212h139zM457 -25q-189 0 -301.5 79t-125.5 225l139 43q8 -213 289 -217q81 -1 148.5 16.5t113 61t45.5 106.5q0 103 -130 130l-265 55q-106 22 -165 86t-59 166q0 147 121.5 231t310.5 84q184 0 293 -79.5t121 -213.5l-141 -43
q-5 201 -277 205q-79 1 -140.5 -15.5t-102.5 -57t-41 -102.5q0 -58 33 -87.5t93 -41.5l271 -55q225 -47 225 -245q0 -155 -127 -243t-328 -88z" />
    <glyph glyph-name="uni0162" unicode="&#x162;" horiz-adv-x="1106" 
d="M180 1352h1046l-26 -139h-447l-215 -1213h-150l215 1213h-448zM362 -402h-182l200 328h132z" />
    <glyph glyph-name="uni0163" unicode="&#x163;" horiz-adv-x="750" 
d="M457 -14q-153 0 -218.5 88t-38.5 238l101 573h-214l24 131h212l112 284h88l-49 -284h305l-22 -131h-306l-100 -560q-20 -110 11 -159.5t123 -49.5q72 0 138 17v-127q-100 -20 -166 -20zM257 -402h-182l199 328h133z" />
    <glyph glyph-name="Tcaron" unicode="&#x164;" horiz-adv-x="1106" 
d="M1108 1804l-289 -308h-178l-184 308h136l148 -212l229 212h138zM180 1352h1046l-26 -139h-447l-215 -1213h-150l215 1213h-448z" />
    <glyph glyph-name="tcaron" unicode="&#x165;" horiz-adv-x="750" 
d="M682 1099h-112l76 429h148zM457 -14q-153 0 -218.5 88t-38.5 238l101 573h-214l24 131h212l112 284h88l-49 -284h305l-22 -131h-306l-100 -560q-20 -110 11 -159.5t123 -49.5q72 0 138 17v-127q-100 -20 -166 -20z" />
    <glyph glyph-name="Tbar" unicode="&#x166;" horiz-adv-x="1106" 
d="M1226 1352l-26 -139h-447l-80 -453h273l-26 -131h-271l-111 -629h-150l112 629h-274l27 131h270l80 453h-448l25 139h1046z" />
    <glyph glyph-name="tbar" unicode="&#x167;" horiz-adv-x="750" 
d="M779 1016l-22 -131h-306l-45 -256h191l-19 -131h-196l-31 -173q-20 -110 11 -159.5t123 -49.5q72 0 138 17v-127q-100 -20 -166 -20q-153 0 -218.5 88t-38.5 238l32 186h-157l19 131h162l45 256h-214l24 131h212l112 284h88l-49 -284h305z" />
    <glyph glyph-name="Utilde" unicode="&#x168;" horiz-adv-x="1332" 
d="M1007 1524q-43 0 -87.5 19.5t-74 43t-62 43t-53.5 19.5q-43 0 -64.5 -33t-23.5 -80h-119q11 108 61.5 168t140.5 60q42 0 86 -19.5t74 -43t62.5 -43t54.5 -19.5q42 0 64 33.5t24 79.5h119q-12 -108 -62 -168t-140 -60zM583 -25q-245 0 -363 150.5t-72 412.5l144 814h149
l-147 -824q-36 -199 41.5 -306.5t254.5 -107.5q181 0 301 110t156 313l143 815h149l-144 -824q-46 -262 -212.5 -407.5t-399.5 -145.5z" />
    <glyph glyph-name="utilde" unicode="&#x169;" horiz-adv-x="1180" 
d="M871 1188q-43 0 -87 19.5t-74 43t-62 43t-53 19.5q-43 0 -64.5 -33t-23.5 -80h-119q11 108 61.5 168t140.5 60q42 0 86 -19.5t74 -42.5t62.5 -42.5t54.5 -19.5q42 0 63.5 33t23.5 79h120q-12 -108 -62.5 -168t-140.5 -60zM505 -20q-205 0 -306 118.5t-65 325.5l105 592
h149l-108 -606q-26 -140 36 -219t196 -79q138 0 233.5 81.5t121.5 224.5l107 598h149l-106 -601q-36 -206 -173 -320.5t-339 -114.5z" />
    <glyph glyph-name="Umacron" unicode="&#x16a;" horiz-adv-x="1332" 
d="M1168 1553h-632l20 116h634zM583 -25q-245 0 -363 150.5t-72 412.5l144 814h149l-147 -824q-36 -199 41.5 -306.5t254.5 -107.5q181 0 301 110t156 313l143 815h149l-144 -824q-46 -262 -212.5 -407.5t-399.5 -145.5z" />
    <glyph glyph-name="umacron" unicode="&#x16b;" horiz-adv-x="1180" 
d="M1033 1218h-633l21 115h634zM505 -20q-205 0 -306 118.5t-65 325.5l105 592h149l-108 -606q-26 -140 36 -219t196 -79q138 0 233.5 81.5t121.5 224.5l107 598h149l-106 -601q-36 -206 -173 -320.5t-339 -114.5z" />
    <glyph glyph-name="Ubreve" unicode="&#x16c;" horiz-adv-x="1332" 
d="M855 1490q-139 0 -207.5 88t-44.5 221h116q-14 -88 24.5 -141.5t121.5 -53.5t146.5 54.5t80.5 140.5h119q-25 -134 -121.5 -221.5t-234.5 -87.5zM583 -25q-245 0 -363 150.5t-72 412.5l144 814h149l-147 -824q-36 -199 41.5 -306.5t254.5 -107.5q181 0 301 110t156 313
l143 815h149l-144 -824q-46 -262 -212.5 -407.5t-399.5 -145.5z" />
    <glyph glyph-name="ubreve" unicode="&#x16d;" horiz-adv-x="1180" 
d="M720 1154q-139 0 -207.5 88t-44.5 221h116q-14 -88 24.5 -141.5t121.5 -53.5t146 54.5t80 140.5h120q-25 -134 -121.5 -221.5t-234.5 -87.5zM505 -20q-205 0 -306 118.5t-65 325.5l105 592h149l-108 -606q-26 -140 36 -219t196 -79q138 0 233.5 81.5t121.5 224.5l107 598
h149l-106 -601q-36 -206 -173 -320.5t-339 -114.5z" />
    <glyph glyph-name="Uring" unicode="&#x16e;" horiz-adv-x="1332" 
d="M842 1467q-86 0 -140.5 54t-54.5 137q0 103 76 177t179 74q86 0 140.5 -54t54.5 -137q0 -103 -76.5 -177t-178.5 -74zM852 1566q54 0 96 42t42 102q0 43 -27.5 71.5t-70.5 28.5q-55 0 -96.5 -42t-41.5 -102q0 -43 27.5 -71.5t70.5 -28.5zM583 -25q-245 0 -363 150.5
t-72 412.5l144 814h149l-147 -824q-36 -199 41.5 -306.5t254.5 -107.5q181 0 301 110t156 313l143 815h149l-144 -824q-46 -262 -212.5 -407.5t-399.5 -145.5z" />
    <glyph glyph-name="uring" unicode="&#x16f;" horiz-adv-x="1180" 
d="M707 1132q-86 0 -140.5 53.5t-54.5 136.5q0 103 76 177t179 74q86 0 140.5 -54t54.5 -137q0 -103 -76.5 -176.5t-178.5 -73.5zM717 1230q54 0 96 42t42 102q0 43 -28 72t-70 29q-55 0 -97 -42.5t-42 -102.5q0 -43 28 -71.5t71 -28.5zM505 -20q-205 0 -306 118.5
t-65 325.5l105 592h149l-108 -606q-26 -140 36 -219t196 -79q138 0 233.5 81.5t121.5 224.5l107 598h149l-106 -601q-36 -206 -173 -320.5t-339 -114.5z" />
    <glyph glyph-name="Uhungarumlaut" unicode="&#x170;" horiz-adv-x="1332" 
d="M755 1502h-139l234 308h182zM1065 1502h-138l233 308h182zM583 -25q-245 0 -363 150.5t-72 412.5l144 814h149l-147 -824q-36 -199 41.5 -306.5t254.5 -107.5q181 0 301 110t156 313l143 815h149l-144 -824q-46 -262 -212.5 -407.5t-399.5 -145.5z" />
    <glyph glyph-name="uhungarumlaut" unicode="&#x171;" horiz-adv-x="1180" 
d="M620 1166h-139l234 309h182zM930 1166h-138l233 309h182zM505 -20q-205 0 -306 118.5t-65 325.5l105 592h149l-108 -606q-26 -140 36 -219t196 -79q138 0 233.5 81.5t121.5 224.5l107 598h149l-106 -601q-36 -206 -173 -320.5t-339 -114.5z" />
    <glyph glyph-name="Uogonek" unicode="&#x172;" horiz-adv-x="1332" 
d="M1047 537l143 815h149l-144 -824q-26 -146 -90 -253.5t-171 -194.5q-153 -123 -204 -192t-51 -131q0 -46 31.5 -72.5t80.5 -26.5q29 0 72 10l8 -99q-51 -12 -113 -12q-93 0 -151 50.5t-58 137.5q0 130 139 240q-60 -10 -105 -10q-245 0 -363 150.5t-72 412.5l144 814h149
l-147 -824q-36 -199 41.5 -306.5t254.5 -107.5q181 0 301 110t156 313z" />
    <glyph glyph-name="uogonek" unicode="&#x173;" horiz-adv-x="1180" 
d="M867 418l107 598h149l-106 -595q-21 -119 -70.5 -206t-140.5 -155q-98 -74 -149.5 -132t-63 -91.5t-11.5 -77.5q0 -48 30.5 -74.5t80.5 -26.5q31 0 74 10l8 -99q-51 -12 -113 -12q-93 0 -151 50.5t-58 137.5q0 68 38.5 130.5t110.5 111.5q-46 -7 -97 -7
q-205 0 -306 118.5t-65 325.5l105 592h149l-108 -606q-26 -140 36 -219t196 -79q138 0 233.5 81.5t121.5 224.5z" />
    <glyph glyph-name="Wcircumflex" unicode="&#x174;" horiz-adv-x="1830" 
d="M903 1496h-138l289 308h179l183 -308h-136l-148 212zM502 0h-197l-109 1352h160l69 -1190h5l555 1190h162l133 -1190h5l482 1190h167l-576 -1352h-197l-133 1118h-4z" />
    <glyph glyph-name="wcircumflex" unicode="&#x175;" horiz-adv-x="1527" 
d="M691 1160h-138l289 308h179l183 -308h-136l-148 212zM453 0h-189l-134 1016h163l81 -863h4l376 863h202l61 -863h4l384 863h173l-488 -1016h-190l-72 855h-4z" />
    <glyph glyph-name="Ycircumflex" unicode="&#x176;" horiz-adv-x="1150" 
d="M560 1496h-138l289 308h179l183 -308h-136l-149 212zM558 0h-149l88 488l-347 864h159l276 -730h4l537 730h176l-656 -864z" />
    <glyph glyph-name="ycircumflex" unicode="&#x177;" horiz-adv-x="1182" 
d="M891 1160l-149 212l-228 -212h-138l289 308h179l183 -308h-136zM889 544l83 472h149l-176 -992q-35 -197 -188.5 -323.5t-356.5 -126.5q-165 0 -277.5 83t-137.5 217l139 59q6 -108 82 -168.5t195 -60.5q151 0 261 89t134 224l21 120q-144 -152 -366 -152
q-178 0 -267.5 118t-55.5 308l109 605h149l-108 -593q-28 -154 29.5 -231.5t190.5 -77.5q139 0 242 87t129 237l19 106h1z" />
    <glyph glyph-name="Ydieresis" unicode="&#x178;" horiz-adv-x="1150" 
d="M536 1530q-42 0 -69.5 26t-27.5 64q0 48 33 79.5t80 31.5q43 0 69.5 -26t26.5 -66q0 -48 -33.5 -78.5t-78.5 -30.5zM972 1530q-42 0 -69 26t-27 64q0 48 32.5 79.5t79.5 31.5q43 0 69.5 -26t26.5 -66q0 -48 -33.5 -78.5t-78.5 -30.5zM558 0h-149l88 488l-347 864h159
l276 -730h4l537 730h176l-656 -864z" />
    <glyph glyph-name="Zacute" unicode="&#x179;" horiz-adv-x="1097" 
d="M899 1810h195l-303 -308h-141zM231 1352h935l-23 -127l-949 -1087h768l-25 -138h-955l23 127l948 1086h-747z" />
    <glyph glyph-name="zacute" unicode="&#x17a;" horiz-adv-x="945" 
d="M765 1475h194l-303 -309h-140zM152 1016h822l-22 -121l-766 -763h631l-23 -132h-823l22 121l763 764h-628z" />
    <glyph glyph-name="Zdotaccent" unicode="&#x17b;" horiz-adv-x="1097" 
d="M740 1528q-45 0 -75 29t-30 71q0 53 35 87.5t87 34.5q46 0 75 -29t29 -73q0 -53 -35.5 -86.5t-85.5 -33.5zM231 1352h935l-23 -127l-949 -1087h768l-25 -138h-955l23 127l948 1086h-747z" />
    <glyph glyph-name="zdotaccent" unicode="&#x17c;" horiz-adv-x="945" 
d="M606 1192q-45 0 -75 29t-30 71q0 53 35 87.5t87 34.5q46 0 75 -29t29 -73q0 -53 -35.5 -86.5t-85.5 -33.5zM152 1016h822l-22 -121l-766 -763h631l-23 -132h-823l22 121l763 764h-628z" />
    <glyph glyph-name="Zcaron" unicode="&#x17d;" horiz-adv-x="1097" 
d="M1105 1804l-289 -308h-178l-184 308h136l148 -212l229 212h138zM231 1352h935l-23 -127l-949 -1087h768l-25 -138h-955l23 127l948 1086h-747z" />
    <glyph glyph-name="zcaron" unicode="&#x17e;" horiz-adv-x="945" 
d="M971 1468l-289 -308h-178l-185 308h137l148 -212l229 212h138zM152 1016h822l-22 -121l-766 -763h631l-23 -132h-823l22 121l763 764h-628z" />
    <glyph glyph-name="uni0180" unicode="&#x180;" horiz-adv-x="1307" 
d="M796 1040q199 0 324 -122t125 -318q0 -115 -47 -227t-128 -200.5t-200 -143t-253 -54.5q-128 0 -224.5 54t-147.5 153l-54 -182h-128l210 1184h-125l24 131h124l26 143l151 17l-29 -160h332l-23 -131h-331l-61 -340q81 92 192 144t243 52zM621 108q103 0 193 44
t150 113.5t94 155.5t34 172q0 141 -85 228t-225 87q-134 0 -247.5 -73t-175.5 -183.5t-62 -226.5q0 -139 91.5 -228t232.5 -89z" />
    <glyph glyph-name="uni0186" unicode="&#x186;" horiz-adv-x="1475" 
d="M841 1376q137 0 250.5 -46.5t189.5 -127t118 -188.5t42 -232q0 -119 -39.5 -237t-114.5 -220t-174.5 -180.5t-229.5 -124t-270 -45.5q-213 0 -365.5 103t-210.5 276l145 65q42 -138 160 -220.5t281 -82.5q139 0 263.5 57t210.5 149t136 210.5t50 240.5q0 201 -126 332
t-328 131q-162 0 -312.5 -87t-241.5 -228l-127 80q118 172 303.5 273.5t389.5 101.5z" />
    <glyph glyph-name="uni0189" unicode="&#x189;" horiz-adv-x="1351" 
d="M302 1352h410q141 0 256.5 -43t192 -118t117.5 -176.5t41 -219.5q0 -165 -67 -312.5t-180.5 -253t-270.5 -167.5t-330 -62h-409l109 610h-163l25 132h162zM238 138h248q187 0 343 87.5t244 235t88 320.5q0 191 -126.5 311.5t-341.5 120.5h-268l-82 -471h304l-24 -132
h-304z" />
    <glyph glyph-name="uni018E" unicode="&#x18e;" horiz-adv-x="1171" 
d="M218 1213l23 139h924l-236 -1352h-925l24 138h776l84 474h-714l23 138h714l82 463h-775z" />
    <glyph glyph-name="uni018F" unicode="&#x18f;" horiz-adv-x="1560" 
d="M930 1376q266 0 433.5 -163.5t167.5 -415.5q0 -97 -28.5 -196t-79.5 -190t-127 -171t-166.5 -138.5t-203 -92.5t-231.5 -34q-132 0 -245 44.5t-191.5 122.5t-122.5 186t-44 233q0 19 1 36.5t2 29t3.5 30t4 26.5t6 31.5t6.5 34.5l1254 -5q2 32 2 48q0 194 -127.5 319.5
t-324.5 125.5q-167 0 -318 -87.5t-237 -225.5l-127 82q116 168 301.5 269t391.5 101zM701 114q115 0 222 41t187.5 110.5t140 157.5t90.5 185h-1096q-1 -13 -1 -39q0 -199 126.5 -327t330.5 -128z" />
    <glyph glyph-name="uni0190" unicode="&#x190;" horiz-adv-x="1127" 
d="M477 108q150 0 258.5 61.5t165.5 184.5l124 -75q-83 -154 -229 -229t-332 -75q-183 0 -302 86t-119 243q0 48 9 93t33.5 94.5t63.5 89.5t103.5 73t148.5 49q-99 28 -151 95t-52 167q0 129 70.5 224.5t185 143t254.5 47.5q180 0 295.5 -77.5t148.5 -232.5l-143 -60
q-13 124 -90 181.5t-218 57.5q-160 0 -258 -77.5t-98 -216.5q0 -189 275 -189h159l-23 -137h-163q-97 0 -171 -22t-116 -55t-68 -77.5t-34.5 -82.5t-8.5 -77q0 -100 77 -153.5t205 -53.5z" />
    <glyph glyph-name="florin" unicode="&#x192;" horiz-adv-x="1018" 
d="M995 1352h122l-23 -131h-110q-65 0 -107.5 -10.5t-71.5 -35.5t-46 -57.5t-34 -87.5l-92 -292h290l-23 -125h-307l-94 -297q-55 -171 -149.5 -243.5t-266.5 -72.5h-122l24 131h109q64 0 106.5 10t71.5 35t46.5 58t34.5 88l92 291h-289l22 125h306l94 297q53 169 147.5 243
t269.5 74z" />
    <glyph glyph-name="uni0197" unicode="&#x197;" horiz-adv-x="454" 
d="M347 763h225l-23 -132h-225l-112 -631h-150l112 631h-225l23 132h226l104 589h150z" />
    <glyph glyph-name="uni019D" unicode="&#x19d;" horiz-adv-x="1369" 
d="M-77 -426q-63 0 -127 16l29 125q54 -9 81 -9q111 0 132 124l270 1522h157l550 -1104h8q6 46 52 302l143 802h148l-240 -1352h-156l-552 1096h-8q-9 -69 -51 -302l-174 -983q-20 -113 -88 -175t-174 -62z" />
    <glyph glyph-name="Ohorn" unicode="&#x1a0;" horiz-adv-x="1615" 
d="M1574 1293l31 166h136l-35 -198q-37 -197 -236 -207q59 -124 59 -268q0 -150 -63 -296t-171 -260t-265 -184.5t-332 -70.5q-137 0 -252 46.5t-191.5 127t-118.5 188.5t-42 232q0 119 39.5 237t114.5 220t175 180.5t230 124t271 45.5q150 0 270 -53t200 -149h57
q61 0 87 29.5t36 89.5zM710 116q139 0 264 57t210.5 150t136 212t50.5 242q0 199 -126.5 329t-332.5 130q-138 0 -263 -57t-210.5 -149t-136 -210.5t-50.5 -240.5q0 -201 126 -332t332 -131z" />
    <glyph glyph-name="ohorn" unicode="&#x1a1;" horiz-adv-x="1337" 
d="M1248 986l31 166h136l-35 -199q-18 -97 -74 -148.5t-157 -56.5q23 -72 23 -152q0 -157 -82 -299.5t-230 -232t-325 -89.5q-214 0 -342 125t-128 321q0 118 49.5 231t133 199t203 138t251.5 52q125 0 224.5 -46t160.5 -129h38q61 0 87 30t36 90zM544 108q131 0 241.5 68.5
t172 179t61.5 233.5q0 143 -89.5 231t-238.5 88q-131 0 -241 -68.5t-171 -179t-61 -233.5q0 -143 89 -231t237 -88z" />
    <glyph glyph-name="uni01A9" unicode="&#x1a9;" horiz-adv-x="1080" 
d="M231 1352h907l-26 -139h-717l349 -537l-543 -538h723l-26 -138h-914l21 127l555 557l-350 541z" />
    <glyph glyph-name="Uhorn" unicode="&#x1af;" horiz-adv-x="1436" 
d="M1468 1293l31 166h136l-34 -198q-19 -104 -82 -155.5t-176 -51.5h-56l-92 -526q-46 -262 -212.5 -407.5t-399.5 -145.5q-245 0 -363 150.5t-72 412.5l144 814h149l-147 -824q-36 -199 41.5 -306.5t254.5 -107.5q181 0 301 110t156 313l143 815h149l-31 -178h38
q61 0 86.5 29.5t35.5 89.5z" />
    <glyph glyph-name="uhorn" unicode="&#x1b0;" horiz-adv-x="1281" 
d="M1248 986l31 166h136l-35 -199q-19 -104 -82 -155.5t-175 -51.5h-48l-58 -331q-36 -205 -172.5 -320t-339.5 -115q-205 0 -306 118.5t-65 325.5l105 592h149l-108 -606q-26 -140 36 -219t196 -79q138 0 233.5 81.5t121.5 224.5l107 598h149l-26 -150h28q61 0 87 30t36 90
z" />
    <glyph glyph-name="uni01C4" unicode="&#x1c4;" horiz-adv-x="2408" 
d="M2416 1804l-289 -308h-178l-185 308h137l148 -212l228 212h139zM302 1352h410q141 0 256.5 -43t192 -118t117.5 -176.5t41 -219.5q0 -165 -67 -312.5t-180.5 -253t-270.5 -167.5t-330 -62h-409zM1542 1352h935l-23 -127l-950 -1087h768l-24 -138h-956l24 127l948 1086
h-747zM238 138h248q187 0 343 87.5t244 235t88 320.5q0 191 -126.5 311.5t-341.5 120.5h-268z" />
    <glyph glyph-name="uni01C5" unicode="&#x1c5;" horiz-adv-x="2276" 
d="M2302 1468l-289 -308h-178l-184 308h136l148 -212l229 212h138zM302 1352h410q141 0 256.5 -43t192 -118t117.5 -176.5t41 -219.5q0 -165 -67 -312.5t-180.5 -253t-270.5 -167.5t-330 -62h-409zM238 138h248q187 0 343 87.5t244 235t88 320.5q0 191 -126.5 311.5
t-341.5 120.5h-268zM1483 1016h822l-21 -121l-766 -763h630l-23 -132h-822l21 121l763 764h-628z" />
    <glyph glyph-name="uni01C6" unicode="&#x1c6;" horiz-adv-x="2251" 
d="M1063 834l109 624l152 17l-260 -1475h-128l11 173q-80 -93 -190.5 -145.5t-241.5 -52.5q-200 0 -326.5 123t-126.5 318q0 115 47 227t128 200t200 142.5t253 54.5q128 0 225 -53.5t148 -152.5zM2277 1468l-288 -308h-179l-184 308h136l149 -212l228 212h138zM1458 1016
h822l-21 -121l-766 -763h631l-24 -132h-822l21 121l763 764h-627zM529 108q101 0 192.5 43.5t154 113t99 155.5t36.5 171q0 140 -91.5 228.5t-236.5 88.5q-103 0 -193 -44t-149 -114t-93 -157t-34 -174q0 -138 87 -224.5t228 -86.5z" />
    <glyph glyph-name="uni01CD" unicode="&#x1cd;" horiz-adv-x="1295" 
d="M1204 1804l-289 -308h-178l-184 308h136l149 -212l228 212h138zM-60 0l761 1352h188l287 -1352h-164l-58 294h-683l-160 -294h-171zM771 1210l-425 -778h582l-151 778h-6z" />
    <glyph glyph-name="uni01CE" unicode="&#x1ce;" horiz-adv-x="1304" 
d="M1106 1468l-289 -308h-178l-184 308h136l148 -212l229 212h138zM1062 836l52 180h128l-180 -1016h-128l13 172q-80 -92 -190.5 -144.5t-241.5 -52.5q-200 0 -326.5 123t-126.5 318q0 115 47 227t128 200t200 142.5t253 54.5q127 0 223.5 -53t148.5 -151zM529 108
q101 0 192.5 43.5t154 113t99 155.5t36.5 171q0 140 -91.5 228.5t-236.5 88.5q-103 0 -193 -44t-149 -114t-93 -157t-34 -174q0 -138 87 -224.5t228 -86.5z" />
    <glyph glyph-name="uni01CF" unicode="&#x1cf;" horiz-adv-x="454" 
d="M494 1496h-179l-184 308h136l149 -212l228 212h138zM212 0h-150l240 1352h150z" />
    <glyph glyph-name="uni01D0" unicode="&#x1d0;" horiz-adv-x="453" 
d="M434 1160h-178l-184 308h136l148 -212l229 212h138zM212 0h-150l181 1016h149z" />
    <glyph glyph-name="uni01D1" unicode="&#x1d1;" horiz-adv-x="1560" 
d="M1047 1496h-179l-184 308h136l149 -212l228 212h138zM698 -25q-137 0 -252 46.5t-191.5 127t-118.5 188.5t-42 232q0 119 39.5 237t114.5 220t175 180.5t230 124t271 45.5q183 0 322 -80t211 -213t72 -297q0 -150 -63 -296t-171 -260t-265 -184.5t-332 -70.5zM710 116
q139 0 264 57t210.5 150t136 212t50.5 242q0 199 -126.5 329t-332.5 130q-138 0 -263 -57t-210.5 -149t-136 -210.5t-50.5 -240.5q0 -201 126 -332t332 -131z" />
    <glyph glyph-name="uni01D2" unicode="&#x1d2;" horiz-adv-x="1236" 
d="M823 1149h-178l-184 308h136l148 -212l229 212h138zM535 -25q-214 0 -342 125t-128 321q0 118 49.5 231t133 199t203 138t251.5 52q210 0 340 -124t130 -321q0 -157 -82 -299.5t-230 -232t-325 -89.5zM544 108q131 0 241.5 68.5t172 179t61.5 233.5q0 143 -89.5 231
t-238.5 88q-131 0 -241 -68.5t-171 -179t-61 -233.5q0 -143 89 -231t237 -88z" />
    <glyph glyph-name="uni01D3" unicode="&#x1d3;" horiz-adv-x="1332" 
d="M933 1496h-178l-185 308h137l148 -212l228 212h139zM583 -25q-245 0 -363 150.5t-72 412.5l144 814h149l-147 -824q-36 -199 41.5 -306.5t254.5 -107.5q181 0 301 110t156 313l143 815h149l-144 -824q-46 -262 -212.5 -407.5t-399.5 -145.5z" />
    <glyph glyph-name="uni01D4" unicode="&#x1d4;" horiz-adv-x="1180" 
d="M798 1160h-178l-185 308h136l149 -212l228 212h138zM505 -20q-205 0 -306 118.5t-65 325.5l105 592h149l-108 -606q-26 -140 36 -219t196 -79q138 0 233.5 81.5t121.5 224.5l107 598h149l-106 -601q-36 -206 -173 -320.5t-339 -114.5z" />
    <glyph glyph-name="uni01D5" unicode="&#x1d5;" horiz-adv-x="1332" 
d="M1207 1868h-633l21 115h634zM627 1530q-42 0 -69.5 26t-27.5 64q0 48 33 79.5t80 31.5q43 0 69.5 -26t26.5 -66q0 -48 -33.5 -78.5t-78.5 -30.5zM1063 1530q-42 0 -69 26t-27 64q0 48 32.5 79.5t79.5 31.5q43 0 70 -26t27 -66q0 -48 -34 -78.5t-79 -30.5zM583 -25
q-245 0 -363 150.5t-72 412.5l144 814h149l-147 -824q-36 -199 41.5 -306.5t254.5 -107.5q181 0 301 110t156 313l143 815h149l-144 -824q-46 -262 -212.5 -407.5t-399.5 -145.5z" />
    <glyph glyph-name="uni01D6" unicode="&#x1d6;" horiz-adv-x="1180" 
d="M1072 1532h-633l21 116h634zM492 1194q-42 0 -69.5 26t-27.5 64q0 48 33 79.5t80 31.5q43 0 69.5 -25.5t26.5 -65.5q0 -48 -33.5 -79t-78.5 -31zM928 1194q-42 0 -69.5 26t-27.5 64q0 48 33 79.5t80 31.5q43 0 69.5 -25.5t26.5 -65.5q0 -48 -33.5 -79t-78.5 -31zM505 -20
q-205 0 -306 118.5t-65 325.5l105 592h149l-108 -606q-26 -140 36 -219t196 -79q138 0 233.5 81.5t121.5 224.5l107 598h149l-106 -601q-36 -206 -173 -320.5t-339 -114.5z" />
    <glyph glyph-name="uni01D7" unicode="&#x1d7;" horiz-adv-x="1332" 
d="M946 1817h-140l249 308h194zM627 1530q-42 0 -69.5 26t-27.5 64q0 48 33 79.5t80 31.5q43 0 69.5 -26t26.5 -66q0 -48 -33.5 -78.5t-78.5 -30.5zM1063 1530q-42 0 -69 26t-27 64q0 48 32.5 79.5t79.5 31.5q43 0 70 -26t27 -66q0 -48 -34 -78.5t-79 -30.5zM583 -25
q-245 0 -363 150.5t-72 412.5l144 814h149l-147 -824q-36 -199 41.5 -306.5t254.5 -107.5q181 0 301 110t156 313l143 815h149l-144 -824q-46 -262 -212.5 -407.5t-399.5 -145.5z" />
    <glyph glyph-name="uni01D8" unicode="&#x1d8;" horiz-adv-x="1180" 
d="M811 1481h-140l249 308h194zM492 1194q-42 0 -69.5 26t-27.5 64q0 48 33 79.5t80 31.5q43 0 69.5 -25.5t26.5 -65.5q0 -48 -33.5 -79t-78.5 -31zM928 1194q-42 0 -69.5 26t-27.5 64q0 48 33 79.5t80 31.5q43 0 69.5 -25.5t26.5 -65.5q0 -48 -33.5 -79t-78.5 -31zM505 -20
q-205 0 -306 118.5t-65 325.5l105 592h149l-108 -606q-26 -140 36 -219t196 -79q138 0 233.5 81.5t121.5 224.5l107 598h149l-106 -601q-36 -206 -173 -320.5t-339 -114.5z" />
    <glyph glyph-name="uni01D9" unicode="&#x1d9;" horiz-adv-x="1332" 
d="M972 1810h-178l-185 309h136l149 -212l228 212h139zM627 1530q-42 0 -69.5 26t-27.5 64q0 48 33 79.5t80 31.5q43 0 69.5 -26t26.5 -66q0 -48 -33.5 -78.5t-78.5 -30.5zM1063 1530q-42 0 -69 26t-27 64q0 48 32.5 79.5t79.5 31.5q43 0 70 -26t27 -66q0 -48 -34 -78.5
t-79 -30.5zM583 -25q-245 0 -363 150.5t-72 412.5l144 814h149l-147 -824q-36 -199 41.5 -306.5t254.5 -107.5q181 0 301 110t156 313l143 815h149l-144 -824q-46 -262 -212.5 -407.5t-399.5 -145.5z" />
    <glyph glyph-name="uni01DA" unicode="&#x1da;" horiz-adv-x="1180" 
d="M837 1475h-179l-184 308h136l149 -212l228 212h138zM492 1194q-42 0 -69.5 26t-27.5 64q0 48 33 79.5t80 31.5q43 0 69.5 -25.5t26.5 -65.5q0 -48 -33.5 -79t-78.5 -31zM928 1194q-42 0 -69.5 26t-27.5 64q0 48 33 79.5t80 31.5q43 0 69.5 -25.5t26.5 -65.5
q0 -48 -33.5 -79t-78.5 -31zM505 -20q-205 0 -306 118.5t-65 325.5l105 592h149l-108 -606q-26 -140 36 -219t196 -79q138 0 233.5 81.5t121.5 224.5l107 598h149l-106 -601q-36 -206 -173 -320.5t-339 -114.5z" />
    <glyph glyph-name="uni01DB" unicode="&#x1db;" horiz-adv-x="1332" 
d="M953 1817h-133l-195 308h186zM627 1530q-42 0 -69.5 26t-27.5 64q0 48 33 79.5t80 31.5q43 0 69.5 -26t26.5 -66q0 -48 -33.5 -78.5t-78.5 -30.5zM1063 1530q-42 0 -69 26t-27 64q0 48 32.5 79.5t79.5 31.5q43 0 70 -26t27 -66q0 -48 -34 -78.5t-79 -30.5zM583 -25
q-245 0 -363 150.5t-72 412.5l144 814h149l-147 -824q-36 -199 41.5 -306.5t254.5 -107.5q181 0 301 110t156 313l143 815h149l-144 -824q-46 -262 -212.5 -407.5t-399.5 -145.5z" />
    <glyph glyph-name="uni01DC" unicode="&#x1dc;" horiz-adv-x="1180" 
d="M818 1481h-133l-196 308h187zM492 1194q-42 0 -69.5 26t-27.5 64q0 48 33 79.5t80 31.5q43 0 69.5 -25.5t26.5 -65.5q0 -48 -33.5 -79t-78.5 -31zM928 1194q-42 0 -69.5 26t-27.5 64q0 48 33 79.5t80 31.5q43 0 69.5 -25.5t26.5 -65.5q0 -48 -33.5 -79t-78.5 -31z
M505 -20q-205 0 -306 118.5t-65 325.5l105 592h149l-108 -606q-26 -140 36 -219t196 -79q138 0 233.5 81.5t121.5 224.5l107 598h149l-106 -601q-36 -206 -173 -320.5t-339 -114.5z" />
    <glyph glyph-name="uni01DD" unicode="&#x1dd;" 
d="M700 1040q209 0 336.5 -120t127.5 -322q0 -117 -45.5 -228.5t-126.5 -199.5t-202.5 -142t-261.5 -54q-212 0 -337.5 125t-125.5 321q0 85 17 134h927q2 24 2 38q0 150 -84.5 233.5t-237.5 83.5q-125 0 -237.5 -59t-177.5 -161l-117 77q90 128 233 201t310 73zM538 105
q158 0 275.5 91t167.5 229h-767v-15q0 -134 90 -219.5t234 -85.5z" />
    <glyph glyph-name="uni01DE" unicode="&#x1de;" horiz-adv-x="1295" 
d="M557 1868l21 115h633l-21 -115h-633zM609 1530q-42 0 -69 26t-27 64q0 48 33 79.5t80 31.5q43 0 69.5 -26t26.5 -66q0 -48 -34 -78.5t-79 -30.5zM1158 1639q0 -48 -33.5 -78.5t-78.5 -30.5q-42 0 -69.5 26t-27.5 64q0 48 33 79.5t80 31.5q43 0 69.5 -26t26.5 -66zM-60 0
l761 1352h188l287 -1352h-164l-58 294h-683l-160 -294h-171zM771 1210l-425 -778h582l-151 778h-6z" />
    <glyph glyph-name="uni01DF" unicode="&#x1df;" horiz-adv-x="1304" 
d="M479 1648h634l-21 -116h-633zM511 1194q-42 0 -69 26t-27 64q0 48 32.5 79.5t79.5 31.5q43 0 70 -26t27 -65q0 -48 -34 -79t-79 -31zM851 1284q0 48 33 79.5t80 31.5q43 0 69.5 -25.5t26.5 -65.5q0 -48 -34 -79t-79 -31q-42 0 -69 26t-27 64zM1062 836l52 180h128
l-180 -1016h-128l13 172q-80 -92 -190.5 -144.5t-241.5 -52.5q-200 0 -326.5 123t-126.5 318q0 115 47 227t128 200t200 142.5t253 54.5q127 0 223.5 -53t148.5 -151zM529 108q101 0 192.5 43.5t154 113t99 155.5t36.5 171q0 140 -91.5 228.5t-236.5 88.5q-103 0 -193 -44
t-149 -114t-93 -157t-34 -174q0 -138 87 -224.5t228 -86.5z" />
    <glyph glyph-name="uni01E0" unicode="&#x1e0;" horiz-adv-x="1295" 
d="M561 1807l21 116h633l-21 -116h-633zM961 1648q0 -53 -35.5 -86.5t-85.5 -33.5q-45 0 -75.5 29t-30.5 71q0 53 35 87.5t87 34.5q46 0 75.5 -29t29.5 -73zM-60 0l761 1352h188l287 -1352h-164l-58 294h-683l-160 -294h-171zM771 1210l-425 -778h582l-151 778h-6z" />
    <glyph glyph-name="uni01E1" unicode="&#x1e1;" horiz-adv-x="1304" 
d="M483 1587h634l-21 -116h-633zM636 1292q0 53 35 87.5t87 34.5q46 0 75 -29t29 -73q0 -53 -35.5 -86.5t-85.5 -33.5q-45 0 -75 29t-30 71zM1062 836l52 180h128l-180 -1016h-128l13 172q-80 -92 -190.5 -144.5t-241.5 -52.5q-200 0 -326.5 123t-126.5 318q0 115 47 227
t128 200t200 142.5t253 54.5q127 0 223.5 -53t148.5 -151zM529 108q101 0 192.5 43.5t154 113t99 155.5t36.5 171q0 140 -91.5 228.5t-236.5 88.5q-103 0 -193 -44t-149 -114t-93 -157t-34 -174q0 -138 87 -224.5t228 -86.5z" />
    <glyph glyph-name="uni01E2" unicode="&#x1e2;" horiz-adv-x="1950" 
d="M949 1669h634l-21 -116h-633zM2008 1352l-26 -139h-754l-81 -463h685l-25 -138h-685l-83 -474h755l-26 -138h-904l52 294h-605l-233 -294h-178l1085 1352h1023zM421 432h519l138 781h-37z" />
    <glyph glyph-name="uni01E3" unicode="&#x1e3;" horiz-adv-x="2014" 
d="M826 1334h634l-21 -115h-633zM1932 462h-926q-2 -24 -2 -38q0 -150 84 -234t237 -84q125 0 237.5 59.5t177.5 161.5l118 -77q-90 -128 -233.5 -201.5t-310.5 -73.5q-153 0 -261.5 73t-152.5 198q-87 -130 -221.5 -200.5t-297.5 -70.5q-146 0 -238.5 73t-92.5 198
q0 107 60 186t160.5 119t226.5 40h396q11 72 11 127q0 192 -253 192q-127 0 -221 -53.5t-138 -155.5l-131 61q67 137 202.5 208t300.5 71q147 0 241.5 -57t121.5 -165q88 103 208.5 162.5t252.5 59.5q211 0 336.5 -124.5t125.5 -320.5q0 -82 -18 -134zM1477 910
q-158 0 -276 -90.5t-168 -228.5h765v15q0 134 -88.5 219t-232.5 85zM394 102q174 0 292.5 93.5t174.5 266.5h-368q-131 0 -210 -55.5t-79 -152.5q0 -77 52 -114.5t138 -37.5z" />
    <glyph glyph-name="Gcaron" unicode="&#x1e6;" horiz-adv-x="1587" 
d="M1337 1804l-288 -308h-179l-184 308h136l149 -212l228 212h138zM1326 569h-565l25 138h704l-126 -707h-94l21 294q-101 -146 -262 -232.5t-346 -86.5q-258 0 -424.5 165t-166.5 423q0 118 39.5 236.5t115 221.5t176 183t230.5 126t271 46q213 0 365.5 -103t210.5 -274
l-146 -65q-41 138 -159.5 220t-282.5 82q-111 0 -215 -38t-184 -104t-140.5 -151t-92.5 -183.5t-32 -196.5q0 -196 127.5 -322t325.5 -126q215 0 389 129t236 325z" />
    <glyph glyph-name="gcaron" unicode="&#x1e7;" horiz-adv-x="1302" 
d="M1114 1468l-289 -308h-178l-184 308h136l149 -212l228 212h138zM1061 841l51 175h128l-162 -911q-39 -227 -210.5 -379t-397.5 -152q-191 0 -318.5 80.5t-155.5 219.5l139 59q14 -108 102 -168.5t231 -60.5q167 0 299.5 114.5t161.5 281.5l15 85q-170 -188 -427 -188
q-200 0 -325.5 120t-125.5 312q0 90 29 179t85.5 166.5t131.5 137t173.5 94t206.5 34.5q126 0 221.5 -52t147.5 -147zM531 127q101 0 191.5 42.5t152.5 110.5t98 153t36 169q0 134 -92 221.5t-232 87.5q-103 0 -193 -43t-149 -112t-93 -154t-34 -170q0 -136 87 -220.5
t228 -84.5z" />
    <glyph glyph-name="uni01E8" unicode="&#x1e8;" horiz-adv-x="1188" 
d="M1184 1804l-289 -308h-178l-185 308h137l148 -212l229 212h138zM1105 1352h201l-784 -668l564 -684h-192l-560 687l-122 -687h-150l240 1352h150l-117 -659z" />
    <glyph glyph-name="uni01E9" unicode="&#x1e9;" horiz-adv-x="1035" 
d="M1151 1806l-289 -308h-178l-184 308h136l148 -212l229 212h138zM305 530l614 486h206l-636 -496l456 -520h-188l-452 526l-93 -526h-150l259 1458l151 17z" />
    <glyph glyph-name="uni01EA" unicode="&#x1ea;" horiz-adv-x="1560" 
d="M924 1376q182 0 320.5 -80t210.5 -213t72 -297q0 -213 -115 -402t-328 -314q-147 -86 -208 -163t-61 -152q0 -46 31.5 -71.5t80.5 -25.5q29 0 72 10l10 -99q-52 -12 -115 -12q-93 0 -151 50t-58 137q0 140 143 242q-79 -11 -130 -11q-137 0 -252 46.5t-191.5 127
t-118.5 188.5t-42 232q0 119 39.5 237t114.5 220t175 180.5t230 124t271 45.5zM710 116q138 0 262.5 57t210 150t136 212t50.5 242q0 199 -126.5 329t-330.5 130q-138 0 -263 -57t-210.5 -149t-136 -210.5t-50.5 -240.5q0 -201 126 -332t332 -131z" />
    <glyph glyph-name="uni01EB" unicode="&#x1eb;" horiz-adv-x="1234" 
d="M702 1041q210 0 340 -124t130 -321q0 -135 -71 -267.5t-222 -249.5q-131 -101 -167 -134q-98 -92 -98 -177q0 -52 29 -81t83 -29q30 0 73 10l9 -99q-52 -12 -115 -12q-93 0 -151 50t-58 137q0 135 141 238q-54 -7 -90 -7q-214 0 -342 125t-128 321q0 118 49.5 231
t133 199t203 138t251.5 52zM544 108q131 0 241.5 68.5t172 179t61.5 233.5q0 143 -89.5 231t-238.5 88q-131 0 -241 -68.5t-171 -179t-61 -233.5q0 -143 89 -231t237 -88z" />
    <glyph glyph-name="uni01EC" unicode="&#x1ec;" horiz-adv-x="1560" 
d="M670 1669h634l-22 -116h-633zM924 1376q182 0 320.5 -80t210.5 -213t72 -297q0 -213 -115 -402t-328 -314q-147 -86 -208 -163t-61 -152q0 -46 31.5 -71.5t80.5 -25.5q29 0 72 10l10 -99q-52 -12 -115 -12q-93 0 -151 50t-58 137q0 140 143 242q-79 -11 -130 -11
q-137 0 -252 46.5t-191.5 127t-118.5 188.5t-42 232q0 119 39.5 237t114.5 220t175 180.5t230 124t271 45.5zM710 116q138 0 262.5 57t210 150t136 212t50.5 242q0 199 -126.5 329t-330.5 130q-138 0 -263 -57t-210.5 -149t-136 -210.5t-50.5 -240.5q0 -201 126 -332
t332 -131z" />
    <glyph glyph-name="uni01ED" unicode="&#x1ed;" horiz-adv-x="1234" 
d="M1061 1218h-633l21 115h633zM702 1041q210 0 340 -124t130 -321q0 -135 -71 -267.5t-222 -249.5q-131 -101 -167 -134q-98 -92 -98 -177q0 -52 29 -81t83 -29q30 0 73 10l9 -99q-52 -12 -115 -12q-93 0 -151 50t-58 137q0 135 141 238q-54 -7 -90 -7q-214 0 -342 125
t-128 321q0 118 49.5 231t133 199t203 138t251.5 52zM544 108q131 0 241.5 68.5t172 179t61.5 233.5q0 143 -89.5 231t-238.5 88q-131 0 -241 -68.5t-171 -179t-61 -233.5q0 -143 89 -231t237 -88z" />
    <glyph glyph-name="uni01F4" unicode="&#x1f4;" horiz-adv-x="1587" 
d="M1132 1810h194l-303 -308h-140zM1326 569h-565l25 138h704l-126 -707h-94l21 294q-101 -146 -262 -232.5t-346 -86.5q-258 0 -424.5 165t-166.5 423q0 118 39.5 236.5t115 221.5t176 183t230.5 126t271 46q213 0 365.5 -103t210.5 -274l-146 -65q-41 138 -159.5 220
t-282.5 82q-111 0 -215 -38t-184 -104t-140.5 -151t-92.5 -183.5t-32 -196.5q0 -196 127.5 -322t325.5 -126q215 0 389 129t236 325z" />
    <glyph glyph-name="uni01F5" unicode="&#x1f5;" horiz-adv-x="1302" 
d="M908 1475h195l-303 -309h-141zM1061 841l51 175h128l-162 -911q-39 -227 -210.5 -379t-397.5 -152q-191 0 -318.5 80.5t-155.5 219.5l139 59q14 -108 102 -168.5t231 -60.5q167 0 299.5 114.5t161.5 281.5l15 85q-170 -188 -427 -188q-200 0 -325.5 120t-125.5 312
q0 90 29 179t85.5 166.5t131.5 137t173.5 94t206.5 34.5q126 0 221.5 -52t147.5 -147zM531 127q101 0 191.5 42.5t152.5 110.5t98 153t36 169q0 134 -92 221.5t-232 87.5q-103 0 -193 -43t-149 -112t-93 -154t-34 -170q0 -136 87 -220.5t228 -84.5z" />
    <glyph glyph-name="uni01F8" unicode="&#x1f8;" horiz-adv-x="1362" 
d="M931 1502h-133l-196 308h186zM211 0h-149l240 1352h157l550 -1104h8q16 110 53 302l141 802h149l-240 -1352h-156l-551 1096h-9q-10 -73 -51 -302z" />
    <glyph glyph-name="uni01F9" unicode="&#x1f9;" horiz-adv-x="1184" 
d="M641 1475l142 -309h-133l-195 309h186zM732 1040q180 0 269.5 -118.5t54.5 -310.5l-110 -611h-148l107 599q29 156 -29.5 234.5t-190.5 78.5q-137 0 -240 -87.5t-130 -236.5l-103 -588h-150l181 1016h128l-7 -133q144 157 368 157z" />
    <glyph glyph-name="Aringacute" unicode="&#x1fa;" horiz-adv-x="1295" 
d="M1069 2213h195l-303 -308h-141zM810 1386q-86 0 -140.5 54t-54.5 137q0 103 76 177t179 74q86 0 140.5 -54t54.5 -137q0 -103 -76.5 -177t-178.5 -74zM860 1730q-55 0 -96.5 -42.5t-41.5 -102.5q0 -43 27.5 -71.5t70.5 -28.5q54 0 96 42t42 102q0 43 -28 72t-70 29z
M-60 0l761 1352h188l287 -1352h-164l-58 294h-683l-160 -294h-171zM771 1210l-425 -778h582l-151 778h-6z" />
    <glyph glyph-name="aringacute" unicode="&#x1fb;" horiz-adv-x="1304" 
d="M985 1958h195l-303 -308h-141zM726 1132q-86 0 -140.5 53.5t-54.5 136.5q0 103 76 177t179 74q86 0 140.5 -54t54.5 -137q0 -103 -76.5 -176.5t-178.5 -73.5zM776 1475q-55 0 -96.5 -42.5t-41.5 -102.5q0 -43 27.5 -71.5t70.5 -28.5q54 0 96 42t42 102q0 43 -28 72
t-70 29zM1062 836l52 180h128l-180 -1016h-128l13 172q-80 -92 -190.5 -144.5t-241.5 -52.5q-200 0 -326.5 123t-126.5 318q0 115 47 227t128 200t200 142.5t253 54.5q127 0 223.5 -53t148.5 -151zM529 108q101 0 192.5 43.5t154 113t99 155.5t36.5 171q0 140 -91.5 228.5
t-236.5 88.5q-103 0 -193 -44t-149 -114t-93 -157t-34 -174q0 -138 87 -224.5t228 -86.5z" />
    <glyph glyph-name="AEacute" unicode="&#x1fc;" horiz-adv-x="1950" 
d="M1409 1810h195l-304 -308h-140zM2008 1352l-26 -139h-754l-81 -463h685l-25 -138h-685l-83 -474h755l-26 -138h-904l52 294h-605l-233 -294h-178l1085 1352h1023zM421 432h519l138 781h-37z" />
    <glyph glyph-name="aeacute" unicode="&#x1fd;" horiz-adv-x="2014" 
d="M1286 1476h195l-303 -309h-141zM1932 462h-926q-2 -24 -2 -38q0 -150 84 -234t237 -84q125 0 237.5 59.5t177.5 161.5l118 -77q-90 -128 -233.5 -201.5t-310.5 -73.5q-153 0 -261.5 73t-152.5 198q-87 -130 -221.5 -200.5t-297.5 -70.5q-146 0 -238.5 73t-92.5 198
q0 107 60 186t160.5 119t226.5 40h396q11 72 11 127q0 192 -253 192q-127 0 -221 -53.5t-138 -155.5l-131 61q67 137 202.5 208t300.5 71q147 0 241.5 -57t121.5 -165q88 103 208.5 162.5t252.5 59.5q211 0 336.5 -124.5t125.5 -320.5q0 -82 -18 -134zM1477 910
q-158 0 -276 -90.5t-168 -228.5h765v15q0 134 -88.5 219t-232.5 85zM394 102q174 0 292.5 93.5t174.5 266.5h-368q-131 0 -210 -55.5t-79 -152.5q0 -77 52 -114.5t138 -37.5z" />
    <glyph glyph-name="Oslashacute" unicode="&#x1fe;" horiz-adv-x="1560" 
d="M1136 1810h194l-303 -308h-140zM1385 1475l-119 -191q125 -78 194 -209t69 -289q0 -150 -63 -296t-171 -260t-265 -184.5t-332 -70.5q-128 0 -233 39l-121 -192l-111 51l123 195q-125 78 -193.5 209.5t-68.5 291.5q0 119 39.5 237t114.5 220t175 180.5t230 124t271 45.5
q126 0 235 -40l121 192zM252 579q0 -122 48.5 -221.5t136.5 -161.5l641 1013q-79 27 -166 27q-138 0 -263 -57t-210.5 -149t-136 -210.5t-50.5 -240.5zM710 116q139 0 264 57t210.5 150t136 212t50.5 242q0 121 -48.5 219.5t-137.5 159.5l-639 -1015q77 -25 164 -25z" />
    <glyph glyph-name="oslashacute" unicode="&#x1ff;" horiz-adv-x="1236" 
d="M893 1476h194l-303 -309h-140zM1074 1145l-107 -171q98 -57 151.5 -155.5t53.5 -222.5q0 -157 -82 -299.5t-230 -232t-325 -89.5q-96 0 -180 28l-115 -184l-89 43l114 183q-96 58 -148 155.5t-52 220.5q0 118 49.5 231t133 199t203 138t251.5 52q94 0 174 -26l109 175z
M218 427q0 -173 124 -261l457 728q-51 14 -108 14q-131 0 -241 -68.5t-171 -179t-61 -233.5zM544 108q131 0 241.5 68.5t172 179t61.5 233.5q0 176 -129 263l-459 -729q51 -15 113 -15z" />
    <glyph glyph-name="uni0200" unicode="&#x200;" horiz-adv-x="1295" 
d="M455 1810l233 -308h-138l-278 308h183zM765 1810l233 -308h-138l-277 308h182zM1176 0h-164l-58 294h-683l-160 -294h-171l761 1352h188zM771 1210l-425 -778h582l-151 778h-6z" />
    <glyph glyph-name="uni0201" unicode="&#x201;" horiz-adv-x="1304" 
d="M356 1475l234 -309h-138l-278 309h182zM667 1475l233 -309h-138l-278 309h183zM1062 836l52 180h128l-180 -1016h-128l13 172q-80 -92 -190.5 -144.5t-241.5 -52.5q-200 0 -326.5 123t-126.5 318q0 115 47 227t128 200t200 142.5t253 54.5q127 0 223.5 -53t148.5 -151z
M529 108q101 0 192.5 43.5t154 113t99 155.5t36.5 171q0 140 -91.5 228.5t-236.5 88.5q-103 0 -193 -44t-149 -114t-93 -157t-34 -174q0 -138 87 -224.5t228 -86.5z" />
    <glyph glyph-name="uni0204" unicode="&#x204;" horiz-adv-x="1169" 
d="M420 1810l233 -308h-138l-277 308h182zM730 1810l234 -308h-139l-277 308h182zM1227 1352l-26 -139h-775l-82 -463h715l-26 -138h-712l-84 -474h776l-26 -138h-925l240 1352h925z" />
    <glyph glyph-name="uni0205" unicode="&#x205;" 
d="M358 1476l234 -309h-138l-278 309h182zM669 1476l233 -309h-138l-278 309h183zM1147 462h-927q-2 -24 -2 -38q0 -150 84.5 -234t237.5 -84q125 0 237 59.5t177 161.5l118 -77q-90 -128 -233.5 -201.5t-310.5 -73.5q-208 0 -335.5 120t-127.5 323q0 93 28.5 183.5
t84 169.5t131 139.5t177 95.5t214.5 35q212 0 338 -124.5t126 -320.5q0 -85 -17 -134zM691 910q-158 0 -275.5 -90.5t-167.5 -228.5h767v15q0 134 -90 219t-234 85z" />
    <glyph glyph-name="uni0206" unicode="&#x206;" horiz-adv-x="1169" 
d="M823 1697q-82 0 -145.5 -55t-80.5 -141h-120q25 134 122 221.5t235 87.5q139 0 207 -87.5t44 -221.5h-115q14 88 -25 142t-122 54zM1227 1352l-26 -139h-775l-82 -463h715l-26 -138h-712l-84 -474h776l-26 -138h-925l240 1352h925z" />
    <glyph glyph-name="uni0207" unicode="&#x207;" 
d="M762 1362q-82 0 -145.5 -55t-80.5 -141h-120q25 134 122 222t234 88q139 0 207.5 -88t44.5 -222h-116q14 88 -24.5 142t-121.5 54zM1147 462h-927q-2 -24 -2 -38q0 -150 84.5 -234t237.5 -84q125 0 237 59.5t177 161.5l118 -77q-90 -128 -233.5 -201.5t-310.5 -73.5
q-208 0 -335.5 120t-127.5 323q0 93 28.5 183.5t84 169.5t131 139.5t177 95.5t214.5 35q212 0 338 -124.5t126 -320.5q0 -85 -17 -134zM691 910q-158 0 -275.5 -90.5t-167.5 -228.5h767v15q0 134 -90 219t-234 85z" />
    <glyph glyph-name="uni0208" unicode="&#x208;" horiz-adv-x="454" 
d="M33 1810l233 -308h-138l-278 308h183zM343 1810l234 -308h-139l-277 308h182zM212 0h-150l240 1352h150z" />
    <glyph glyph-name="uni0209" unicode="&#x209;" horiz-adv-x="453" 
d="M-27 1475l234 -309h-138l-278 309h182zM284 1475l233 -309h-138l-278 309h183zM212 0h-150l181 1016h149z" />
    <glyph glyph-name="uni020A" unicode="&#x20a;" horiz-adv-x="454" 
d="M446 1810q139 0 207.5 -88t44.5 -221h-115q14 88 -25 142t-122 54q-82 0 -145.5 -55t-80.5 -141h-120q25 134 121.5 221.5t234.5 87.5zM212 0h-150l240 1352h150z" />
    <glyph glyph-name="uni020B" unicode="&#x20b;" horiz-adv-x="453" 
d="M387 1475q139 0 207.5 -88t44.5 -222h-116q14 88 -24.5 142t-121.5 54q-82 0 -145.5 -55t-80.5 -141h-120q25 134 122 222t234 88zM212 0h-150l181 1016h149z" />
    <glyph glyph-name="uni020C" unicode="&#x20c;" horiz-adv-x="1560" 
d="M586 1810l233 -308h-138l-278 308h183zM896 1810l233 -308h-138l-277 308h182zM698 -25q-137 0 -252 46.5t-191.5 127t-118.5 188.5t-42 232q0 119 39.5 237t114.5 220t175 180.5t230 124t271 45.5q183 0 322 -80t211 -213t72 -297q0 -150 -63 -296t-171 -260
t-265 -184.5t-332 -70.5zM710 116q139 0 264 57t210.5 150t136 212t50.5 242q0 199 -126.5 329t-332.5 130q-138 0 -263 -57t-210.5 -149t-136 -210.5t-50.5 -240.5q0 -201 126 -332t332 -131z" />
    <glyph glyph-name="uni020D" unicode="&#x20d;" horiz-adv-x="1236" 
d="M362 1463l234 -308h-138l-278 308h182zM673 1463l233 -308h-138l-278 308h183zM535 -25q-214 0 -342 125t-128 321q0 118 49.5 231t133 199t203 138t251.5 52q210 0 340 -124t130 -321q0 -157 -82 -299.5t-230 -232t-325 -89.5zM544 108q131 0 241.5 68.5t172 179
t61.5 233.5q0 143 -89.5 231t-238.5 88q-131 0 -241 -68.5t-171 -179t-61 -233.5q0 -143 89 -231t237 -88z" />
    <glyph glyph-name="uni020E" unicode="&#x20e;" horiz-adv-x="1560" 
d="M999 1810q139 0 207.5 -88t44.5 -221h-115q14 88 -25 142t-122 54q-82 0 -145.5 -55t-80.5 -141h-120q25 134 121.5 221.5t234.5 87.5zM698 -25q-137 0 -252 46.5t-191.5 127t-118.5 188.5t-42 232q0 119 39.5 237t114.5 220t175 180.5t230 124t271 45.5q183 0 322 -80
t211 -213t72 -297q0 -150 -63 -296t-171 -260t-265 -184.5t-332 -70.5zM710 116q139 0 264 57t210.5 150t136 212t50.5 242q0 199 -126.5 329t-332.5 130q-138 0 -263 -57t-210.5 -149t-136 -210.5t-50.5 -240.5q0 -201 126 -332t332 -131z" />
    <glyph glyph-name="uni020F" unicode="&#x20f;" horiz-adv-x="1236" 
d="M776 1463q139 0 207.5 -88t44.5 -221h-116q14 88 -24.5 142t-121.5 54q-82 0 -145.5 -55t-80.5 -141h-120q25 134 121.5 221.5t234.5 87.5zM535 -25q-214 0 -342 125t-128 321q0 118 49.5 231t133 199t203 138t251.5 52q210 0 340 -124t130 -321q0 -157 -82 -299.5
t-230 -232t-325 -89.5zM544 108q131 0 241.5 68.5t172 179t61.5 233.5q0 143 -89.5 231t-238.5 88q-131 0 -241 -68.5t-171 -179t-61 -233.5q0 -143 89 -231t237 -88z" />
    <glyph glyph-name="uni0210" unicode="&#x210;" horiz-adv-x="1226" 
d="M410 1810l233 -308h-138l-278 308h183zM720 1810l233 -308h-138l-277 308h182zM302 1352h543q211 0 320.5 -124.5t75.5 -318.5q-25 -145 -130 -251t-261 -147l229 -511h-170l-215 489h-17h-379l-86 -489h-150zM1087 928q23 126 -44.5 205.5t-205.5 79.5h-411l-103 -586
h384q155 0 255.5 83.5t124.5 217.5z" />
    <glyph glyph-name="uni0211" unicode="&#x211;" horiz-adv-x="679" 
d="M123 1475l233 -309h-138l-277 309h182zM433 1475l234 -309h-139l-277 309h182zM680 1033h61l-27 -154h-90q-123 0 -202 -69t-100 -188l-110 -622h-150l181 1016h128l-13 -153q51 78 134.5 124t187.5 46z" />
    <glyph glyph-name="uni0212" unicode="&#x212;" horiz-adv-x="1226" 
d="M813 1697q-82 0 -145.5 -55t-80.5 -141h-120q25 134 121.5 221.5t234.5 87.5q139 0 207.5 -88t44.5 -221h-116q14 88 -24.5 142t-121.5 54zM302 1352h543q211 0 320.5 -124.5t75.5 -318.5q-25 -145 -130 -251t-261 -147l229 -511h-170l-215 489h-17h-379l-86 -489h-150z
M1087 928q23 126 -44.5 205.5t-205.5 79.5h-411l-103 -586h384q155 0 255.5 83.5t124.5 217.5z" />
    <glyph glyph-name="uni0213" unicode="&#x213;" horiz-adv-x="679" 
d="M537 1475q139 0 207 -88t44 -222h-115q14 88 -25 142t-122 54q-82 0 -145.5 -55t-80.5 -141h-120q25 134 122 222t235 88zM371 1016l-13 -153q51 78 134.5 124t187.5 46h61l-27 -154h-90q-123 0 -202 -69t-100 -188l-110 -622h-150l181 1016h128z" />
    <glyph glyph-name="uni0214" unicode="&#x214;" horiz-adv-x="1332" 
d="M472 1810l234 -308h-139l-277 308h182zM782 1810l234 -308h-138l-278 308h182zM583 -25q-245 0 -363 150.5t-72 412.5l144 814h149l-147 -824q-36 -199 41.5 -306.5t254.5 -107.5q181 0 301 110t156 313l143 815h149l-144 -824q-46 -262 -212.5 -407.5t-399.5 -145.5z
" />
    <glyph glyph-name="uni0215" unicode="&#x215;" horiz-adv-x="1180" 
d="M337 1475l233 -309h-138l-277 309h182zM647 1475l234 -309h-139l-277 309h182zM505 -20q-205 0 -306 118.5t-65 325.5l105 592h149l-108 -606q-26 -140 36 -219t196 -79q138 0 233.5 81.5t121.5 224.5l107 598h149l-106 -601q-36 -206 -173 -320.5t-339 -114.5z" />
    <glyph glyph-name="uni0216" unicode="&#x216;" horiz-adv-x="1332" 
d="M886 1810q139 0 207.5 -88t44.5 -221h-116q14 88 -24.5 142t-121.5 54t-146.5 -55t-80.5 -141h-120q25 134 122 221.5t235 87.5zM583 -25q-245 0 -363 150.5t-72 412.5l144 814h149l-147 -824q-36 -199 41.5 -306.5t254.5 -107.5q181 0 301 110t156 313l143 815h149
l-144 -824q-46 -262 -212.5 -407.5t-399.5 -145.5z" />
    <glyph glyph-name="uni0217" unicode="&#x217;" horiz-adv-x="1180" 
d="M751 1475q139 0 207 -88t44 -222h-115q14 88 -25 142t-122 54q-82 0 -145.5 -55t-80.5 -141h-120q25 134 122 222t235 88zM505 -20q-205 0 -306 118.5t-65 325.5l105 592h149l-108 -606q-26 -140 36 -219t196 -79q138 0 233.5 81.5t121.5 224.5l107 598h149l-106 -601
q-36 -206 -173 -320.5t-339 -114.5z" />
    <glyph glyph-name="uni0218" unicode="&#x218;" horiz-adv-x="1203" 
d="M535 781l283 -66q138 -33 208 -114t70 -203q0 -133 -79 -230.5t-206 -145t-282 -47.5q-207 0 -339 91.5t-150 268.5l153 57q-1 -143 91.5 -211t250.5 -70q111 -1 203 30t150 96.5t58 155.5q0 144 -196 190l-285 68q-131 31 -201 113t-70 200q0 125 73.5 220t194.5 143.5
t270 48.5q201 0 328.5 -93t141.5 -266l-152 -58q1 143 -89.5 211.5t-245.5 70.5q-160 2 -266 -70.5t-106 -199.5q0 -83 45 -124.5t147 -65.5zM494 -102q46 0 71 -29t25 -79q0 -87 -60.5 -172t-148.5 -150l-48 60q115 83 144 180h-4q-38 0 -61.5 24.5t-23.5 61.5q0 42 31 73
t75 31z" />
    <glyph glyph-name="uni0219" unicode="&#x219;" horiz-adv-x="1024" 
d="M416 606l271 -55q225 -47 225 -245q0 -155 -127 -243t-328 -88q-189 0 -301.5 79t-125.5 225l139 43q8 -213 289 -217q81 -1 148.5 16.5t113 61t45.5 106.5q0 103 -130 130l-265 55q-106 22 -165 86t-59 166q0 147 121.5 231t310.5 84q184 0 293 -79.5t121 -213.5
l-141 -43q-5 201 -277 205q-79 1 -140.5 -15.5t-102.5 -57t-41 -102.5q0 -58 33 -87.5t93 -41.5zM421 -102q46 0 71 -29t25 -79q0 -87 -60.5 -172t-148.5 -150l-48 60q115 83 144 180h-4q-38 0 -61.5 24.5t-23.5 61.5q0 42 30.5 73t75.5 31z" />
    <glyph glyph-name="uni021A" unicode="&#x21a;" horiz-adv-x="1106" 
d="M180 1352h1046l-26 -139h-447l-215 -1213h-150l215 1213h-448zM430 -102q46 0 71 -29t25 -79q0 -87 -60.5 -172t-148.5 -150l-48 60q116 84 145 180h-4q-38 0 -61.5 24.5t-23.5 61.5q0 43 30.5 73.5t74.5 30.5z" />
    <glyph glyph-name="uni021B" unicode="&#x21b;" horiz-adv-x="750" 
d="M757 885h-306l-100 -560q-20 -110 11 -159.5t123 -49.5q72 0 138 17v-127q-100 -20 -166 -20q-153 0 -218.5 88t-38.5 238l101 573h-214l24 131h212l112 284h88l-49 -284h305zM325 -102q46 0 71 -29t25 -79q0 -87 -60.5 -172t-148.5 -150l-48 60q115 83 144 180h-4
q-38 0 -61.5 24.5t-23.5 61.5q0 42 30.5 73t75.5 31z" />
    <glyph glyph-name="uni021E" unicode="&#x21e;" horiz-adv-x="1362" 
d="M1235 1804l-289 -308h-178l-184 308h136l148 -212l229 212h138zM1104 750l106 602h150l-240 -1352h-149l108 611h-758l-109 -611h-150l240 1352h150l-107 -602h759z" />
    <glyph glyph-name="uni021F" unicode="&#x21f;" horiz-adv-x="1184" 
d="M782 1806l-288 -308h-179l-184 308h136l149 -212l228 212h138zM732 1040q180 0 269.5 -118.5t54.5 -310.5l-110 -611h-148l107 599q29 156 -29.5 234.5t-190.5 78.5q-133 0 -234 -83t-133 -223l-106 -606h-150l259 1458l151 17l-103 -587q144 152 363 152z" />
    <glyph glyph-name="uni0226" unicode="&#x226;" horiz-adv-x="1295" 
d="M840 1528q-45 0 -75.5 29t-30.5 71q0 53 35 87.5t87 34.5q46 0 75.5 -29t29.5 -73q0 -53 -35.5 -86.5t-85.5 -33.5zM1176 0h-164l-58 294h-683l-160 -294h-171l761 1352h188zM771 1210l-425 -778h582l-151 778h-6z" />
    <glyph glyph-name="uni0227" unicode="&#x227;" horiz-adv-x="1304" 
d="M741 1192q-45 0 -75 29t-30 71q0 53 35 87.5t87 34.5q46 0 75 -29t29 -73q0 -53 -35.5 -86.5t-85.5 -33.5zM1062 836l52 180h128l-180 -1016h-128l13 172q-80 -92 -190.5 -144.5t-241.5 -52.5q-200 0 -326.5 123t-126.5 318q0 115 47 227t128 200t200 142.5t253 54.5
q127 0 223.5 -53t148.5 -151zM529 108q101 0 192.5 43.5t154 113t99 155.5t36.5 171q0 140 -91.5 228.5t-236.5 88.5q-103 0 -193 -44t-149 -114t-93 -157t-34 -174q0 -138 87 -224.5t228 -86.5z" />
    <glyph glyph-name="uni0228" unicode="&#x228;" horiz-adv-x="1169" 
d="M1227 1352l-26 -139h-775l-82 -463h715l-26 -138h-712l-84 -474h776l-26 -138h-925l240 1352h925zM435 -402h-182l200 328h132z" />
    <glyph glyph-name="uni0229" unicode="&#x229;" 
d="M1147 462h-927q-2 -24 -2 -38q0 -150 84.5 -234t237.5 -84q125 0 237 59.5t177 161.5l118 -77q-90 -128 -233.5 -201.5t-310.5 -73.5q-208 0 -335.5 120t-127.5 323q0 93 28.5 183.5t84 169.5t131 139.5t177 95.5t214.5 35q212 0 338 -124.5t126 -320.5q0 -85 -17 -134z
M691 910q-158 0 -275.5 -90.5t-167.5 -228.5h767v15q0 134 -90 219t-234 85zM430 -402h-182l199 328h133z" />
    <glyph glyph-name="uni022A" unicode="&#x22a;" horiz-adv-x="1560" 
d="M1321 1868h-633l21 115h633zM740 1530q-42 0 -69 26t-27 64q0 48 33 79.5t80 31.5q43 0 69.5 -26t26.5 -66q0 -48 -34 -78.5t-79 -30.5zM1177 1530q-42 0 -69.5 26t-27.5 64q0 48 33 79.5t80 31.5q43 0 69.5 -26t26.5 -66q0 -48 -33.5 -78.5t-78.5 -30.5zM698 -25
q-137 0 -252 46.5t-191.5 127t-118.5 188.5t-42 232q0 119 39.5 237t114.5 220t175 180.5t230 124t271 45.5q183 0 322 -80t211 -213t72 -297q0 -150 -63 -296t-171 -260t-265 -184.5t-332 -70.5zM710 116q139 0 264 57t210.5 150t136 212t50.5 242q0 199 -126.5 329
t-332.5 130q-138 0 -263 -57t-210.5 -149t-136 -210.5t-50.5 -240.5q0 -201 126 -332t332 -131z" />
    <glyph glyph-name="uni022B" unicode="&#x22b;" horiz-adv-x="1236" 
d="M1098 1521h-633l20 115h634zM517 1183q-42 0 -69 26t-27 64q0 48 33 79t80 31q43 0 69.5 -25.5t26.5 -65.5q0 -48 -34 -78.5t-79 -30.5zM953 1183q-42 0 -69 26t-27 64q0 48 33 79t80 31q43 0 69.5 -25.5t26.5 -65.5q0 -48 -34 -78.5t-79 -30.5zM535 -25q-214 0 -342 125
t-128 321q0 118 49.5 231t133 199t203 138t251.5 52q210 0 340 -124t130 -321q0 -157 -82 -299.5t-230 -232t-325 -89.5zM544 108q131 0 241.5 68.5t172 179t61.5 233.5q0 143 -89.5 231t-238.5 88q-131 0 -241 -68.5t-171 -179t-61 -233.5q0 -143 89 -231t237 -88z" />
    <glyph glyph-name="uni022C" unicode="&#x22c;" horiz-adv-x="1560" 
d="M1341 1898h-632l20 116h634zM1120 1524q-43 0 -87 19.5t-74 43t-62 43t-53 19.5q-43 0 -64.5 -33t-23.5 -80h-119q11 108 61.5 168t140.5 60q42 0 86 -19.5t74 -43t62.5 -43t54.5 -19.5q42 0 63.5 33.5t23.5 79.5h120q-12 -108 -62.5 -168t-140.5 -60zM698 -25
q-137 0 -252 46.5t-191.5 127t-118.5 188.5t-42 232q0 119 39.5 237t114.5 220t175 180.5t230 124t271 45.5q183 0 322 -80t211 -213t72 -297q0 -150 -63 -296t-171 -260t-265 -184.5t-332 -70.5zM710 116q139 0 264 57t210.5 150t136 212t50.5 242q0 199 -126.5 329
t-332.5 130q-138 0 -263 -57t-210.5 -149t-136 -210.5t-50.5 -240.5q0 -201 126 -332t332 -131z" />
    <glyph glyph-name="uni022D" unicode="&#x22d;" horiz-adv-x="1236" 
d="M1118 1551h-633l21 116h634zM897 1177q-55 0 -109.5 31.5t-97.5 62.5t-69 31q-44 0 -65.5 -33.5t-23.5 -79.5h-118q11 108 61 168t140 60q42 0 86 -19.5t74 -43t63 -43t55 -19.5q42 0 63.5 33.5t23.5 79.5h120q-12 -108 -62.5 -168t-140.5 -60zM535 -25q-214 0 -342 125
t-128 321q0 118 49.5 231t133 199t203 138t251.5 52q210 0 340 -124t130 -321q0 -157 -82 -299.5t-230 -232t-325 -89.5zM544 108q131 0 241.5 68.5t172 179t61.5 233.5q0 143 -89.5 231t-238.5 88q-131 0 -241 -68.5t-171 -179t-61 -233.5q0 -143 89 -231t237 -88z" />
    <glyph glyph-name="uni022E" unicode="&#x22e;" horiz-adv-x="1560" 
d="M971 1528q-45 0 -75.5 29t-30.5 71q0 53 35 87.5t87 34.5q46 0 75.5 -29t29.5 -73q0 -53 -35.5 -86.5t-85.5 -33.5zM698 -25q-137 0 -252 46.5t-191.5 127t-118.5 188.5t-42 232q0 119 39.5 237t114.5 220t175 180.5t230 124t271 45.5q183 0 322 -80t211 -213t72 -297
q0 -150 -63 -296t-171 -260t-265 -184.5t-332 -70.5zM710 116q139 0 264 57t210.5 150t136 212t50.5 242q0 199 -126.5 329t-332.5 130q-138 0 -263 -57t-210.5 -149t-136 -210.5t-50.5 -240.5q0 -201 126 -332t332 -131z" />
    <glyph glyph-name="uni022F" unicode="&#x22f;" horiz-adv-x="1236" 
d="M748 1181q-45 0 -75.5 29t-30.5 71q0 53 35 87.5t87 34.5q46 0 75 -29.5t29 -73.5q0 -53 -35 -86t-85 -33zM535 -25q-214 0 -342 125t-128 321q0 118 49.5 231t133 199t203 138t251.5 52q210 0 340 -124t130 -321q0 -157 -82 -299.5t-230 -232t-325 -89.5zM544 108
q131 0 241.5 68.5t172 179t61.5 233.5q0 143 -89.5 231t-238.5 88q-131 0 -241 -68.5t-171 -179t-61 -233.5q0 -143 89 -231t237 -88z" />
    <glyph glyph-name="uni0230" unicode="&#x230;" horiz-adv-x="1560" 
d="M1325 1807h-633l21 116h634zM971 1528q-45 0 -75.5 29t-30.5 71q0 53 35 87.5t87 34.5q46 0 75.5 -29t29.5 -73q0 -53 -35.5 -86.5t-85.5 -33.5zM698 -25q-137 0 -252 46.5t-191.5 127t-118.5 188.5t-42 232q0 119 39.5 237t114.5 220t175 180.5t230 124t271 45.5
q183 0 322 -80t211 -213t72 -297q0 -150 -63 -296t-171 -260t-265 -184.5t-332 -70.5zM710 116q139 0 264 57t210.5 150t136 212t50.5 242q0 199 -126.5 329t-332.5 130q-138 0 -263 -57t-210.5 -149t-136 -210.5t-50.5 -240.5q0 -201 126 -332t332 -131z" />
    <glyph glyph-name="uni0231" unicode="&#x231;" horiz-adv-x="1236" 
d="M1102 1460h-633l20 116h634zM748 1181q-45 0 -75.5 29t-30.5 71q0 53 35 87.5t87 34.5q46 0 75 -29.5t29 -73.5q0 -53 -35 -86t-85 -33zM535 -25q-214 0 -342 125t-128 321q0 118 49.5 231t133 199t203 138t251.5 52q210 0 340 -124t130 -321q0 -157 -82 -299.5
t-230 -232t-325 -89.5zM544 108q131 0 241.5 68.5t172 179t61.5 233.5q0 143 -89.5 231t-238.5 88q-131 0 -241 -68.5t-171 -179t-61 -233.5q0 -143 89 -231t237 -88z" />
    <glyph glyph-name="uni0232" unicode="&#x232;" horiz-adv-x="1150" 
d="M1077 1553h-633l21 116h634zM558 0h-149l88 488l-347 864h159l276 -730h4l537 730h176l-656 -864z" />
    <glyph glyph-name="uni0233" unicode="&#x233;" horiz-adv-x="1182" 
d="M419 1333h634l-22 -115h-633zM889 544l83 472h149l-176 -992q-35 -197 -188.5 -323.5t-356.5 -126.5q-165 0 -277.5 83t-137.5 217l139 59q6 -108 82 -168.5t195 -60.5q151 0 261 89t134 224l21 120q-144 -152 -366 -152q-178 0 -267.5 118t-55.5 308l109 605h149
l-108 -593q-28 -154 29.5 -231.5t190.5 -77.5q139 0 242 87t129 237l19 106h1z" />
    <glyph glyph-name="uni0237" unicode="&#x237;" horiz-adv-x="449" 
d="M-85 -426q-65 0 -129 16l29 125q54 -9 85 -9q57 0 87 30t41 92l211 1188h149l-213 -1205q-20 -114 -87 -175.5t-173 -61.5z" />
    <glyph glyph-name="uni0243" unicode="&#x243;" horiz-adv-x="1249" 
d="M976 705q84 -31 132.5 -106t48.5 -175q0 -83 -34 -160t-94.5 -136t-151 -94.5t-195.5 -35.5l-620 2l56 312h-131l22 131h132l161 909h560q157 0 253.5 -80.5t96.5 -210.5q0 -115 -66 -212.5t-170 -143.5zM1051 1032q0 87 -57 134.5t-166 47.5h-401l-81 -454h408
q128 0 212.5 76t84.5 196zM236 137h448q71 0 128.5 20t92.5 51t59 71t33 76.5t9 70.5q0 92 -58 144.5t-156 52.5h-470l-32 -180h287l-23 -131h-287z" />
    <glyph glyph-name="uni0244" unicode="&#x244;" horiz-adv-x="1332" 
d="M1190 1352h149l-96 -548h90l-20 -131h-92l-26 -145q-46 -260 -211.5 -406.5t-400.5 -146.5q-244 0 -362 150.5t-73 412.5l24 135h-95l20 131h99l96 548h149l-98 -548h751zM1047 537l23 136h-751l-25 -145q-36 -200 41.5 -307t254.5 -107q183 0 302.5 111.5t154.5 311.5z
" />
    <glyph glyph-name="uni0245" unicode="&#x245;" horiz-adv-x="1295" 
d="M111 0h-171l761 1352h188l287 -1352h-164l-235 1209h-6z" />
    <glyph glyph-name="uni024C" unicode="&#x24c;" horiz-adv-x="1226" 
d="M302 1352h543q211 0 320.5 -124.5t75.5 -318.5q-25 -145 -130 -251t-261 -147l229 -511h-170l-215 489h-17h-379l-86 -489h-150l88 493h-161l22 132h162zM1087 928q23 126 -44.5 205.5t-205.5 79.5h-411l-103 -586h384q155 0 255.5 83.5t124.5 217.5z" />
    <glyph glyph-name="uni024D" unicode="&#x24d;" horiz-adv-x="680" 
d="M681 1033h61l-27 -154h-90q-123 0 -202 -69t-100 -188l-9 -48h227l-21 -131h-229l-78 -443h-150l79 443h-164l21 131h167l78 442h128l-13 -153q51 78 134.5 124t187.5 46z" />
    <glyph glyph-name="uni0254" unicode="&#x254;" horiz-adv-x="1176" 
d="M657 1040q207 0 331 -122t124 -320q0 -116 -45.5 -228t-125.5 -200t-200.5 -142t-258.5 -54q-170 0 -284 77t-157 209l139 59q27 -98 110.5 -154.5t203.5 -56.5q134 0 242.5 72t165 181.5t56.5 229.5q0 144 -84 230.5t-225 86.5q-119 0 -227.5 -56t-174.5 -165l-121 77
q92 130 230 203t301 73z" />
    <glyph glyph-name="uni0259" unicode="&#x259;" 
d="M700 1040q209 0 336.5 -120t127.5 -322q0 -117 -45.5 -228.5t-126.5 -199.5t-202.5 -142t-261.5 -54q-212 0 -337.5 125t-125.5 321q0 85 17 134h927q2 24 2 38q0 150 -84.5 233.5t-237.5 83.5q-125 0 -237.5 -59t-177.5 -161l-117 77q90 128 233 201t310 73zM538 105
q158 0 275.5 91t167.5 229h-767v-15q0 -134 90 -219.5t234 -85.5z" />
    <glyph glyph-name="uni025B" unicode="&#x25b;" horiz-adv-x="1024" 
d="M436 109q119 0 203.5 44.5t124.5 131.5l128 -67q-137 -236 -463 -236q-170 0 -274.5 67.5t-104.5 191.5q0 121 73.5 194.5t205.5 99.5q-78 25 -120 77.5t-42 126.5q0 142 124.5 226t318.5 84q152 0 249.5 -61.5t123.5 -185.5l-146 -48q-12 169 -235 169
q-129 0 -210 -54.5t-81 -140.5q0 -69 59 -104t166 -35h146l-23 -123h-146q-78 0 -136.5 -15t-91 -37.5t-52 -52.5t-25.5 -54.5t-6 -50.5q0 -71 63 -109t171 -38z" />
    <glyph glyph-name="uni0268" unicode="&#x268;" horiz-adv-x="455" 
d="M358 1192q-45 0 -75 29t-30 71q0 53 35 87.5t87 34.5q46 0 75 -29t29 -73q0 -53 -35.5 -86.5t-85.5 -33.5zM317 594h197l-20 -131h-200l-82 -463h-150l82 463h-192l20 131h196l75 422h149z" />
    <glyph glyph-name="uni0272" unicode="&#x272;" horiz-adv-x="1180" 
d="M728 1037q179 0 268 -118t56 -308l-110 -611h-149l108 599q29 154 -29.5 231.5t-190.5 77.5q-134 0 -236 -83t-132 -222l-138 -792q-21 -116 -89 -176.5t-173 -60.5q-63 0 -127 16l29 125q54 -9 81 -9q111 0 132 122l211 1188h128l-9 -135q143 156 370 156z" />
    <glyph glyph-name="uni0283" unicode="&#x283;" horiz-adv-x="449" 
d="M-168 -426q-87 0 -176 23l36 124q56 -16 135 -16q50 0 88.5 15t60 35t37 51t21 52.5t10.5 49.5l222 1259q27 150 121 230t237 80q87 0 176 -23l-36 -125q-60 17 -135 17q-50 0 -88.5 -15t-60 -35t-37 -51t-21 -52.5t-10.5 -49.5l-223 -1260q-27 -150 -120 -229.5
t-237 -79.5z" />
    <glyph glyph-name="uni0289" unicode="&#x289;" horiz-adv-x="1180" 
d="M1055 631h98l-24 -131h-97l-15 -85q-37 -207 -173.5 -321t-338.5 -114q-205 0 -306 118.5t-65 325.5l13 76h-98l24 131h98l68 385h149l-69 -385h586l69 385h149zM867 418l15 82h-586l-16 -90q-26 -140 36.5 -219t195.5 -79q138 0 233.5 81.5t121.5 224.5z" />
    <glyph glyph-name="uni028C" unicode="&#x28c;" horiz-adv-x="1017" 
d="M100 0h-170l577 1016h180l220 -1016h-159l-169 883h-5z" />
    <glyph glyph-name="uni02BC" unicode="&#x2bc;" horiz-adv-x="356" 
d="M336 1456q49 0 75.5 -31.5t26.5 -85.5q0 -104 -66.5 -210.5t-169.5 -173.5l-52 69q138 103 167 223h-3q-42 0 -69 27.5t-27 68.5q0 45 33.5 79t84.5 34z" />
    <glyph glyph-name="circumflex" unicode="&#x2c6;" horiz-adv-x="815" 
d="M335 1161h-138l288 308h180l183 -308h-136l-149 212z" />
    <glyph glyph-name="caron" unicode="&#x2c7;" horiz-adv-x="815" 
d="M614 1161h-178l-184 308h136l149 -212l228 212h138z" />
    <glyph glyph-name="breve" unicode="&#x2d8;" horiz-adv-x="771" 
d="M502 1155q-139 0 -207.5 88t-44.5 221h116q-14 -88 24.5 -141.5t121.5 -53.5t146 54.5t80 140.5h120q-25 -134 -121.5 -221.5t-234.5 -87.5z" />
    <glyph glyph-name="dotaccent" unicode="&#x2d9;" horiz-adv-x="392" 
d="M329 1193q-45 0 -75.5 29t-30.5 71q0 53 35 87.5t87 34.5q46 0 75.5 -29t29.5 -73q0 -53 -35.5 -86.5t-85.5 -33.5z" />
    <glyph glyph-name="ring" unicode="&#x2da;" horiz-adv-x="610" 
d="M424 1133q-86 0 -140.5 53.5t-54.5 136.5q0 103 76 177t179 74q86 0 140.5 -54t54.5 -137q0 -103 -76.5 -176.5t-178.5 -73.5zM434 1231q54 0 96 42t42 102q0 43 -28 72t-70 29q-55 0 -96.5 -42.5t-41.5 -102.5q0 -43 27.5 -71.5t70.5 -28.5z" />
    <glyph glyph-name="ogonek" unicode="&#x2db;" horiz-adv-x="522" 
d="M159 -461q-105 0 -165.5 63t-42.5 166q34 189 309 297l56 -65q-94 -44 -159 -106t-76 -131q-10 -58 20.5 -90.5t88.5 -32.5q27 0 72 10l10 -99q-51 -12 -113 -12z" />
    <glyph glyph-name="tilde" unicode="&#x2dc;" horiz-adv-x="812" 
d="M688 1189q-55 0 -109.5 31.5t-97.5 62.5t-69 31q-43 0 -64.5 -33t-23.5 -80h-119q11 108 61.5 168.5t140.5 60.5q42 0 86 -19.5t74 -43t62.5 -43t54.5 -19.5q42 0 63.5 33t23.5 79h120q-12 -108 -62.5 -168t-140.5 -60z" />
    <glyph glyph-name="hungarumlaut" unicode="&#x2dd;" horiz-adv-x="836" 
d="M337 1167h-138l233 309h182zM647 1167h-138l233 309h183z" />
    <glyph glyph-name="gravecomb" unicode="&#x300;" horiz-adv-x="0" 
d="M35 1167h-133l-196 309h186z" />
    <glyph glyph-name="acutecomb" unicode="&#x301;" horiz-adv-x="0" 
d="M-214 1167h-140l249 309h194z" />
    <glyph glyph-name="uni0302" unicode="&#x302;" horiz-adv-x="0" 
d="M-480 1161h-138l288 308h179l184 -308h-136l-149 212z" />
    <glyph glyph-name="tildecomb" unicode="&#x303;" horiz-adv-x="0" 
d="M-124 1189q-55 0 -109.5 31.5t-97.5 62.5t-69 31q-43 0 -64.5 -33t-23.5 -80h-119q11 108 61 168.5t140 60.5q42 0 86 -19.5t74 -43t63 -43t55 -19.5q42 0 63.5 33t23.5 79h120q-12 -108 -62.5 -168t-140.5 -60z" />
    <glyph glyph-name="uni0304" unicode="&#x304;" horiz-adv-x="0" 
d="M43 1219h-633l21 115h634z" />
    <glyph glyph-name="uni0306" unicode="&#x306;" horiz-adv-x="0" 
d="M-269 1155q-139 0 -207.5 88t-44.5 221h115q-14 -88 25 -141.5t122 -53.5t146 54.5t80 140.5h120q-25 -134 -121.5 -221.5t-234.5 -87.5z" />
    <glyph glyph-name="uni0307" unicode="&#x307;" horiz-adv-x="0" 
d="M-63 1193q-45 0 -75.5 29t-30.5 71q0 53 35 87.5t87 34.5q46 0 75 -29t29 -73q0 -53 -35 -86.5t-85 -33.5z" />
    <glyph glyph-name="uni0308" unicode="&#x308;" horiz-adv-x="0" 
d="M-492 1195q-42 0 -69 26t-27 64q0 48 33 79.5t80 31.5q43 0 69.5 -25.5t26.5 -65.5q0 -48 -34 -79t-79 -31zM-55 1195q-42 0 -69.5 26t-27.5 64q0 48 33 79.5t80 31.5q43 0 69.5 -25.5t26.5 -65.5q0 -48 -33.5 -79t-78.5 -31z" />
    <glyph glyph-name="hookabovecomb" unicode="&#x309;" horiz-adv-x="0" 
d="M35 1207l-118 -82l-56 73l107 90q19 17 30 28t20.5 28t9.5 34q0 39 -39 39q-27 0 -47.5 -22.5t-26.5 -57.5l-108 43q22 63 73.5 101t118.5 38q68 0 109.5 -36.5t41.5 -98.5q0 -56 -29.5 -97.5t-85.5 -79.5z" />
    <glyph glyph-name="uni030A" unicode="&#x30a;" horiz-adv-x="0" 
d="M-186 1133q-86 0 -140.5 53.5t-54.5 136.5q0 103 76 177t179 74q86 0 140.5 -54t54.5 -137q0 -103 -76.5 -176.5t-178.5 -73.5zM-176 1231q54 0 96 42t42 102q0 43 -28 72t-70 29q-55 0 -96.5 -42.5t-41.5 -102.5q0 -43 27.5 -71.5t70.5 -28.5z" />
    <glyph glyph-name="uni030B" unicode="&#x30b;" horiz-adv-x="0" 
d="M-500 1167h-138l234 309h182zM-189 1167h-139l234 309h182z" />
    <glyph glyph-name="uni030C" unicode="&#x30c;" horiz-adv-x="0" 
d="M-201 1161h-178l-184 308h136l148 -212l229 212h138z" />
    <glyph glyph-name="uni0312" unicode="&#x312;" horiz-adv-x="0" 
d="M-44 1347q38 0 61.5 -24.5t23.5 -61.5q0 -43 -30.5 -73.5t-75.5 -30.5q-46 0 -71 29t-25 79q0 87 60.5 172t148.5 150l48 -60q-115 -83 -144 -180h4z" />
    <glyph glyph-name="uni031B" unicode="&#x31b;" horiz-adv-x="0" 
d="M-185 644h-76l20 120h58q61 0 87 30t36 90l30 166h136l-34 -199q-19 -104 -82 -155.5t-175 -51.5z" />
    <glyph glyph-name="dotbelowcomb" unicode="&#x323;" horiz-adv-x="0" 
d="M-335 -346q-45 0 -75 29t-30 71q0 53 35 87.5t87 34.5q46 0 75 -29t29 -73q0 -53 -35.5 -86.5t-85.5 -33.5z" />
    <glyph glyph-name="uni0324" unicode="&#x324;" horiz-adv-x="0" 
d="M-760 -323q-41 0 -68.5 26.5t-27.5 64.5q0 48 33 79t80 31q43 0 69.5 -25.5t26.5 -65.5q0 -48 -34 -79t-79 -31zM-324 -323q-41 0 -68.5 26.5t-27.5 64.5q0 48 33 79t80 31q43 0 69.5 -25.5t26.5 -65.5q0 -48 -34 -79t-79 -31z" />
    <glyph glyph-name="uni0325" unicode="&#x325;" horiz-adv-x="0" 
d="M-475 -508q-86 0 -140.5 54t-54.5 137q0 103 76 176.5t179 73.5q86 0 140.5 -53.5t54.5 -136.5q0 -103 -76.5 -177t-178.5 -74zM-465 -410q54 0 96 42.5t42 102.5q0 43 -27.5 71.5t-70.5 28.5q-55 0 -96.5 -42t-41.5 -102q0 -43 28 -72t70 -29z" />
    <glyph glyph-name="uni0326" unicode="&#x326;" horiz-adv-x="0" 
d="M-307 -102q46 0 71 -29t25 -79q0 -87 -60.5 -172t-148.5 -150l-48 60q115 83 144 180h-4q-38 0 -61.5 24.5t-23.5 61.5q0 42 30.5 73t75.5 31z" />
    <glyph glyph-name="uni0327" unicode="&#x327;" horiz-adv-x="0" 
d="M-334 -402h-182l200 328h132z" />
    <glyph glyph-name="uni0328" unicode="&#x328;" horiz-adv-x="0" 
d="M-364 -461q-104 0 -164.5 63t-42.5 166q34 189 309 297l56 -65q-94 -44 -159 -106t-76 -131q-10 -58 20.5 -90.5t88.5 -32.5q27 0 72 10l10 -99q-51 -12 -114 -12z" />
    <glyph glyph-name="uni032D" unicode="&#x32d;" horiz-adv-x="0" 
d="M-755 -396h-138l289 308h179l183 -308h-136l-148 212z" />
    <glyph glyph-name="uni032E" unicode="&#x32e;" horiz-adv-x="0" 
d="M-542 -394q-139 0 -207.5 88t-44.5 221h116q-14 -88 25 -142t122 -54q82 0 145.5 55t80.5 141h120q-25 -134 -122 -221.5t-235 -87.5z" />
    <glyph glyph-name="uni0330" unicode="&#x330;" horiz-adv-x="0" 
d="M-392 -332q-43 0 -87.5 19.5t-74 43t-62 43t-53.5 19.5q-44 0 -65 -32.5t-23 -79.5h-119q11 108 61.5 168t140.5 60q42 0 86 -19.5t74 -43t63 -43t55 -19.5q42 0 63.5 33.5t23.5 79.5h120q-12 -108 -62.5 -168.5t-140.5 -60.5z" />
    <glyph glyph-name="uni0331" unicode="&#x331;" horiz-adv-x="0" 
d="M-217 -258h-633l21 116h633z" />
    <glyph glyph-name="uni0337" unicode="&#x337;" horiz-adv-x="0" 
d="M32 799l-474 -222l23 131l473 223z" />
    <glyph glyph-name="uni0338" unicode="&#x338;" horiz-adv-x="0" 
d="M31 1150l-835 -1326l-89 43l835 1328z" />
    <glyph glyph-name="uni0340" unicode="&#x340;" horiz-adv-x="0" 
d="M35 1167h-133l-196 309h186z" />
    <glyph glyph-name="uni0374" unicode="&#x374;" horiz-adv-x="398" 
d="M262 798h-130l193 554h172z" />
    <glyph glyph-name="uni0375" unicode="&#x375;" horiz-adv-x="400" 
d="M57 -370h-130l193 554h172z" />
    <glyph glyph-name="uni037E" unicode="&#x37e;" horiz-adv-x="419" 
d="M232 703q42 0 70.5 -28t28.5 -69q0 -51 -37.5 -84.5t-82.5 -33.5q-43 0 -70.5 28.5t-27.5 71.5q0 45 36 80t83 35zM139 196q54 0 82 -33t28 -88q0 -112 -69 -220.5t-178 -184.5l-57 72q144 105 178 233h-6q-43 0 -72 29.5t-29 73.5q0 50 36.5 84t86.5 34z" />
    <glyph glyph-name="tonos" unicode="&#x384;" horiz-adv-x="430" 
d="M327 1167h-130l142 329h181z" />
    <glyph glyph-name="dieresistonos" unicode="&#x385;" horiz-adv-x="818" 
d="M612 1389h-115l242 292h167zM326 1197q-37 0 -62.5 25.5t-25.5 63.5q0 40 31 69t73 29q37 0 62 -25.5t25 -63.5q0 -41 -31 -69.5t-72 -28.5zM751 1197q-37 0 -62 25.5t-25 63.5q0 40 31 69t73 29q37 0 62 -25.5t25 -63.5q0 -41 -31 -69.5t-73 -28.5z" />
    <glyph glyph-name="Alphatonos" unicode="&#x386;" horiz-adv-x="1295" 
d="M1176 0h-164l-58 294h-683l-160 -294h-171l761 1352h188zM355 1352h172l-199 -350h-130zM771 1210l-425 -778h582l-151 778h-6z" />
    <glyph glyph-name="anoteleia" unicode="&#x387;" horiz-adv-x="472" 
d="M232 446q-45 0 -73.5 28.5t-28.5 72.5q0 53 37 91.5t89 38.5q45 0 74.5 -30t29.5 -74q0 -52 -38 -89.5t-90 -37.5z" />
    <glyph glyph-name="Epsilontonos" unicode="&#x388;" horiz-adv-x="1169" 
d="M-87 1002l158 350h172l-200 -350h-130zM1227 1352l-26 -139h-775l-82 -463h715l-26 -138h-712l-84 -474h776l-26 -138h-925l240 1352h925z" />
    <glyph glyph-name="Etatonos" unicode="&#x389;" horiz-adv-x="1362" 
d="M-87 1002l158 350h172l-200 -350h-130zM1104 750l106 602h150l-240 -1352h-149l108 611h-758l-109 -611h-150l240 1352h150l-107 -602h759z" />
    <glyph glyph-name="Iotatonos" unicode="&#x38a;" horiz-adv-x="454" 
d="M43 1002h-130l158 350h172zM212 0h-150l240 1352h150z" />
    <glyph glyph-name="Omicrontonos" unicode="&#x38c;" horiz-adv-x="1560" 
d="M698 -25q-137 0 -252 46.5t-191.5 127t-118.5 188.5t-42 232q0 119 39.5 237t114.5 220t175 180.5t230 124t271 45.5q183 0 322 -80t211 -213t72 -297q0 -150 -63 -296t-171 -260t-265 -184.5t-332 -70.5zM88 1002h-130l158 350h172zM710 116q139 0 264 57t210.5 150
t136 212t50.5 242q0 199 -126.5 329t-332.5 130q-138 0 -263 -57t-210.5 -149t-136 -210.5t-50.5 -240.5q0 -201 126 -332t332 -131z" />
    <glyph glyph-name="Upsilontonos" unicode="&#x38e;" horiz-adv-x="1150" 
d="M-69 1002h-130l158 350h172zM558 0h-149l88 488l-347 864h159l276 -730h4l537 730h176l-656 -864z" />
    <glyph glyph-name="Omegatonos" unicode="&#x38f;" horiz-adv-x="1565" 
d="M1533 795q0 -207 -114 -380.5t-292 -277.5h279l-25 -137h-565l22 141q151 33 275 131.5t193.5 235t69.5 280.5q0 120 -54 221.5t-159.5 165t-241.5 63.5q-134 0 -258.5 -56t-214.5 -147.5t-144 -213t-54 -248.5q0 -161 93 -281t254 -155l-22 -137h-571l26 137h298
q-110 75 -172 190t-62 258q0 217 139 417h-119l157 350h172l-170 -297q121 147 295 234t364 87q140 0 255 -47t190 -127.5t115.5 -185t40.5 -221.5z" />
    <glyph glyph-name="iotadieresistonos" unicode="&#x390;" horiz-adv-x="485" 
d="M429 1388h-116l243 292h167zM142 1196q-37 0 -62.5 25.5t-25.5 63.5q0 40 31.5 69t73.5 29q37 0 62 -25.5t25 -63.5q0 -41 -31.5 -69.5t-72.5 -28.5zM567 1196q-37 0 -62 25.5t-25 63.5q0 40 31.5 69t73.5 29q37 0 62 -25.5t25 -63.5q0 -41 -31.5 -69.5t-73.5 -28.5z
M365 0h-41q-123 0 -179 75t-33 206l131 735h149l-129 -728q-14 -83 8.5 -120t95.5 -37h21z" />
    <glyph glyph-name="Alpha" unicode="&#x391;" horiz-adv-x="1295" 
d="M1176 0h-164l-58 294h-683l-160 -294h-171l761 1352h188zM771 1210l-425 -778h582l-151 778h-6z" />
    <glyph glyph-name="Beta" unicode="&#x392;" horiz-adv-x="1249" 
d="M976 705q84 -31 132.5 -106t48.5 -175q0 -83 -34 -160t-94.5 -136t-151 -94.5t-195.5 -35.5l-620 2l240 1352h560q157 0 253.5 -80.5t96.5 -210.5q0 -115 -66 -212.5t-170 -143.5zM1051 1032q0 87 -57 134.5t-166 47.5h-401l-81 -454h408q128 0 212.5 76t84.5 196z
M236 137h448q71 0 128.5 20t92.5 51t59 71t33 76.5t9 70.5q0 92 -58 144.5t-156 52.5h-470z" />
    <glyph glyph-name="Gamma" unicode="&#x393;" horiz-adv-x="1015" 
d="M212 0h-150l240 1352h843l-26 -139h-693z" />
    <glyph glyph-name="uni0394" unicode="&#x394;" horiz-adv-x="1310" 
d="M710 1352h186l276 -1215l-22 -137h-1167l23 137zM778 1214l-602 -1076h839l-231 1076h-6z" />
    <glyph glyph-name="Epsilon" unicode="&#x395;" horiz-adv-x="1169" 
d="M1227 1352l-26 -139h-775l-82 -463h715l-26 -138h-712l-84 -474h776l-26 -138h-925l240 1352h925z" />
    <glyph glyph-name="Zeta" unicode="&#x396;" horiz-adv-x="1097" 
d="M231 1352h935l-23 -127l-949 -1087h768l-25 -138h-955l23 127l948 1086h-747z" />
    <glyph glyph-name="Eta" unicode="&#x397;" horiz-adv-x="1362" 
d="M1104 750l106 602h150l-240 -1352h-149l108 611h-758l-109 -611h-150l240 1352h150l-107 -602h759z" />
    <glyph glyph-name="Theta" unicode="&#x398;" horiz-adv-x="1560" 
d="M698 -25q-137 0 -252 46.5t-191.5 127t-118.5 188.5t-42 232q0 119 39.5 237t114.5 220t175 180.5t230 124t271 45.5q183 0 322 -80t211 -213t72 -297q0 -150 -63 -296t-171 -260t-265 -184.5t-332 -70.5zM710 116q139 0 264 57t210.5 150t136 212t50.5 242
q0 199 -126.5 329t-332.5 130q-138 0 -263 -57t-210.5 -149t-136 -210.5t-50.5 -240.5q0 -201 126 -332t332 -131zM1113 609h-608l22 135h609z" />
    <glyph glyph-name="Iota" unicode="&#x399;" horiz-adv-x="454" 
d="M212 0h-150l240 1352h150z" />
    <glyph glyph-name="Kappa" unicode="&#x39a;" horiz-adv-x="1188" 
d="M1105 1352h201l-784 -668l564 -684h-192l-560 687l-122 -687h-150l240 1352h150l-117 -659z" />
    <glyph glyph-name="Lambda" unicode="&#x39b;" horiz-adv-x="1295" 
d="M111 0h-171l761 1352h188l287 -1352h-165l-236 1199h-6z" />
    <glyph glyph-name="Mu" unicode="&#x39c;" horiz-adv-x="1596" 
d="M211 0h-149l240 1352h177l286 -984h4l637 984h187l-239 -1352h-149l137 774q6 35 24.5 138t27.5 159h-4l-592 -907h-116l-278 907h-4q-24 -146 -51 -297z" />
    <glyph glyph-name="Nu" unicode="&#x39d;" horiz-adv-x="1362" 
d="M211 0h-149l240 1352h157l550 -1104h8q16 110 53 302l141 802h149l-240 -1352h-156l-551 1096h-9q-10 -73 -51 -302z" />
    <glyph glyph-name="Xi" unicode="&#x39e;" horiz-adv-x="1129" 
d="M1161 1213h-945l26 139h945zM1004 612h-842l24 138h843zM947 0h-945l26 138h945z" />
    <glyph glyph-name="Omicron" unicode="&#x39f;" horiz-adv-x="1560" 
d="M698 -25q-137 0 -252 46.5t-191.5 127t-118.5 188.5t-42 232q0 119 39.5 237t114.5 220t175 180.5t230 124t271 45.5q183 0 322 -80t211 -213t72 -297q0 -150 -63 -296t-171 -260t-265 -184.5t-332 -70.5zM710 116q139 0 264 57t210.5 150t136 212t50.5 242
q0 199 -126.5 329t-332.5 130q-138 0 -263 -57t-210.5 -149t-136 -210.5t-50.5 -240.5q0 -201 126 -332t332 -131z" />
    <glyph glyph-name="Pi" unicode="&#x3a0;" horiz-adv-x="1352" 
d="M302 1352h1048l-11 -58l-229 -1294h-149l215 1213h-750l-214 -1213h-150l214 1213l2 8l13 73h1z" />
    <glyph glyph-name="Rho" unicode="&#x3a1;" horiz-adv-x="1210" 
d="M302 1352h543q187 0 295.5 -98t108.5 -262q0 -60 -18 -124.5t-62 -133.5t-108.5 -122.5t-166.5 -88t-227 -34.5h-369l-86 -489h-150zM323 627h384q91 0 166.5 31.5t122.5 82.5t72.5 114.5t25.5 129.5q0 104 -70 166t-189 62h-409z" />
    <glyph glyph-name="Sigma" unicode="&#x3a3;" horiz-adv-x="1080" 
d="M231 1352h907l-26 -139h-717l349 -537l-543 -538h723l-26 -138h-914l21 127l555 557l-350 541z" />
    <glyph glyph-name="Tau" unicode="&#x3a4;" horiz-adv-x="1106" 
d="M180 1352h1046l-26 -139h-447l-215 -1213h-150l215 1213h-448z" />
    <glyph glyph-name="Upsilon" unicode="&#x3a5;" horiz-adv-x="1150" 
d="M558 0h-149l88 488l-347 864h159l276 -730h4l537 730h176l-656 -864z" />
    <glyph glyph-name="Phi" unicode="&#x3a6;" horiz-adv-x="1451" 
d="M930 1237h5q228 0 370 -128.5t142 -340.5q0 -135 -58 -256.5t-154.5 -208t-226.5 -137.5t-270 -51h-7l-24 -140h-150l25 140h-4q-232 0 -373.5 133t-141.5 340q0 177 95.5 326.5t258 236t353.5 86.5h10l25 139h149zM593 251h13l150 850h-5q-110 0 -209.5 -42t-169.5 -112
t-111.5 -163t-41.5 -193q-1 -152 101 -246t273 -94zM756 251h4q143 0 266.5 72t194.5 190.5t71 251.5q0 154 -103.5 245t-270.5 91h-13z" />
    <glyph glyph-name="Chi" unicode="&#x3a7;" horiz-adv-x="1235" 
d="M121 0h-181l610 692l-348 660h171l286 -574h5l495 574h178l-581 -660l360 -692h-169l-303 603h-4z" />
    <glyph glyph-name="Psi" unicode="&#x3a8;" horiz-adv-x="1353" 
d="M1162 901l80 451h150l-80 -451q-44 -253 -202.5 -399.5t-386.5 -154.5l-61 -347h-150l61 348q-223 12 -329.5 161.5t-61.5 399.5l79 443h150l-82 -459q-32 -185 37.5 -290.5t232.5 -113.5l153 863h149l-152 -863q161 10 271 120t142 292z" />
    <glyph glyph-name="uni03A9" unicode="&#x3a9;" horiz-adv-x="1565" 
d="M1533 795q0 -207 -114 -380.5t-292 -277.5h279l-25 -137h-565l22 141q151 33 275 131.5t193.5 235t69.5 280.5q0 120 -54 221.5t-159.5 165t-241.5 63.5q-134 0 -258.5 -56t-214.5 -147.5t-144 -213t-54 -248.5q0 -161 93 -281t254 -155l-22 -137h-571l26 137h298
q-110 75 -172 190t-62 258q0 149 69 294t182 254t268.5 176t318.5 67q140 0 255 -47t190 -127.5t115.5 -185t40.5 -221.5z" />
    <glyph glyph-name="Iotadieresis" unicode="&#x3aa;" horiz-adv-x="454" 
d="M187 1530q-42 0 -69 26t-27 64q0 48 33 79.5t80 31.5q43 0 69.5 -26t26.5 -66q0 -48 -34 -78.5t-79 -30.5zM624 1530q-42 0 -69.5 26t-27.5 64q0 48 33 79.5t80 31.5q43 0 69.5 -26t26.5 -66q0 -48 -33.5 -78.5t-78.5 -30.5zM212 0h-150l240 1352h150z" />
    <glyph glyph-name="Upsilondieresis" unicode="&#x3ab;" horiz-adv-x="1150" 
d="M536 1530q-42 0 -69.5 26t-27.5 64q0 48 33 79.5t80 31.5q43 0 69.5 -26t26.5 -66q0 -48 -33.5 -78.5t-78.5 -30.5zM972 1530q-42 0 -69 26t-27 64q0 48 32.5 79.5t79.5 31.5q43 0 69.5 -26t26.5 -66q0 -48 -33.5 -78.5t-78.5 -30.5zM558 0h-149l88 488l-347 864h159
l276 -730h4l537 730h176l-656 -864z" />
    <glyph glyph-name="alphatonos" unicode="&#x3ac;" horiz-adv-x="1304" 
d="M810 1496h181l-193 -329h-130zM1062 836l52 180h128l-180 -1016h-128l13 172q-80 -92 -190.5 -144.5t-241.5 -52.5q-200 0 -326.5 123t-126.5 318q0 115 47 227t128 200t200 142.5t253 54.5q127 0 223.5 -53t148.5 -151zM529 108q101 0 192.5 43.5t154 113t99 155.5
t36.5 171q0 140 -91.5 228.5t-236.5 88.5q-103 0 -193 -44t-149 -114t-93 -157t-34 -174q0 -138 87 -224.5t228 -86.5z" />
    <glyph glyph-name="epsilontonos" unicode="&#x3ad;" horiz-adv-x="1024" 
d="M717 1496h181l-193 -329h-131zM436 109q119 0 203.5 44.5t124.5 131.5l128 -67q-137 -236 -463 -236q-170 0 -274.5 67.5t-104.5 191.5q0 121 73.5 194.5t205.5 99.5q-78 25 -120 77.5t-42 126.5q0 142 124.5 226t318.5 84q152 0 249.5 -61.5t123.5 -185.5l-146 -48
q-12 169 -235 169q-129 0 -210 -54.5t-81 -140.5q0 -69 59 -104t166 -35h146l-23 -123h-146q-78 0 -136.5 -15t-91 -37.5t-52 -52.5t-25.5 -54.5t-6 -50.5q0 -71 63 -109t171 -38z" />
    <glyph glyph-name="etatonos" unicode="&#x3ae;" horiz-adv-x="1188" 
d="M795 1496h181l-194 -329h-130zM732 1040q180 0 269 -118.5t55 -310.5l-182 -1025l-152 -16l183 1029q29 156 -29.5 234.5t-190.5 78.5q-137 0 -240 -87.5t-130 -236.5l-103 -588h-150l181 1016h128l-7 -133q144 157 368 157z" />
    <glyph glyph-name="iotatonos" unicode="&#x3af;" horiz-adv-x="485" 
d="M415 1167h-130l142 329h181zM365 0h-41q-123 0 -179 75t-33 206l131 735h149l-129 -728q-14 -83 8.5 -120t95.5 -37h21z" />
    <glyph glyph-name="upsilondieresistonos" unicode="&#x3b0;" horiz-adv-x="1180" 
d="M793 1388h-116l243 292h166zM506 1196q-37 0 -62.5 25.5t-25.5 63.5q0 40 31 69t73 29q37 0 62 -25.5t25 -63.5q0 -41 -31 -69.5t-72 -28.5zM931 1196q-37 0 -62 25.5t-25 63.5q0 40 31 69t73 29q37 0 62 -25.5t25 -63.5q0 -41 -31 -69.5t-73 -28.5zM505 -20
q-205 0 -306 118.5t-65 325.5l105 592h149l-108 -606q-26 -140 36 -219t196 -79q138 0 233.5 81.5t121.5 224.5l107 598h149l-106 -601q-36 -206 -173 -320.5t-339 -114.5z" />
    <glyph glyph-name="alpha" unicode="&#x3b1;" horiz-adv-x="1304" 
d="M1062 836l52 180h128l-180 -1016h-128l13 172q-80 -92 -190.5 -144.5t-241.5 -52.5q-200 0 -326.5 123t-126.5 318q0 115 47 227t128 200t200 142.5t253 54.5q127 0 223.5 -53t148.5 -151zM529 108q101 0 192.5 43.5t154 113t99 155.5t36.5 171q0 140 -91.5 228.5
t-236.5 88.5q-103 0 -193 -44t-149 -114t-93 -157t-34 -174q0 -138 87 -224.5t228 -86.5z" />
    <glyph glyph-name="beta" unicode="&#x3b2;" horiz-adv-x="1274" 
d="M938 770q114 -29 182 -113t68 -198q0 -142 -71.5 -253t-196.5 -171t-282 -60q-145 0 -244 58t-146 162l-108 -609l-153 -16l247 1396q42 239 201.5 374t379.5 135q177 0 287 -85.5t110 -239.5q0 -129 -76.5 -232.5t-197.5 -147.5zM642 108q183 0 287.5 94.5t104.5 254.5
q0 117 -68.5 175.5t-197.5 58.5h-111l23 132h59q141 0 230.5 96t89.5 218q0 103 -68.5 154.5t-186.5 51.5q-166 0 -278.5 -104t-145.5 -292l-79 -450q-6 -60 -1 -116t31 -106t65.5 -87t103 -58.5t142.5 -21.5z" />
    <glyph glyph-name="gamma" unicode="&#x3b3;" horiz-adv-x="1026" 
d="M928 1016h168l-595 -1016h-1l-73 -414l-154 -16l77 434l-239 1012h161l173 -856h5z" />
    <glyph glyph-name="delta" unicode="&#x3b4;" horiz-adv-x="1196" 
d="M329 1458h894l-25 -137h-675l461 -429q67 -62 106 -147t39 -182q0 -67 -22.5 -143.5t-73 -156t-120.5 -143.5t-175.5 -104.5t-227.5 -40.5q-201 0 -326.5 117.5t-125.5 306.5q0 71 21.5 147t70.5 153t119 138.5t176 102t232 44.5l-370 347zM980 558q0 134 -86.5 216.5
t-228.5 82.5q-126 0 -231.5 -64t-164.5 -167t-59 -219q0 -134 85.5 -216.5t227.5 -82.5q126 0 232 64.5t165.5 167.5t59.5 218z" />
    <glyph glyph-name="epsilon" unicode="&#x3b5;" horiz-adv-x="1024" 
d="M436 109q119 0 203.5 44.5t124.5 131.5l128 -67q-137 -236 -463 -236q-170 0 -274.5 67.5t-104.5 191.5q0 121 73.5 194.5t205.5 99.5q-78 25 -120 77.5t-42 126.5q0 142 124.5 226t318.5 84q152 0 249.5 -61.5t123.5 -185.5l-146 -48q-12 169 -235 169
q-129 0 -210 -54.5t-81 -140.5q0 -69 59 -104t166 -35h146l-23 -123h-146q-78 0 -136.5 -15t-91 -37.5t-52 -52.5t-25.5 -54.5t-6 -50.5q0 -71 63 -109t171 -38z" />
    <glyph glyph-name="zeta" unicode="&#x3b6;" horiz-adv-x="949" 
d="M1124 1331l-571 -468q-197 -162 -272 -263.5t-75 -224.5q0 -205 239 -266l157 -39q40 -10 65 -17.5t63 -26t60.5 -40t39.5 -57t17 -80.5q0 -105 -79 -226h-156q82 130 82 202q0 23 -10.5 41t-22.5 29t-36 21t-37 14t-40 11l-145 37q-49 13 -92 30.5t-92.5 49t-84.5 71.5
t-58.5 100.5t-23.5 132.5q0 76 24.5 147.5t58.5 124.5t97 116.5t110.5 104t128.5 105.5q13 10 19 15l431 346h-662l25 137h861z" />
    <glyph glyph-name="eta" unicode="&#x3b7;" horiz-adv-x="1188" 
d="M732 1040q180 0 269 -118.5t55 -310.5l-182 -1025l-152 -16l183 1029q29 156 -29.5 234.5t-190.5 78.5q-137 0 -240 -87.5t-130 -236.5l-103 -588h-150l181 1016h128l-7 -133q144 157 368 157z" />
    <glyph glyph-name="theta" unicode="&#x3b8;" horiz-adv-x="1185" 
d="M762 1476q232 0 323.5 -190t25.5 -571q-65 -371 -220.5 -555.5t-384.5 -184.5q-235 0 -328 191t-25 572q65 368 222.5 553t386.5 185zM749 1339q-163 0 -271 -133.5t-167 -419.5h662q43 286 -11.5 419.5t-212.5 133.5zM515 114q164 0 270 135t166 422h-661
q-45 -289 11 -423t214 -134z" />
    <glyph glyph-name="iota" unicode="&#x3b9;" horiz-adv-x="485" 
d="M365 0h-41q-123 0 -179 75t-33 206l131 735h149l-129 -728q-14 -83 8.5 -120t95.5 -37h21z" />
    <glyph glyph-name="kappa" unicode="&#x3ba;" horiz-adv-x="1035" 
d="M919 1016h206l-636 -496l456 -520h-188l-452 526l-93 -526h-150l181 1016h149l-86 -486z" />
    <glyph glyph-name="lambda" unicode="&#x3bb;" horiz-adv-x="1026" 
d="M637 1281l278 -1281h-159l-175 878h-4l-477 -878h-170l606 1059l-35 172q-7 32 -12 48.5t-17 35.5t-33.5 27t-54.5 8q-52 0 -124 -21l-12 131q86 23 165 23q48 0 86 -13.5t60.5 -33t39.5 -49.5t24 -52.5t14 -53.5z" />
    <glyph glyph-name="uni03BC" unicode="&#x3bc;" horiz-adv-x="1188" 
d="M876 433l102 583h149l-181 -1016h-128l6 132q-67 -72 -159 -112t-195 -40q-91 0 -157 39.5t-103 110.5l-70 -544l-153 -16l256 1446h149l-108 -605q-27 -151 29 -227t189 -76q139 0 243.5 88.5t130.5 236.5z" />
    <glyph glyph-name="nu" unicode="&#x3bd;" horiz-adv-x="1026" 
d="M515 0h-181l-223 1016h159l169 -881h4l483 881h170z" />
    <glyph glyph-name="xi" unicode="&#x3be;" horiz-adv-x="994" 
d="M732 1483q157 0 268 -79t142 -232l-144 -60q-26 240 -269 240q-144 0 -242 -85.5t-95 -209.5q3 -102 68.5 -150.5t206.5 -48.5h128l-23 -137h-164q-167 0 -278 -107.5t-106 -253.5q3 -103 65 -162t182 -89l156 -39q39 -10 62.5 -17t62.5 -25.5t61.5 -39.5t40 -57.5
t17.5 -81.5q0 -107 -78 -226h-156q81 129 81 202q0 50 -38.5 75.5t-107.5 40.5l-120 29q-182 45 -279.5 136t-100.5 241q-4 159 98 286.5t264 166.5q-189 64 -189 267q0 122 70 219t180.5 147t236.5 50z" />
    <glyph glyph-name="omicron" unicode="&#x3bf;" horiz-adv-x="1236" 
d="M535 -25q-214 0 -342 125t-128 321q0 118 49.5 231t133 199t203 138t251.5 52q210 0 340 -124t130 -321q0 -157 -82 -299.5t-230 -232t-325 -89.5zM544 108q131 0 241.5 68.5t172 179t61.5 233.5q0 143 -89.5 231t-238.5 88q-131 0 -241 -68.5t-171 -179t-61 -233.5
q0 -143 89 -231t237 -88z" />
    <glyph glyph-name="pi" unicode="&#x3c0;" horiz-adv-x="1169" 
d="M243 1017h864l-24 -132l-156 -885h-150l157 885h-565l-157 -885h-150l163 920z" />
    <glyph glyph-name="rho" unicode="&#x3c1;" horiz-adv-x="1290" 
d="M766 1041q203 0 332.5 -124t129.5 -317q0 -91 -29.5 -182t-85.5 -170.5t-131.5 -140.5t-174 -96.5t-205.5 -35.5q-128 0 -225 54t-149 150l-102 -593l-154 -16l166 934q27 155 121.5 279t227.5 191t279 67zM607 108q131 0 241 74t169 185t59 228q0 139 -88 226t-229 87
q-102 0 -193 -43.5t-152.5 -112.5t-97.5 -155t-36 -172q0 -139 92 -228t235 -89z" />
    <glyph glyph-name="uni03C2" unicode="&#x3c2;" horiz-adv-x="1154" 
d="M784 -377h-156q82 130 82 202q0 27 -12.5 48t-36.5 34t-45.5 20t-52.5 14l-123 29q-52 12 -100 32.5t-100 57t-90.5 82.5t-63 115t-24.5 150q0 129 50.5 247t136 202.5t202 134.5t243.5 50q168 0 280 -80t143 -205l-138 -60q-23 97 -103.5 154.5t-192.5 57.5
q-129 0 -237.5 -71t-169 -183t-60.5 -235q0 -115 62.5 -196.5t183.5 -113.5l155 -41q33 -9 45 -12.5t44.5 -15t48 -20.5t40.5 -27t36.5 -37t21 -46.5t9.5 -60.5q0 -107 -78 -226z" />
    <glyph glyph-name="sigma" unicode="&#x3c3;" horiz-adv-x="1259" 
d="M723 1016h617l-23 -131h-320q84 -71 121 -173t15 -226q-24 -143 -116.5 -261t-225 -184t-275.5 -66q-149 0 -259.5 66.5t-161 188.5t-24.5 275q38 219 220.5 365t427.5 146l5 -1zM982 506q28 163 -60 270.5t-243 107.5q-165 0 -297 -113.5t-162 -284.5
q-29 -163 58.5 -270.5t246.5 -107.5q162 0 294.5 113.5t162.5 284.5z" />
    <glyph glyph-name="tau" unicode="&#x3c4;" horiz-adv-x="775" 
d="M458 -14q-154 0 -219.5 88t-38.5 238l101 573h-214l24 131h689l-23 -131h-326l-100 -562q-19 -113 10.5 -160.5t120.5 -47.5q75 0 157 20l8 -131q-90 -18 -189 -18z" />
    <glyph glyph-name="upsilon" unicode="&#x3c5;" horiz-adv-x="1180" 
d="M505 -20q-205 0 -306 118.5t-65 325.5l105 592h149l-108 -606q-26 -140 36 -219t196 -79q138 0 233.5 81.5t121.5 224.5l107 598h149l-106 -601q-36 -206 -173 -320.5t-339 -114.5z" />
    <glyph glyph-name="phi" unicode="&#x3c6;" horiz-adv-x="1398" 
d="M1333 590q0 -121 -53 -231t-141.5 -188.5t-207 -125t-246.5 -46.5l-73 -413l-153 -16l76 429q-205 3 -337.5 120.5t-132.5 306.5q0 181 101.5 322.5t274.5 225.5l57 -136q-128 -57 -203 -166.5t-75 -236.5q0 -137 94.5 -220.5t243.5 -81.5l157 883h136q208 0 345 -116
t137 -310zM841 883l-132 -751q194 4 330.5 137.5t138.5 312.5q2 136 -91.5 220t-245.5 81z" />
    <glyph glyph-name="chi" unicode="&#x3c7;" horiz-adv-x="993" 
d="M104 0h-186l485 522l-282 494h173l219 -401h4l359 401h186l-466 -494l299 -522h-173l-235 425h-4z" />
    <glyph glyph-name="psi" unicode="&#x3c8;" horiz-adv-x="1391" 
d="M1084 456l100 560h149l-100 -564q-38 -218 -184.5 -343t-370.5 -129l-70 -394l-152 -16l72 410q-218 7 -322 136t-66 344l99 556h149l-100 -569q-27 -154 40 -242.5t224 -92.5l160 904h148l-159 -903q155 7 256 99.5t127 243.5z" />
    <glyph glyph-name="omega" unicode="&#x3c9;" horiz-adv-x="1733" 
d="M1445 1016h156q22 -107 19.5 -249t-27.5 -273q-25 -132 -75.5 -232.5t-118 -161t-144 -90.5t-161.5 -30q-101 0 -174.5 50t-107.5 142q-63 -93 -151 -142.5t-189 -49.5q-86 0 -154 29.5t-118.5 93.5t-66 165.5t5.5 246.5q21 123 68 263t102 238h162q-64 -115 -115.5 -268
t-71.5 -270q-30 -185 27 -275.5t166 -90.5q111 0 193.5 86.5t107.5 225.5l86 489h149l-88 -497q-25 -139 24 -221.5t150 -82.5q115 0 211 97t133 290q22 110 24.5 251.5t-22.5 265.5z" />
    <glyph glyph-name="iotadieresis" unicode="&#x3ca;" horiz-adv-x="485" 
d="M128 1194q-42 0 -69 26t-27 64q0 48 32.5 79.5t79.5 31.5q43 0 70 -26t27 -65q0 -48 -34 -79t-79 -31zM564 1194q-42 0 -69 26t-27 64q0 48 33 79.5t80 31.5q43 0 69.5 -25.5t26.5 -65.5q0 -48 -34 -79t-79 -31zM365 0h-41q-123 0 -179 75t-33 206l131 735h149l-129 -728
q-14 -83 8.5 -120t95.5 -37h21z" />
    <glyph glyph-name="upsilondieresis" unicode="&#x3cb;" horiz-adv-x="1180" 
d="M492 1194q-42 0 -69.5 26t-27.5 64q0 48 33 79.5t80 31.5q43 0 69.5 -25.5t26.5 -65.5q0 -48 -33.5 -79t-78.5 -31zM928 1194q-42 0 -69.5 26t-27.5 64q0 48 33 79.5t80 31.5q43 0 69.5 -25.5t26.5 -65.5q0 -48 -33.5 -79t-78.5 -31zM505 -20q-205 0 -306 118.5
t-65 325.5l105 592h149l-108 -606q-26 -140 36 -219t196 -79q138 0 233.5 81.5t121.5 224.5l107 598h149l-106 -601q-36 -206 -173 -320.5t-339 -114.5z" />
    <glyph glyph-name="omicrontonos" unicode="&#x3cc;" horiz-adv-x="1236" 
d="M804 1156h-130l142 329h181zM535 -25q-214 0 -342 125t-128 321q0 118 49.5 231t133 199t203 138t251.5 52q210 0 340 -124t130 -321q0 -157 -82 -299.5t-230 -232t-325 -89.5zM544 108q131 0 241.5 68.5t172 179t61.5 233.5q0 143 -89.5 231t-238.5 88
q-131 0 -241 -68.5t-171 -179t-61 -233.5q0 -143 89 -231t237 -88z" />
    <glyph glyph-name="upsilontonos" unicode="&#x3cd;" horiz-adv-x="1180" 
d="M778 1167h-130l143 329h181zM505 -20q-205 0 -306 118.5t-65 325.5l105 592h149l-108 -606q-26 -140 36 -219t196 -79q138 0 233.5 81.5t121.5 224.5l107 598h149l-106 -601q-36 -206 -173 -320.5t-339 -114.5z" />
    <glyph glyph-name="omegatonos" unicode="&#x3ce;" horiz-adv-x="1733" 
d="M1067 1496h181l-193 -329h-130zM1445 1016h156q22 -107 19.5 -249t-27.5 -273q-25 -132 -75.5 -232.5t-118 -161t-144 -90.5t-161.5 -30q-101 0 -174.5 50t-107.5 142q-63 -93 -151 -142.5t-189 -49.5q-86 0 -154 29.5t-118.5 93.5t-66 165.5t5.5 246.5q21 123 68 263
t102 238h162q-64 -115 -115.5 -268t-71.5 -270q-30 -185 27 -275.5t166 -90.5q111 0 193.5 86.5t107.5 225.5l86 489h149l-88 -497q-25 -139 24 -221.5t150 -82.5q115 0 211 97t133 290q22 110 24.5 251.5t-22.5 265.5z" />
    <glyph glyph-name="uni0400" unicode="&#x400;" horiz-adv-x="1169" 
d="M718 1810l142 -308h-133l-196 308h187zM1227 1352l-26 -139h-775l-82 -463h715l-26 -138h-712l-84 -474h776l-26 -138h-925l240 1352h925z" />
    <glyph glyph-name="uni0401" unicode="&#x401;" horiz-adv-x="1169" 
d="M573 1530q-42 0 -69 26t-27 64q0 48 33 79.5t80 31.5q43 0 69.5 -26t26.5 -66q0 -48 -34 -78.5t-79 -30.5zM1010 1530q-42 0 -69.5 26t-27.5 64q0 48 33 79.5t80 31.5q43 0 69.5 -26t26.5 -66q0 -48 -33.5 -78.5t-78.5 -30.5zM1227 1352l-26 -139h-775l-82 -463h715
l-26 -138h-712l-84 -474h776l-26 -138h-925l240 1352h925z" />
    <glyph glyph-name="uni0402" unicode="&#x402;" horiz-adv-x="1487" 
d="M962 881q206 0 335 -123.5t129 -320.5q0 -115 -49 -226.5t-133 -199.5t-209 -142t-265 -54l24 132q106 3 198 46.5t152.5 112t95 153t34.5 169.5q0 141 -90.5 228t-234.5 87q-157 0 -309 -62l-121 -681h-149l215 1213h-430l25 139h1027l-24 -139h-449l-68 -386
q148 54 296 54z" />
    <glyph glyph-name="uni0403" unicode="&#x403;" horiz-adv-x="1056" 
d="M824 1502h-140l249 308h194zM62 0l240 1352h863l-25 -139h-714l-214 -1213h-150z" />
    <glyph glyph-name="uni0404" unicode="&#x404;" horiz-adv-x="1475" 
d="M706 116q162 0 312.5 87t241.5 228l126 -81q-118 -172 -303 -273.5t-389 -101.5q-137 0 -250.5 46.5t-189.5 127t-118 188.5t-42 232q0 119 39.5 237t114.5 220t174.5 180.5t229.5 124t270 45.5q213 0 365.5 -103t210.5 -276l-145 -64q-42 138 -160 220.5t-281 82.5
q-227 0 -401.5 -140.5t-234.5 -345.5h731l-26 -138h-728q-1 -11 -1 -33q0 -201 126 -332t328 -131z" />
    <glyph glyph-name="uni0405" unicode="&#x405;" horiz-adv-x="1203" 
d="M529 -25q-207 0 -339 91.5t-150 268.5l153 57q-1 -143 91.5 -211t250.5 -70q111 -1 203 30t150 96.5t58 155.5q0 144 -196 190l-285 68q-131 31 -201 113t-70 200q0 125 73.5 220t194.5 143.5t270 48.5q201 0 328.5 -93t141.5 -266l-152 -58q1 143 -89.5 211.5
t-245.5 70.5q-160 2 -266 -70.5t-106 -199.5q0 -83 45 -124.5t147 -65.5l283 -66q138 -33 208 -114t70 -203q0 -133 -79 -230.5t-206 -145t-282 -47.5z" />
    <glyph glyph-name="uni0406" unicode="&#x406;" horiz-adv-x="454" 
d="M212 0h-150l240 1352h150z" />
    <glyph glyph-name="uni0407" unicode="&#x407;" horiz-adv-x="454" 
d="M187 1530q-42 0 -69 26t-27 64q0 48 33 79.5t80 31.5q43 0 69.5 -26t26.5 -66q0 -48 -34 -78.5t-79 -30.5zM624 1530q-42 0 -69.5 26t-27.5 64q0 48 33 79.5t80 31.5q43 0 69.5 -26t26.5 -66q0 -48 -33.5 -78.5t-78.5 -30.5zM212 0h-150l240 1352h150z" />
    <glyph glyph-name="uni0408" unicode="&#x408;" horiz-adv-x="1068" 
d="M410 -25q-178 0 -281.5 92t-103.5 254q0 63 14 119l160 60q-23 -104 -23 -158q0 -226 238 -226q134 0 228.5 85t119.5 224l164 927h149l-166 -935q-36 -207 -169.5 -324.5t-329.5 -117.5z" />
    <glyph glyph-name="uni0409" unicode="&#x409;" horiz-adv-x="2058" 
d="M1206 821h400q186 0 293 -94.5t107 -252.5q0 -58 -17 -119.5t-59 -126t-103 -114.5t-158.5 -82t-216.5 -32h-542l214 1213h-525l-32 -185q-20 -116 -41.5 -213.5t-52 -201t-65 -186.5t-81 -160.5t-100 -133t-122 -95t-147.5 -54.5l-16 132q62 10 116.5 49t96.5 93.5
t80 135t65 158t53 180.5t42.5 184.5t35.5 185.5l45 250h823zM1085 138h403q78 0 142 23t104 59t67 81.5t38 87.5t11 81q0 98 -66.5 156t-184.5 58h-417z" />
    <glyph glyph-name="uni040A" unicode="&#x40a;" horiz-adv-x="2078" 
d="M1226 821h399q186 0 293 -94.5t107 -252.5q0 -58 -17 -119.5t-59 -126t-103 -114.5t-158.5 -82t-216.5 -32h-540l121 684h-719l-121 -684h-150l240 1352h150l-95 -531h719l94 531h150zM1105 138h403q78 0 142 23t103.5 58.5t67 81t38.5 87.5t11 81q0 99 -66 157t-185 58
h-418z" />
    <glyph glyph-name="uni040B" unicode="&#x40b;" horiz-adv-x="1549" 
d="M988 881q244 0 349.5 -138.5t63.5 -381.5l-64 -361h-149l63 354q35 196 -34.5 291.5t-248.5 95.5q-169 0 -329 -64l-120 -677h-149l215 1213h-430l25 139h1027l-24 -139h-449l-68 -390q160 58 322 58z" />
    <glyph glyph-name="uni040C" unicode="&#x40c;" horiz-adv-x="1188" 
d="M978 1810h194l-303 -308h-140zM1105 1352h201l-784 -668l564 -684h-192l-560 687l-122 -687h-150l240 1352h150l-117 -659z" />
    <glyph glyph-name="uni040D" unicode="&#x40d;" horiz-adv-x="1364" 
d="M928 1502h-133l-196 308h186zM1372 1352l-252 -1352h-148l146 794q21 116 59 302h-9l-949 -1096h-157l252 1352h149l-151 -802q-34 -202 -56 -302h8l951 1104h157z" />
    <glyph glyph-name="uni040F" unicode="&#x40f;" horiz-adv-x="1364" 
d="M1212 1352h150l-242 -1295l-10 -57h-448l-47 -254h-148l46 254h-451l11 57h-1l242 1295h150l-227 -1214h749z" />
    <glyph glyph-name="uni0410" unicode="&#x410;" horiz-adv-x="1295" 
d="M1176 0h-164l-58 294h-683l-160 -294h-171l761 1352h188zM771 1210l-425 -778h582l-151 778h-6z" />
    <glyph glyph-name="uni0411" unicode="&#x411;" horiz-adv-x="1243" 
d="M1217 1352l-26 -139h-764l-73 -413h404q185 0 292 -92t107 -245q0 -56 -17 -115.5t-58.5 -122.5t-102.5 -112.5t-158 -81t-216 -31.5h-543l240 1352h915zM752 663h-422l-93 -526h403q78 0 141.5 22.5t103.5 57.5t67 79.5t38 85t11 76.5q0 94 -65.5 149.5t-183.5 55.5z
" />
    <glyph glyph-name="uni0412" unicode="&#x412;" horiz-adv-x="1249" 
d="M976 705q84 -31 132.5 -106t48.5 -175q0 -83 -34 -160t-94.5 -136t-151 -94.5t-195.5 -35.5l-620 2l240 1352h560q157 0 253.5 -80.5t96.5 -210.5q0 -115 -66 -212.5t-170 -143.5zM1051 1032q0 87 -57 134.5t-166 47.5h-401l-81 -454h408q128 0 212.5 76t84.5 196z
M236 137h448q71 0 128.5 20t92.5 51t59 71t33 76.5t9 70.5q0 92 -58 144.5t-156 52.5h-470z" />
    <glyph glyph-name="uni0413" unicode="&#x413;" horiz-adv-x="1056" 
d="M62 0l240 1352h863l-25 -139h-714l-214 -1213h-150z" />
    <glyph glyph-name="uni0414" unicode="&#x414;" horiz-adv-x="1341" 
d="M442 1352h854l-214 -1214h174l-70 -392h-149l45 254h-1013l-45 -254h-149l71 392h78q52 34 97.5 93t81 139t64 161t53 185.5t41 185t34.5 184.5zM566 1213l-27 -156q-28 -159 -54.5 -276.5t-65.5 -245t-91 -227t-117 -170.5h722l187 1075h-554z" />
    <glyph glyph-name="uni0415" unicode="&#x415;" horiz-adv-x="1169" 
d="M1227 1352l-26 -139h-775l-82 -463h715l-26 -138h-712l-84 -474h776l-26 -138h-925l240 1352h925z" />
    <glyph glyph-name="uni0416" unicode="&#x416;" horiz-adv-x="1865" 
d="M1784 1352h198l-756 -670l537 -682h-186l-536 687l-121 -687h-150l122 689l-773 -689h-197l794 698l-509 654h184l502 -661l117 661h149l-117 -659z" />
    <glyph glyph-name="uni0417" unicode="&#x417;" horiz-adv-x="1124" 
d="M795 701q116 -27 177 -95.5t61 -175.5q0 -65 -21 -129t-66 -123t-108.5 -104t-156 -72t-202.5 -27q-183 0 -301.5 78t-154.5 234l143 59q26 -238 315 -238q111 0 201 36.5t146 113.5t56 182q0 98 -74 143.5t-225 45.5h-171l22 137h152q88 0 156.5 22t107 54t63 74.5
t32.5 77.5t8 69q0 91 -72 138.5t-193 47.5q-285 0 -394 -248l-125 77q172 302 528 302q112 0 202.5 -33t148 -104.5t57.5 -170.5q0 -41 -8 -82t-30 -86.5t-55.5 -83.5t-90 -70t-128.5 -49z" />
    <glyph glyph-name="uni0418" unicode="&#x418;" horiz-adv-x="1377" 
d="M1372 1352l-252 -1352h-148l146 794q21 116 59 302h-9l-949 -1096h-157l252 1352h149l-151 -802q-34 -202 -56 -302h8l951 1104h157z" />
    <glyph glyph-name="uni0419" unicode="&#x419;" horiz-adv-x="1364" 
d="M868 1490q-139 0 -207.5 88t-44.5 221h116q-14 -88 25 -141.5t122 -53.5t146 54.5t80 140.5h120q-25 -134 -122 -221.5t-235 -87.5zM1372 1352l-252 -1352h-148l146 794q21 116 59 302h-9l-949 -1096h-157l252 1352h149l-151 -802q-34 -202 -56 -302h8l951 1104h157z" />
    <glyph glyph-name="uni041A" unicode="&#x41a;" horiz-adv-x="1188" 
d="M1105 1352h201l-784 -668l564 -684h-192l-560 687l-122 -687h-150l240 1352h150l-117 -659z" />
    <glyph glyph-name="uni041B" unicode="&#x41b;" horiz-adv-x="1332" 
d="M432 1100l44 252h854l-239 -1352h-150l213 1213h-555l-32 -183q-20 -115 -41.5 -213.5t-51.5 -201.5t-64.5 -186.5t-81.5 -161t-100.5 -133.5t-122 -95.5t-147.5 -54.5l-16 132q62 10 116.5 48.5t97 93t80.5 134t65.5 158.5t53 179.5t42.5 184.5t35 186z" />
    <glyph glyph-name="uni041C" unicode="&#x41c;" horiz-adv-x="1596" 
d="M211 0h-149l240 1352h177l286 -984h4l637 984h187l-239 -1352h-149l137 774q6 35 24.5 138t27.5 159h-4l-592 -907h-116l-278 907h-4q-24 -146 -51 -297z" />
    <glyph glyph-name="uni041D" unicode="&#x41d;" horiz-adv-x="1362" 
d="M1104 750l106 602h150l-240 -1352h-149l108 611h-758l-109 -611h-150l240 1352h150l-107 -602h759z" />
    <glyph glyph-name="uni041E" unicode="&#x41e;" horiz-adv-x="1560" 
d="M698 -25q-137 0 -252 46.5t-191.5 127t-118.5 188.5t-42 232q0 119 39.5 237t114.5 220t175 180.5t230 124t271 45.5q183 0 322 -80t211 -213t72 -297q0 -150 -63 -296t-171 -260t-265 -184.5t-332 -70.5zM710 116q139 0 264 57t210.5 150t136 212t50.5 242
q0 199 -126.5 329t-332.5 130q-138 0 -263 -57t-210.5 -149t-136 -210.5t-50.5 -240.5q0 -201 126 -332t332 -131z" />
    <glyph glyph-name="uni041F" unicode="&#x41f;" horiz-adv-x="1352" 
d="M302 1352h1048l-11 -58l-229 -1294h-149l215 1213h-750l-214 -1213h-150l214 1213l2 8l13 73h1z" />
    <glyph glyph-name="uni0420" unicode="&#x420;" horiz-adv-x="1210" 
d="M302 1352h543q187 0 295.5 -98t108.5 -262q0 -60 -18 -124.5t-62 -133.5t-108.5 -122.5t-166.5 -88t-227 -34.5h-369l-86 -489h-150zM323 627h384q91 0 166.5 31.5t122.5 82.5t72.5 114.5t25.5 129.5q0 104 -70 166t-189 62h-409z" />
    <glyph glyph-name="uni0421" unicode="&#x421;" horiz-adv-x="1475" 
d="M694 -25q-137 0 -250.5 46.5t-189.5 127t-118 188.5t-42 232q0 119 39.5 237t114.5 220t174.5 180.5t229.5 124t270 45.5q213 0 365.5 -103t210.5 -276l-145 -64q-42 138 -160 220.5t-281 82.5q-139 0 -263.5 -57t-210.5 -149t-136 -210.5t-50 -240.5q0 -201 126 -332
t328 -131q162 0 312.5 87t241.5 228l126 -81q-118 -172 -303 -273.5t-389 -101.5z" />
    <glyph glyph-name="uni0422" unicode="&#x422;" horiz-adv-x="1106" 
d="M180 1352h1046l-26 -139h-447l-215 -1213h-150l215 1213h-448z" />
    <glyph glyph-name="uni0423" unicode="&#x423;" horiz-adv-x="1144" 
d="M587 530l529 822h169l-888 -1352h-168l250 367l-319 985h166l257 -822h4z" />
    <glyph glyph-name="uni0424" unicode="&#x424;" horiz-adv-x="1451" 
d="M930 1237h5q228 0 370 -128.5t142 -340.5q0 -135 -58 -256.5t-154.5 -208t-226.5 -137.5t-270 -51h-7l-24 -140h-150l25 140h-4q-232 0 -373.5 133t-141.5 340q0 177 95.5 326.5t258 236t353.5 86.5h10l25 139h149zM593 251h13l150 850h-5q-110 0 -209.5 -42t-169.5 -112
t-111.5 -163t-41.5 -193q-1 -152 101 -246t273 -94zM756 251h4q143 0 266.5 72t194.5 190.5t71 251.5q0 154 -103.5 245t-270.5 91h-13z" />
    <glyph glyph-name="uni0425" unicode="&#x425;" horiz-adv-x="1235" 
d="M121 0h-181l610 692l-348 660h171l286 -574h5l495 574h178l-581 -660l360 -692h-169l-303 603h-4z" />
    <glyph glyph-name="uni0426" unicode="&#x426;" horiz-adv-x="1395" 
d="M1212 1352h150l-226 -1214h185l-71 -392h-148l45 254h-1085l11 57h-1l242 1295h150l-227 -1214h749z" />
    <glyph glyph-name="uni0427" unicode="&#x427;" horiz-adv-x="1292" 
d="M1014 642l126 710h149l-239 -1352h-150l88 495q-157 -56 -320 -56q-261 0 -377.5 149t-72.5 400l64 364h149l-65 -363q-36 -201 45 -306t272 -105q167 0 331 64z" />
    <glyph glyph-name="uni0428" unicode="&#x428;" horiz-adv-x="1846" 
d="M1843 1352l-214 -1214l-1 -7l-13 -74h-1l-10 -57h-1542l11 57l229 1295h150l-215 -1214h546l215 1214h150l-215 -1214h547l214 1214h149z" />
    <glyph glyph-name="uni0429" unicode="&#x429;" horiz-adv-x="1889" 
d="M1843 1352l-214 -1214h186l-71 -392h-149l45 254h-1578l11 57l229 1295h150l-215 -1214h546l215 1214h150l-215 -1214h547l214 1214h149z" />
    <glyph glyph-name="uni042A" unicode="&#x42a;" horiz-adv-x="1289" 
d="M437 821h399q186 0 293 -94.5t107 -252.5q0 -58 -17 -119.5t-59 -126t-103 -114.5t-158.5 -82t-216.5 -32h-541l213 1203h-253l28 149h401zM316 138h403q78 0 141.5 23t103.5 59t67 81.5t38 87.5t11 81q0 98 -66.5 156t-184.5 58h-416z" />
    <glyph glyph-name="uni042B" unicode="&#x42b;" horiz-adv-x="1664" 
d="M358 821h399q186 0 293 -94.5t107 -252.5q0 -58 -17 -119.5t-59 -126t-103 -114.5t-158.5 -82t-216.5 -32h-541l240 1352h150zM1273 0l239 1352h150l-240 -1352h-149zM238 138h402q78 0 141.5 23t103.5 59t67 81.5t38 87.5t11 81q0 98 -66 156t-184 58h-417z" />
    <glyph glyph-name="uni042C" unicode="&#x42c;" horiz-adv-x="1210" 
d="M358 821h399q186 0 293 -94.5t107 -252.5q0 -58 -17 -119.5t-59 -126t-103 -114.5t-158.5 -82t-216.5 -32h-541l240 1352h150zM238 138h402q78 0 141.5 23t103.5 59t67 81.5t38 87.5t11 81q0 98 -66 156t-184 58h-417z" />
    <glyph glyph-name="uni042D" unicode="&#x42d;" horiz-adv-x="1475" 
d="M841 1376q137 0 250.5 -46.5t189.5 -127t118 -188.5t42 -232q0 -119 -39.5 -237t-114.5 -220t-174.5 -180.5t-229.5 -124t-270 -45.5q-213 0 -365.5 103t-210.5 276l145 65q42 -138 160 -220.5t281 -82.5q227 0 401 140.5t234 345.5h-730l26 137h728q1 11 1 34
q0 201 -126 332t-328 131q-162 0 -312.5 -87t-241.5 -228l-127 80q118 172 303.5 273.5t389.5 101.5z" />
    <glyph glyph-name="uni042E" unicode="&#x42e;" horiz-adv-x="2055" 
d="M1426 1376q136 0 249.5 -46.5t189 -126.5t117 -187.5t41.5 -229.5q0 -119 -39 -238t-113 -221t-173 -181.5t-228 -125t-268 -45.5q-181 0 -318.5 80t-208 214t-70.5 300q0 28 1 42h-285l-109 -611h-150l240 1352h150l-107 -602h283q32 126 104 238.5t173.5 199t237 137.5
t283.5 51zM1212 116q137 0 260.5 57t208.5 150t135 212t50 242q0 199 -124.5 329t-326.5 130q-137 0 -260 -57t-208 -149t-134.5 -210.5t-49.5 -240.5q0 -201 123.5 -332t325.5 -131z" />
    <glyph glyph-name="uni042F" unicode="&#x42f;" 
d="M680 1352h543l-237 -1352h-149l86 489h-378h-18l-388 -489h-170l410 511q-141 41 -208.5 147t-42.5 250q35 195 188 319.5t364 124.5zM563 627h384l104 586h-411q-135 0 -232 -78.5t-119 -203.5q-25 -137 47 -220.5t227 -83.5z" />
    <glyph glyph-name="uni0430" unicode="&#x430;" horiz-adv-x="1304" 
d="M1062 836l52 180h128l-180 -1016h-128l13 172q-80 -92 -190.5 -144.5t-241.5 -52.5q-200 0 -326.5 123t-126.5 318q0 115 47 227t128 200t200 142.5t253 54.5q127 0 223.5 -53t148.5 -151zM529 108q101 0 192.5 43.5t154 113t99 155.5t36.5 171q0 140 -91.5 228.5
t-236.5 88.5q-103 0 -193 -44t-149 -114t-93 -157t-34 -174q0 -138 87 -224.5t228 -86.5z" />
    <glyph glyph-name="uni0431" unicode="&#x431;" horiz-adv-x="1286" 
d="M1264 1368l-458 -75q-202 -35 -313 -140.5t-164 -327.5q84 102 202 158t248 56q199 0 321.5 -122t122.5 -313q0 -116 -47 -228.5t-128 -201.5t-201.5 -144t-256.5 -55q-87 0 -160.5 22t-126 61.5t-91.5 94t-57.5 118.5t-24 135t9.5 145l31 171q10 55 20 99.5t26 98.5
t34 97.5t45.5 92t60 86.5t77 75.5t96 65.5t118 50.5t142.5 35.5l474 80v-135zM760 908q-101 0 -193 -42t-156 -110t-101.5 -155t-37.5 -176q0 -141 92.5 -229t233.5 -88q101 0 191.5 43.5t151 113.5t96 157.5t35.5 174.5q0 138 -87 224.5t-225 86.5z" />
    <glyph glyph-name="uni0432" unicode="&#x432;" horiz-adv-x="1141" 
d="M817 532q95 -20 150 -79.5t55 -143.5q0 -57 -26.5 -112.5t-81 -106.5t-152.5 -83t-226 -32q-89 0 -160.5 15.5t-119 43t-81.5 65t-48 81.5t-19 92t6 97l55 307q31 172 162 268.5t341 96.5q167 0 263.5 -63.5t96.5 -180.5q0 -89 -57.5 -160.5t-157.5 -104.5zM659 916
q-149 0 -235.5 -62.5t-107.5 -182.5l-14 -80h338q111 0 179.5 56.5t68.5 131.5q0 67 -59.5 102t-169.5 35zM543 99q92 0 160 20.5t104 54t53 69.5t17 74q0 68 -53.5 106t-150.5 38h-394l-18 -101q-22 -119 44 -190t238 -71z" />
    <glyph glyph-name="uni0433" unicode="&#x433;" horiz-adv-x="1019" 
d="M408 -25q-170 0 -273 72t-103 208q0 125 85 199t230 100l273 50q92 17 142 60.5t50 108.5q0 137 -218 137q-138 0 -227 -56t-128 -156l-123 58q52 134 182 209.5t302 75.5q160 0 256.5 -67t96.5 -199q0 -122 -84 -199.5t-229 -103.5l-270 -47q-86 -15 -138.5 -60
t-52.5 -112q0 -71 62.5 -109.5t172.5 -38.5q144 0 237.5 62t133.5 162l122 -59q-54 -137 -185.5 -216t-313.5 -79z" />
    <glyph glyph-name="uni0434" unicode="&#x434;" horiz-adv-x="1258" 
d="M601 1479q295 0 437.5 -168.5t142.5 -483.5q0 -205 -53.5 -376t-163.5 -287q-180 -189 -437 -189q-208 0 -334.5 123.5t-126.5 323.5q0 161 82.5 303t225.5 228t309 86q118 0 210.5 -45.5t140.5 -123.5v18q-5 231 -115.5 345.5t-331.5 114.5q-141 0 -269 -41l-19 130
q141 42 302 42zM860 239q68 68 107 160t39 188q0 145 -89 233t-233 88q-128 0 -236.5 -69t-168.5 -179t-60 -231q0 -145 88.5 -233t237.5 -88q184 0 315 131z" />
    <glyph glyph-name="uni0435" unicode="&#x435;" 
d="M1147 462h-927q-2 -24 -2 -38q0 -150 84.5 -234t237.5 -84q125 0 237 59.5t177 161.5l118 -77q-90 -128 -233.5 -201.5t-310.5 -73.5q-208 0 -335.5 120t-127.5 323q0 93 28.5 183.5t84 169.5t131 139.5t177 95.5t214.5 35q212 0 338 -124.5t126 -320.5q0 -85 -17 -134z
M691 910q-158 0 -275.5 -90.5t-167.5 -228.5h767v15q0 134 -90 219t-234 85z" />
    <glyph glyph-name="uni0436" unicode="&#x436;" horiz-adv-x="1581" 
d="M722 528l-614 -528h-198l638 537l-437 479h186zM778 0h-149l180 1016h149zM1492 0h-184l-436 528l597 488h203l-616 -496z" />
    <glyph glyph-name="uni0437" unicode="&#x437;" horiz-adv-x="1024" 
d="M703 530q90 -22 140 -76t50 -139q0 -46 -15 -91t-50 -89t-86 -77.5t-130.5 -54.5t-176.5 -21q-341 0 -403 244l142 50q20 -167 257 -167q72 0 128.5 15t90.5 38.5t56 54t30 58t8 54.5q0 137 -239 137h-155l19 123h138q70 0 124 15t84.5 36.5t49.5 51t25 53t6 47.5
q0 63 -57.5 97t-156.5 34q-233 0 -311 -177l-131 65q155 239 451 239q153 0 253 -64.5t100 -190.5q0 -100 -65 -169t-176 -96z" />
    <glyph glyph-name="uni0438" unicode="&#x438;" horiz-adv-x="1184" 
d="M890 539l84 477h149l-180 -1016h-128l7 136q-143 -156 -373 -156q-176 0 -264.5 117.5t-54.5 306.5l109 612h149l-108 -599q-28 -154 28 -231.5t188 -77.5q142 0 245.5 88.5t129.5 236.5z" />
    <glyph glyph-name="uni0439" unicode="&#x439;" horiz-adv-x="1184" 
d="M720 1154q-139 0 -207.5 88t-44.5 221h116q-14 -88 24.5 -141.5t121.5 -53.5t146 54.5t80 140.5h120q-25 -134 -121.5 -221.5t-234.5 -87.5zM890 539l84 477h149l-180 -1016h-128l7 136q-143 -156 -373 -156q-176 0 -264.5 117.5t-54.5 306.5l109 612h149l-108 -599
q-28 -154 28 -231.5t188 -77.5q142 0 245.5 88.5t129.5 236.5z" />
    <glyph glyph-name="uni043A" unicode="&#x43a;" horiz-adv-x="1035" 
d="M919 1016h206l-636 -496l456 -520h-188l-452 526l-93 -526h-150l181 1016h149l-86 -486z" />
    <glyph glyph-name="uni043B" unicode="&#x43b;" horiz-adv-x="1143" 
d="M316 827l33 189h732l-180 -1016h-149l157 885h-437l-19 -119q-10 -61 -18.5 -106t-23 -107.5t-29 -109.5t-37.5 -104t-48 -99.5t-60.5 -86.5t-75 -75.5t-91 -56.5t-110.5 -37l-18 134q55 13 100.5 43t79 69t61 94t46 109.5t35 123.5t27.5 127.5t23 129.5q1 9 2 13z" />
    <glyph glyph-name="uni043C" unicode="&#x43c;" horiz-adv-x="1390" 
d="M211 0h-149l181 1016h175l240 -704l493 704h177l-180 -1016h-149l93 523q21 124 46 241l-4 -4l-452 -639h-111l-220 639l-8 -4q-4 -29 -41 -241z" />
    <glyph glyph-name="uni043D" unicode="&#x43d;" horiz-adv-x="1169" 
d="M880 580l77 436h150l-180 -1016h-150l80 449h-565l-80 -449h-150l181 1016h149l-78 -436h566z" />
    <glyph glyph-name="uni043E" unicode="&#x43e;" horiz-adv-x="1236" 
d="M535 -25q-214 0 -342 125t-128 321q0 118 49.5 231t133 199t203 138t251.5 52q210 0 340 -124t130 -321q0 -157 -82 -299.5t-230 -232t-325 -89.5zM544 108q131 0 241.5 68.5t172 179t61.5 233.5q0 143 -89.5 231t-238.5 88q-131 0 -241 -68.5t-171 -179t-61 -233.5
q0 -143 89 -231t237 -88z" />
    <glyph glyph-name="uni043F" unicode="&#x43f;" horiz-adv-x="1184" 
d="M732 1040q180 0 269.5 -118.5t54.5 -310.5l-110 -611h-148l107 599q29 156 -29.5 234.5t-190.5 78.5q-137 0 -240 -87.5t-130 -236.5l-103 -588h-150l181 1016h128l-7 -133q144 157 368 157z" />
    <glyph glyph-name="uni0440" unicode="&#x440;" horiz-adv-x="1306" 
d="M795 1040q199 0 324 -122t125 -318q0 -115 -47 -227t-128 -200.5t-200 -143t-253 -54.5q-128 0 -224 53.5t-147 152.5l-105 -595l-153 -16l256 1446h128l-12 -174q80 93 191.5 145.5t244.5 52.5zM620 108q103 0 193 44t150 113.5t94 155.5t34 172q0 141 -85 228t-225 87
q-101 0 -192.5 -43.5t-154.5 -112.5t-100.5 -155t-37.5 -172q0 -139 91.5 -228t232.5 -89z" />
    <glyph glyph-name="uni0441" unicode="&#x441;" horiz-adv-x="1176" 
d="M519 -25q-207 0 -330.5 122.5t-123.5 320.5q0 116 45.5 228t125.5 200t200 141.5t258 53.5q170 0 284.5 -76.5t157.5 -208.5l-140 -60q-27 98 -110 155t-203 57q-101 0 -189.5 -42t-148 -110.5t-93.5 -155t-34 -175.5q0 -144 84 -230.5t225 -86.5q119 0 228 56t175 165
l121 -77q-92 -130 -231 -203.5t-301 -73.5z" />
    </font>
</defs>
</svg>
